<?xml version="1.0" encoding="UTF-8"?>
<!DOCTYPE svg PUBLIC "-//W3C//DTD SVG 1.1//EN" "http://www.w3.org/Graphics/SVG/1.1/DTD/svg11.dtd">
<svg xmlns="http://www.w3.org/2000/svg" version="1.1" width="1024px" height="1024px" style="shape-rendering:geometricPrecision; text-rendering:geometricPrecision; image-rendering:optimizeQuality; fill-rule:evenodd; clip-rule:evenodd" xmlns:xlink="http://www.w3.org/1999/xlink">
<g><path style="opacity:1" fill="#f8f0e4" d="M -0.5,-0.5 C 340.833,-0.5 682.167,-0.5 1023.5,-0.5C 1023.5,340.833 1023.5,682.167 1023.5,1023.5C 895.5,1023.5 767.5,1023.5 639.5,1023.5C 639.5,938.167 639.5,852.833 639.5,767.5C 716.541,767.833 792.208,767.5 866.5,766.5C 884.329,762.82 892.496,751.82 891,733.5C 890.489,731.122 889.822,728.788 889,726.5C 805.144,584.778 721.31,443.111 637.5,301.5C 637.667,224.833 637.5,148.166 637,71.5C 634.853,66.1844 631.02,62.851 625.5,61.5C 549.5,61.5 473.5,61.5 397.5,61.5C 391.98,62.851 388.147,66.1844 386,71.5C 385.5,148.499 385.333,225.499 385.5,302.5C 304.445,440.94 222.612,578.94 140,716.5C 137.393,721.38 135.06,726.38 133,731.5C 130.417,747.718 136.584,759.051 151.5,765.5C 151.918,766.222 152.584,766.722 153.5,767C 230.499,767.5 307.499,767.667 384.5,767.5C 384.167,852.668 384.501,937.668 385.5,1022.5C 385.5,1022.83 385.5,1023.17 385.5,1023.5C 256.833,1023.5 128.167,1023.5 -0.5,1023.5C -0.5,682.167 -0.5,340.833 -0.5,-0.5 Z"/></g>
<g><path style="opacity:1" fill="#f05e27" d="M 397.5,61.5 C 404.982,62.492 412.648,62.8254 420.5,62.5C 420.333,97.8349 420.5,133.168 421,168.5C 423.84,171.371 426.174,171.037 428,167.5C 428.5,132.502 428.667,97.5016 428.5,62.5C 441.167,62.5 453.833,62.5 466.5,62.5C 466.333,73.505 466.5,84.505 467,95.5C 468.287,98.1446 470.453,99.1446 473.5,98.5C 474.438,86.5375 474.772,74.5375 474.5,62.5C 494.5,62.5 514.5,62.5 534.5,62.5C 534.833,85.1765 534.5,107.843 533.5,130.5C 531.999,129.248 530.332,128.248 528.5,127.5C 527.893,127.624 527.56,127.957 527.5,128.5C 512.181,122.646 498.348,124.979 486,135.5C 452.977,191.562 419.477,247.229 385.5,302.5C 385.333,225.499 385.5,148.499 386,71.5C 388.147,66.1844 391.98,62.851 397.5,61.5 Z"/></g>
<g><path style="opacity:1" fill="#f15e27" d="M 560.5,62.5 C 560.333,90.1687 560.5,117.835 561,145.5C 561.965,150.473 564.298,151.473 568,148.5C 568.5,119.835 568.667,91.1686 568.5,62.5C 574.5,62.5 580.5,62.5 586.5,62.5C 586.333,82.8361 586.5,103.169 587,123.5C 590.157,127.771 592.49,127.438 594,122.5C 594.5,102.503 594.667,82.5028 594.5,62.5C 601.833,62.5 609.167,62.5 616.5,62.5C 616.667,129.834 616.5,197.167 616,264.5C 614.414,262.33 613.08,259.996 612,257.5C 611.31,256.262 610.81,256.262 610.5,257.5C 586.585,218.007 562.918,178.34 539.5,138.5C 539.187,136.979 539.687,135.312 541,133.5C 541.5,109.836 541.667,86.169 541.5,62.5C 547.833,62.5 554.167,62.5 560.5,62.5 Z"/></g>
<g><path style="opacity:1" fill="#e34613" d="M 560.5,62.5 C 563.167,62.5 565.833,62.5 568.5,62.5C 568.667,91.1686 568.5,119.835 568,148.5C 564.298,151.473 561.965,150.473 561,145.5C 560.5,117.835 560.333,90.1687 560.5,62.5 Z"/></g>
<g><path style="opacity:1" fill="#e44613" d="M 625.5,61.5 C 631.02,62.851 634.853,66.1844 637,71.5C 637.5,148.166 637.667,224.833 637.5,301.5C 628.013,287.203 619.013,272.537 610.5,257.5C 610.81,256.262 611.31,256.262 612,257.5C 613.08,259.996 614.414,262.33 616,264.5C 616.5,197.167 616.667,129.834 616.5,62.5C 619.713,62.81 622.713,62.4767 625.5,61.5 Z"/></g>
<g><path style="opacity:1" fill="#e24511" d="M 466.5,62.5 C 469.167,62.5 471.833,62.5 474.5,62.5C 474.772,74.5375 474.438,86.5375 473.5,98.5C 470.453,99.1446 468.287,98.1446 467,95.5C 466.5,84.505 466.333,73.505 466.5,62.5 Z"/></g>
<g><path style="opacity:1" fill="#e34612" d="M 586.5,62.5 C 589.167,62.5 591.833,62.5 594.5,62.5C 594.667,82.5028 594.5,102.503 594,122.5C 592.49,127.438 590.157,127.771 587,123.5C 586.5,103.169 586.333,82.8361 586.5,62.5 Z"/></g>
<g><path style="opacity:1" fill="#e5400e" d="M 397.5,61.5 C 473.5,61.5 549.5,61.5 625.5,61.5C 622.713,62.4767 619.713,62.81 616.5,62.5C 609.167,62.5 601.833,62.5 594.5,62.5C 591.833,62.5 589.167,62.5 586.5,62.5C 580.5,62.5 574.5,62.5 568.5,62.5C 565.833,62.5 563.167,62.5 560.5,62.5C 554.167,62.5 547.833,62.5 541.5,62.5C 541.667,86.169 541.5,109.836 541,133.5C 539.687,135.312 539.187,136.979 539.5,138.5C 536.426,134.096 532.426,130.763 527.5,128.5C 527.56,127.957 527.893,127.624 528.5,127.5C 530.332,128.248 531.999,129.248 533.5,130.5C 534.5,107.843 534.833,85.1765 534.5,62.5C 514.5,62.5 494.5,62.5 474.5,62.5C 471.833,62.5 469.167,62.5 466.5,62.5C 453.833,62.5 441.167,62.5 428.5,62.5C 425.833,62.5 423.167,62.5 420.5,62.5C 412.648,62.8254 404.982,62.492 397.5,61.5 Z"/></g>
<g><path style="opacity:1" fill="#e24511" d="M 420.5,62.5 C 423.167,62.5 425.833,62.5 428.5,62.5C 428.667,97.5016 428.5,132.502 428,167.5C 426.174,171.037 423.84,171.371 421,168.5C 420.5,133.168 420.333,97.8349 420.5,62.5 Z"/></g>
<g><path style="opacity:1" fill="#fec42e" d="M 527.5,128.5 C 532.426,130.763 536.426,134.096 539.5,138.5C 562.918,178.34 586.585,218.007 610.5,257.5C 619.013,272.537 628.013,287.203 637.5,301.5C 721.31,443.111 805.144,584.778 889,726.5C 889.822,728.788 890.489,731.122 891,733.5C 892.496,751.82 884.329,762.82 866.5,766.5C 790.167,766.5 713.833,766.5 637.5,766.5C 553.5,765.167 469.5,765.167 385.5,766.5C 307.478,766.822 229.478,766.488 151.5,765.5C 136.584,759.051 130.417,747.718 133,731.5C 135.06,726.38 137.393,721.38 140,716.5C 222.612,578.94 304.445,440.94 385.5,302.5C 419.477,247.229 452.977,191.562 486,135.5C 498.348,124.979 512.181,122.646 527.5,128.5 Z"/></g>
<g><path style="opacity:1" fill="#e54814" d="M 505.5,178.5 C 523.731,177.256 535.564,185.256 541,202.5C 541.654,225.512 530.487,237.012 507.5,237C 485.668,230.505 478.168,216.338 485,194.5C 490.013,186.633 496.846,181.3 505.5,178.5 Z"/></g>
<g><path style="opacity:1" fill="#f3de2d" d="M 531.5,296.5 C 529.612,299.899 527.112,302.899 524,305.5C 522.403,308.791 520.903,312.125 519.5,315.5C 524.404,317.952 529.404,320.452 534.5,323C 535.381,323.708 536.047,324.542 536.5,325.5C 530.965,322.069 524.965,319.736 518.5,318.5C 519.235,309.028 523.569,301.694 531.5,296.5 Z"/></g>
<g><path style="opacity:1" fill="#f5e12d" d="M 492.5,291.5 C 492.343,292.873 492.51,294.207 493,295.5C 496,298.5 499,301.5 502,304.5C 505.28,308.97 506.446,313.803 505.5,319C 500.241,320.631 495.241,322.798 490.5,325.5C 490.062,325.565 489.728,325.399 489.5,325C 494.412,321.579 499.746,318.912 505.5,317C 504.717,312.927 503.217,309.094 501,305.5C 497.667,302.167 494.333,298.833 491,295.5C 490.48,293.711 490.813,292.044 492,290.5C 492.399,290.728 492.565,291.062 492.5,291.5 Z"/></g>
<g><path style="opacity:1" fill="#f3de2d" d="M 536.5,325.5 C 540.067,327.557 543.234,330.223 546,333.5C 554.363,346.223 561.696,359.556 568,373.5C 569.351,376.623 569.518,379.623 568.5,382.5C 567.018,373.557 563.851,365.224 559,357.5C 553.213,345.578 545.713,334.911 536.5,325.5 Z"/></g>
<g><path style="opacity:1" fill="#edd82d" d="M 457.5,383.5 C 457.536,401.122 464.369,415.455 478,426.5C 478.559,432.712 476.392,437.712 471.5,441.5C 472.989,438.522 474.489,435.522 476,432.5C 476.667,430.5 476.667,428.5 476,426.5C 461.402,414.171 455.236,399.837 457.5,383.5 Z"/></g>
<g><path style="opacity:1" fill="#e9d32c" d="M 530.5,469.5 C 521.702,481.582 510.036,489.748 495.5,494C 482.59,496.572 469.59,498.572 456.5,500C 455.692,500.308 455.025,500.808 454.5,501.5C 494.166,502.682 533.832,502.682 573.5,501.5C 580.833,501.667 588.167,501.833 595.5,502C 584.326,502.17 573.326,502.67 562.5,503.5C 558.833,503.5 555.167,503.5 551.5,503.5C 545.642,503.178 539.975,503.511 534.5,504.5C 507.153,504.751 479.82,504.418 452.5,503.5C 452.5,502.167 452.5,500.833 452.5,499.5C 464.1,497.405 475.767,495.572 487.5,494C 504.822,491.008 519.155,482.841 530.5,469.5 Z"/></g>
<g><path style="opacity:1" fill="#020228" d="M 551.5,503.5 C 555.167,503.5 558.833,503.5 562.5,503.5C 574.167,503.5 585.833,503.5 597.5,503.5C 600.807,504.051 604.14,504.384 607.5,504.5C 606.207,505.158 604.707,505.492 603,505.5C 585.674,504.897 568.508,504.23 551.5,503.5 Z"/></g>
<g><path style="opacity:1" fill="#030426" d="M 452.5,499.5 C 452.5,500.833 452.5,502.167 452.5,503.5C 479.82,504.418 507.153,504.751 534.5,504.5C 515.18,505.652 488.514,505.819 454.5,505C 450.658,503.876 449.992,502.043 452.5,499.5 Z"/></g>
<g><path style="opacity:1" fill="#edd92e" d="M 597.5,503.5 C 627.117,503.898 647.45,518.065 658.5,546C 658.43,546.765 658.097,547.265 657.5,547.5C 648.87,523.873 632.203,509.54 607.5,504.5C 604.14,504.384 600.807,504.051 597.5,503.5 Z"/></g>
<g><path style="opacity:1" fill="#f5ce2c" d="M 561.5,560.5 C 566.814,559.569 571.647,556.569 576,551.5C 577.379,547.525 576.213,544.691 572.5,543C 567.9,542.338 563.567,541.671 559.5,541C 562.167,541.667 562.167,542.333 559.5,543C 560.938,543.219 562.271,543.719 563.5,544.5C 559.145,548.014 559.812,550.18 565.5,551C 564.099,551.41 562.766,551.91 561.5,552.5C 561.167,552.5 560.833,552.5 560.5,552.5C 559.791,551.596 558.791,551.263 557.5,551.5C 557.158,550.662 556.492,550.328 555.5,550.5C 545.479,549.888 535.479,549.222 525.5,548.5C 535.358,547.454 545.358,547.287 555.5,548C 551.943,546.592 548.276,545.592 544.5,545C 545.716,543.26 547.382,542.26 549.5,542C 548.5,541.667 547.5,541.333 546.5,541C 549.347,540.056 551.847,540.556 554,542.5C 554.5,541.333 555.333,540.5 556.5,540C 544.425,537.679 532.425,538.013 520.5,541C 518.709,541.415 517.376,542.415 516.5,544C 518.808,545.867 521.475,546.867 524.5,547C 523.207,547.49 521.873,547.657 520.5,547.5C 515.813,547.084 514.479,544.751 516.5,540.5C 532.346,537.015 548.346,536.515 564.5,539C 580.835,542.339 582.502,549.005 569.5,559C 566.937,560.079 564.271,560.579 561.5,560.5 Z"/></g>
<g><path style="opacity:1" fill="#f3dc2c" d="M 384.5,519.5 C 387.899,532.995 395.233,543.662 406.5,551.5C 407.167,552.5 407.833,553.5 408.5,554.5C 396.088,546.734 387.755,535.734 383.5,521.5C 383.543,520.584 383.876,519.917 384.5,519.5 Z"/></g>
<g><path style="opacity:1" fill="#0a0923" d="M 406.5,551.5 C 408.78,552.64 411.114,553.807 413.5,555C 457.833,555.667 502.167,555.667 546.5,555C 550.491,554.591 554.157,553.424 557.5,551.5C 558.791,551.263 559.791,551.596 560.5,552.5C 554.767,554.933 548.767,556.433 542.5,557C 502.838,556.825 463.171,556.658 423.5,556.5C 418.308,556.909 413.308,556.242 408.5,554.5C 407.833,553.5 407.167,552.5 406.5,551.5 Z"/></g>
<g><path style="opacity:1" fill="#f2d92e" d="M 560.5,552.5 C 560.833,552.5 561.167,552.5 561.5,552.5C 560.942,553.79 559.942,554.623 558.5,555C 555.167,556 551.833,557 548.5,558C 503.5,558.667 458.5,558.667 413.5,558C 417.025,557.821 420.359,557.321 423.5,556.5C 463.171,556.658 502.838,556.825 542.5,557C 548.767,556.433 554.767,554.933 560.5,552.5 Z"/></g>
<g><path style="opacity:1" fill="#f6d82c" d="M 559.5,561.5 C 548.893,562.931 538.226,563.764 527.5,564C 474.834,564.5 422.168,564.667 369.5,564.5C 367.801,564.66 366.134,564.494 364.5,564C 367.5,563.667 370.5,563.333 373.5,563C 427.5,562.667 481.5,562.333 535.5,562C 542.181,561.666 548.847,561.166 555.5,560.5C 557.045,560.511 558.378,560.844 559.5,561.5 Z"/></g>
<g><path style="opacity:1" fill="#080824" d="M 559.5,561.5 C 560.167,561.5 560.833,561.5 561.5,561.5C 562.239,561.369 562.906,561.536 563.5,562C 555.589,563.656 547.589,564.656 539.5,565C 484.833,565.333 430.167,565.667 375.5,566C 368.93,566.355 362.43,567.188 356,568.5C 355.235,568.43 354.735,568.097 354.5,567.5C 359.556,566.28 364.556,565.28 369.5,564.5C 422.168,564.667 474.834,564.5 527.5,564C 538.226,563.764 548.893,562.931 559.5,561.5 Z"/></g>
<g><path style="opacity:1" fill="#222224" d="M 531.5,296.5 C 523.569,301.694 519.235,309.028 518.5,318.5C 524.965,319.736 530.965,322.069 536.5,325.5C 545.713,334.911 553.213,345.578 559,357.5C 563.851,365.224 567.018,373.557 568.5,382.5C 570.016,395.1 566.849,406.434 559,416.5C 554.634,421.201 549.967,425.534 545,429.5C 543.79,444.234 538.956,457.567 530.5,469.5C 519.155,482.841 504.822,491.008 487.5,494C 475.767,495.572 464.1,497.405 452.5,499.5C 449.992,502.043 450.658,503.876 454.5,505C 488.514,505.819 515.18,505.652 534.5,504.5C 539.975,503.511 545.642,503.178 551.5,503.5C 568.508,504.23 585.674,504.897 603,505.5C 604.707,505.492 606.207,505.158 607.5,504.5C 632.203,509.54 648.87,523.873 657.5,547.5C 664.007,576.341 656.007,600.174 633.5,619C 616.806,629.2 598.64,633.7 579,632.5C 574.167,632.167 569.333,631.833 564.5,631.5C 565.527,623.667 562.027,619.001 554,617.5C 545.624,619.048 542.124,624.048 543.5,632.5C 538.489,632.666 533.489,632.499 528.5,632C 531.351,623.903 528.351,619.069 519.5,617.5C 510.527,618.798 507.193,623.798 509.5,632.5C 503.537,633.496 497.537,633.829 491.5,633.5C 492.675,629.817 492.675,626.15 491.5,622.5C 489.671,618.234 486.337,615.901 481.5,615.5C 472.523,617.139 468.523,622.473 469.5,631.5C 464.125,631.828 458.792,631.495 453.5,630.5C 454.702,625.603 453.369,621.436 449.5,618C 448.563,617.308 447.897,617.475 447.5,618.5C 434.869,615.798 429.869,620.798 432.5,633.5C 425.492,633.666 418.492,633.5 411.5,633C 416.55,623.931 413.884,618.431 403.5,616.5C 395.148,617.517 391.981,622.184 394,630.5C 395.36,633.023 397.193,635.023 399.5,636.5C 399.062,636.435 398.728,636.601 398.5,637C 406.873,642.764 416.206,645.764 426.5,646C 479.833,646.333 533.167,646.667 586.5,647C 590.676,647.427 594.842,647.927 599,648.5C 600.385,648.486 601.551,648.152 602.5,647.5C 608.302,648.868 613.969,650.701 619.5,653C 634.198,660.349 648.864,667.682 663.5,675C 678.166,677.988 684.999,672.155 684,657.5C 676.477,635.71 683.311,620.21 704.5,611C 708.167,610.333 711.833,610.333 715.5,611C 718.207,612.864 719.041,615.364 718,618.5C 712.547,622.114 708.381,626.78 705.5,632.5C 704.431,635.408 704.264,638.408 705,641.5C 707.057,647.281 709.39,652.947 712,658.5C 713.195,662.751 713.695,667.085 713.5,671.5C 713.5,674.833 713.5,678.167 713.5,681.5C 710.955,694.588 703.621,703.921 691.5,709.5C 691.265,708.903 690.765,708.57 690,708.5C 684.989,710.253 679.822,711.42 674.5,712C 644.167,712.667 613.833,712.667 583.5,712C 590.414,708.23 592.247,702.73 589,695.5C 584.701,690.552 579.534,689.385 573.5,692C 572.262,692.69 572.262,693.19 573.5,693.5C 573.167,694.5 572.5,695.167 571.5,695.5C 571.565,695.062 571.399,694.728 571,694.5C 566.646,701.826 568.146,707.659 575.5,712C 564.128,712.424 552.794,712.757 541.5,713C 542.416,712.722 543.082,712.222 543.5,711.5C 544.29,710.599 545.29,709.932 546.5,709.5C 547.833,708.833 548.833,707.833 549.5,706.5C 551.717,696.548 547.717,692.048 537.5,693C 529.844,698.431 529.511,704.264 536.5,710.5C 536.062,710.435 535.728,710.601 535.5,711C 538.375,711.895 538.708,712.728 536.5,713.5C 525.808,712.361 515.141,712.194 504.5,713C 513.66,709.519 516.16,703.352 512,694.5C 510.981,693.313 509.814,692.313 508.5,691.5C 507.893,691.624 507.56,691.957 507.5,692.5C 496.976,690.524 492.476,694.857 494,705.5C 496.623,709.903 500.457,711.569 505.5,710.5C 504.048,711.302 502.382,711.802 500.5,712C 501.5,712.333 502.5,712.667 503.5,713C 491.539,712.751 479.539,712.418 467.5,712C 475.343,708.801 477.51,703.301 474,695.5C 472.225,692.847 470.058,691.847 467.5,692.5C 465.833,692.5 464.167,692.5 462.5,692.5C 463.609,691.71 464.942,691.21 466.5,691C 463.623,690.275 460.957,690.775 458.5,692.5C 457.205,691.902 455.872,691.402 454.5,691C 455.167,690.667 455.833,690.333 456.5,690C 455.027,689.29 454.36,688.124 454.5,686.5C 454.435,674.474 449.102,671.14 438.5,676.5C 438.565,676.062 438.399,675.728 438,675.5C 435.114,679.598 434.781,683.931 437,688.5C 441.478,692.935 446.478,693.602 452,690.5C 451.937,691.962 451.271,693.295 450,694.5C 449.346,693.304 448.846,693.304 448.5,694.5C 449.183,697.461 450.016,697.795 451,695.5C 452.572,699.525 453.739,699.358 454.5,695C 454.167,694.667 453.833,694.333 453.5,694C 454.5,693.333 455.5,693.333 456.5,694C 451.852,701.726 453.519,707.726 461.5,712C 451.5,712.667 441.5,712.667 431.5,712C 434.408,710.244 437.074,708.91 439.5,708C 438.167,706 438.167,704 439.5,702C 438.922,700.189 438.422,698.355 438,696.5C 437.31,695.262 436.81,695.262 436.5,696.5C 430.301,689.636 424.468,689.969 419,697.5C 417.668,702.585 418.835,706.919 422.5,710.5C 422.611,711.117 422.944,711.617 423.5,712C 404.995,712.168 386.662,712.668 368.5,713.5C 350.347,710.758 335.013,702.758 322.5,689.5C 314.763,679.02 309.43,667.353 306.5,654.5C 306.737,653.209 306.404,652.209 305.5,651.5C 303.461,638.233 304.461,625.233 308.5,612.5C 316.56,590.107 331.894,575.107 354.5,567.5C 354.735,568.097 355.235,568.43 356,568.5C 362.43,567.188 368.93,566.355 375.5,566C 430.167,565.667 484.833,565.333 539.5,565C 547.589,564.656 555.589,563.656 563.5,562C 562.906,561.536 562.239,561.369 561.5,561.5C 561.5,561.167 561.5,560.833 561.5,560.5C 564.271,560.579 566.937,560.079 569.5,559C 582.502,549.005 580.835,542.339 564.5,539C 548.346,536.515 532.346,537.015 516.5,540.5C 512.269,544.578 513.269,547.411 519.5,549C 530.314,550.06 541.147,550.893 552,551.5C 553.385,551.486 554.551,551.152 555.5,550.5C 556.492,550.328 557.158,550.662 557.5,551.5C 554.157,553.424 550.491,554.591 546.5,555C 502.167,555.667 457.833,555.667 413.5,555C 411.114,553.807 408.78,552.64 406.5,551.5C 395.233,543.662 387.899,532.995 384.5,519.5C 380.604,488.462 393.271,467.295 422.5,456C 425.167,455.333 427.833,454.667 430.5,454C 441.047,454.107 451.381,452.774 461.5,450C 465.948,448.304 469.281,445.471 471.5,441.5C 476.392,437.712 478.559,432.712 478,426.5C 464.369,415.455 457.536,401.122 457.5,383.5C 462.535,366.425 470.035,350.425 480,335.5C 483.396,331.935 486.896,328.602 490.5,325.5C 495.241,322.798 500.241,320.631 505.5,319C 506.446,313.803 505.28,308.97 502,304.5C 499,301.5 496,298.5 493,295.5C 492.51,294.207 492.343,292.873 492.5,291.5C 494.963,289.059 497.629,288.893 500.5,291C 505.443,295.105 509.443,299.938 512.5,305.5C 515.594,299.572 519.927,294.739 525.5,291C 530.493,289.491 532.493,291.325 531.5,296.5 Z"/></g>
<g><path style="opacity:1" fill="#080823" d="M 516.5,540.5 C 514.479,544.751 515.813,547.084 520.5,547.5C 521.919,548.451 523.585,548.784 525.5,548.5C 535.479,549.222 545.479,549.888 555.5,550.5C 554.551,551.152 553.385,551.486 552,551.5C 541.147,550.893 530.314,550.06 519.5,549C 513.269,547.411 512.269,544.578 516.5,540.5 Z"/></g>
<g><path style="opacity:1" fill="#fcc22b" d="M 525.5,548.5 C 523.585,548.784 521.919,548.451 520.5,547.5C 521.873,547.657 523.207,547.49 524.5,547C 521.475,546.867 518.808,545.867 516.5,544C 517.376,542.415 518.709,541.415 520.5,541C 532.425,538.013 544.425,537.679 556.5,540C 555.333,540.5 554.5,541.333 554,542.5C 551.847,540.556 549.347,540.056 546.5,541C 547.5,541.333 548.5,541.667 549.5,542C 547.382,542.26 545.716,543.26 544.5,545C 548.276,545.592 551.943,546.592 555.5,548C 545.358,547.287 535.358,547.454 525.5,548.5 Z"/></g>
<g><path style="opacity:1" fill="#0e0d24" d="M 537.5,386.5 C 538.5,386.167 539.167,385.5 539.5,384.5C 540.607,379.919 540.773,375.252 540,370.5C 536.385,365.577 532.385,365.244 528,369.5C 526,374.5 526,379.5 528,384.5C 529.129,386.141 530.629,387.141 532.5,387.5C 533.263,388.268 534.263,388.768 535.5,389C 530.973,389.65 527.806,387.816 526,383.5C 525.333,379.167 525.333,374.833 526,370.5C 528.541,365.931 532.375,364.431 537.5,366C 538.667,367.167 539.833,368.333 541,369.5C 541.667,374.5 541.667,379.5 541,384.5C 540.433,386.983 539.267,387.65 537.5,386.5 Z"/></g>
<g><path style="opacity:1" fill="#fbcc2c" d="M 489.5,366.5 C 492.862,366.07 495.695,367.07 498,369.5C 498.667,374.5 498.667,379.5 498,384.5C 494,388.5 490,388.5 486,384.5C 485.333,379.833 485.333,375.167 486,370.5C 487.376,369.295 488.542,367.962 489.5,366.5 Z"/></g>
<g><path style="opacity:1" fill="#f1dc2b" d="M 539.5,384.5 C 538.674,380.018 538.174,375.351 538,370.5C 535,367.833 532,367.833 529,370.5C 528.333,374.833 528.333,379.167 529,383.5C 531.574,386.079 534.408,387.079 537.5,386.5C 535.958,387.301 534.292,387.634 532.5,387.5C 530.629,387.141 529.129,386.141 528,384.5C 526,379.5 526,374.5 528,369.5C 532.385,365.244 536.385,365.577 540,370.5C 540.773,375.252 540.607,379.919 539.5,384.5 Z"/></g>
<g><path style="opacity:1" fill="#fcc32b" d="M 539.5,384.5 C 539.167,385.5 538.5,386.167 537.5,386.5C 534.408,387.079 531.574,386.079 529,383.5C 528.333,379.167 528.333,374.833 529,370.5C 532,367.833 535,367.833 538,370.5C 538.174,375.351 538.674,380.018 539.5,384.5 Z"/></g>
<g><path style="opacity:1" fill="#fdc32b" d="M 529.5,611.5 C 528.662,611.158 528.328,610.492 528.5,609.5C 529.469,607.337 530.302,605.004 531,602.5C 535.643,598.488 539.977,598.821 544,603.5C 545.888,612.279 542.388,615.779 533.5,614C 532.333,612.833 531.167,611.667 530,610.5C 529.601,610.728 529.435,611.062 529.5,611.5 Z"/></g>
<g><path style="opacity:1" fill="#0d0d24" d="M 471.5,603.5 C 465.167,596.533 459.334,596.866 454,604.5C 453.695,614.68 458.529,618.347 468.5,615.5C 467.359,617.243 465.692,618.243 463.5,618.5C 454.676,617.182 451.176,612.182 453,603.5C 456.748,597.458 461.915,595.958 468.5,599C 470.141,600.129 471.141,601.629 471.5,603.5 Z"/></g>
<g><path style="opacity:1" fill="#f2dd2c" d="M 578.5,609.5 C 577.493,606.357 575.827,603.523 573.5,601C 564.667,599.167 561.167,602.667 563,611.5C 566.285,615.096 570.119,616.43 574.5,615.5C 565.045,617.876 560.545,614.21 561,604.5C 565.625,597.572 570.958,596.905 577,602.5C 578.202,604.677 578.702,607.011 578.5,609.5 Z"/></g>
<g><path style="opacity:1" fill="#fac92b" d="M 420.5,598.5 C 429.53,598.358 433.363,602.692 432,611.5C 429.459,616.069 425.625,617.569 420.5,616C 412.686,610.211 412.686,604.378 420.5,598.5 Z"/></g>
<g><path style="opacity:1" fill="#fbc22a" d="M 578.5,609.5 C 578.155,612.198 576.822,614.198 574.5,615.5C 570.119,616.43 566.285,615.096 563,611.5C 561.167,602.667 564.667,599.167 573.5,601C 575.827,603.523 577.493,606.357 578.5,609.5 Z"/></g>
<g><path style="opacity:1" fill="#f7ca2b" d="M 471.5,603.5 C 472.115,607.991 471.115,611.991 468.5,615.5C 458.529,618.347 453.695,614.68 454,604.5C 459.334,596.866 465.167,596.533 471.5,603.5 Z"/></g>
<g><path style="opacity:1" fill="#e8d42b" d="M 494.5,601.5 C 494.953,600.542 495.619,599.708 496.5,599C 507.572,597.403 511.405,601.903 508,612.5C 503.994,617.166 499.494,617.666 494.5,614C 491.735,611.005 490.902,607.505 492,603.5C 492.708,602.619 493.542,601.953 494.5,601.5 Z"/></g>
<g><path style="opacity:1" fill="#fdc32a" d="M 494.5,601.5 C 504.935,597.45 509.102,600.784 507,611.5C 503.627,614.886 499.794,615.386 495.5,613C 494.034,611.448 493.034,609.614 492.5,607.5C 493.372,605.55 494.039,603.55 494.5,601.5 Z"/></g>
<g><path style="opacity:1" fill="#f0da2b" d="M 529.5,611.5 C 529.435,611.062 529.601,610.728 530,610.5C 531.167,611.667 532.333,612.833 533.5,614C 542.388,615.779 545.888,612.279 544,603.5C 539.977,598.821 535.643,598.488 531,602.5C 530.302,605.004 529.469,607.337 528.5,609.5C 527.987,600.847 531.987,597.347 540.5,599C 547.096,602.914 548.096,607.914 543.5,614C 537.915,617.849 533.248,617.015 529.5,611.5 Z"/></g>
<g><path style="opacity:1" fill="#facb2b" d="M 447.5,618.5 C 452.373,622.039 453.706,626.706 451.5,632.5C 458.134,633.497 464.8,633.83 471.5,633.5C 468.88,623.793 472.546,618.46 482.5,617.5C 478.786,618.48 475.619,620.48 473,623.5C 472.421,627.203 472.588,630.869 473.5,634.5C 465.248,634.816 457.081,634.482 449,633.5C 448.727,635.101 448.227,636.601 447.5,638C 445.782,638.346 444.115,638.846 442.5,639.5C 441.029,638.619 440.196,637.286 440,635.5C 439,636.167 438,636.833 437,637.5C 434.74,635.523 432.073,634.523 429,634.5C 423.399,634.916 417.899,635.749 412.5,637C 413.38,638.356 413.714,639.856 413.5,641.5C 418.028,641.77 422.361,642.437 426.5,643.5C 425.508,643.328 424.842,643.662 424.5,644.5C 415.511,643.837 407.178,641.17 399.5,636.5C 397.193,635.023 395.36,633.023 394,630.5C 391.981,622.184 395.148,617.517 403.5,616.5C 413.884,618.431 416.55,623.931 411.5,633C 418.492,633.5 425.492,633.666 432.5,633.5C 429.869,620.798 434.869,615.798 447.5,618.5 Z"/></g>
<g><path style="opacity:1" fill="#141324" d="M 491.5,622.5 C 489.221,619.558 486.221,617.891 482.5,617.5C 472.546,618.46 468.88,623.793 471.5,633.5C 464.8,633.83 458.134,633.497 451.5,632.5C 453.706,626.706 452.373,622.039 447.5,618.5C 447.897,617.475 448.563,617.308 449.5,618C 453.369,621.436 454.702,625.603 453.5,630.5C 458.792,631.495 464.125,631.828 469.5,631.5C 468.523,622.473 472.523,617.139 481.5,615.5C 486.337,615.901 489.671,618.234 491.5,622.5 Z"/></g>
<g><path style="opacity:1" fill="#f6e92e" d="M 424.5,644.5 C 424.842,643.662 425.508,643.328 426.5,643.5C 480.834,643.333 535.168,643.5 589.5,644C 591.5,644.333 593.5,644.667 595.5,645C 594.207,645.49 592.873,645.657 591.5,645.5C 535.839,644.596 480.173,644.263 424.5,644.5 Z"/></g>
<g><path style="opacity:1" fill="#0e0e25" d="M 399.5,636.5 C 407.178,641.17 415.511,643.837 424.5,644.5C 480.173,644.263 535.839,644.596 591.5,645.5C 594.974,646.525 598.64,647.192 602.5,647.5C 601.551,648.152 600.385,648.486 599,648.5C 594.842,647.927 590.676,647.427 586.5,647C 533.167,646.667 479.833,646.333 426.5,646C 416.206,645.764 406.873,642.764 398.5,637C 398.728,636.601 399.062,636.435 399.5,636.5 Z"/></g>
<g><path style="opacity:1" fill="#f7df2c" d="M 308.5,612.5 C 304.461,625.233 303.461,638.233 305.5,651.5C 305.631,652.239 305.464,652.906 305,653.5C 301.886,642.153 301.886,630.82 305,619.5C 305.616,616.182 306.782,613.848 308.5,612.5 Z"/></g>
<g><path style="opacity:1" fill="#f7e22e" d="M 705.5,632.5 C 705.134,636.063 705.634,639.73 707,643.5C 713.459,654.669 716.126,666.669 715,679.5C 714.817,676.635 714.317,673.969 713.5,671.5C 713.695,667.085 713.195,662.751 712,658.5C 709.39,652.947 707.057,647.281 705,641.5C 704.264,638.408 704.431,635.408 705.5,632.5 Z"/></g>
<g><path style="opacity:1" fill="#f2dd2d" d="M 417.5,678.5 C 417.565,678.938 417.399,679.272 417,679.5C 412.7,674.554 408.033,674.221 403,678.5C 401.125,686.619 404.292,690.452 412.5,690C 413.931,689.535 415.097,688.701 416,687.5C 416.698,684.996 417.531,682.663 418.5,680.5C 418.844,689.649 414.51,693.149 405.5,691C 399.324,685.969 398.991,680.636 404.5,675C 409.916,672.343 414.25,673.51 417.5,678.5 Z"/></g>
<g><path style="opacity:1" fill="#faca2a" d="M 481.5,672.5 C 489.962,672.797 493.462,677.13 492,685.5C 489.103,690.155 484.937,691.655 479.5,690C 472.403,683.11 473.069,677.277 481.5,672.5 Z"/></g>
<g><path style="opacity:1" fill="#ecd72e" d="M 306.5,654.5 C 309.43,667.353 314.763,679.02 322.5,689.5C 314.324,681.111 308.824,671.111 306,659.5C 305.22,657.613 305.387,655.946 306.5,654.5 Z"/></g>
<g><path style="opacity:1" fill="#fbc82a" d="M 454.5,686.5 C 449.295,692.621 443.795,692.955 438,687.5C 435.965,683.719 436.132,680.052 438.5,676.5C 449.102,671.14 454.435,674.474 454.5,686.5 Z"/></g>
<g><path style="opacity:1" fill="#fac82b" d="M 551.5,680.5 C 552.803,678.858 554.136,677.191 555.5,675.5C 563.299,672.627 567.966,675.293 569.5,683.5C 568.401,690.433 564.401,693.266 557.5,692C 552.74,689.647 550.74,685.814 551.5,680.5 Z"/></g>
<g><path style="opacity:1" fill="#fdc32a" d="M 417.5,678.5 C 418.338,678.842 418.672,679.508 418.5,680.5C 417.531,682.663 416.698,684.996 416,687.5C 415.097,688.701 413.931,689.535 412.5,690C 404.292,690.452 401.125,686.619 403,678.5C 408.033,674.221 412.7,674.554 417,679.5C 417.399,679.272 417.565,678.938 417.5,678.5 Z"/></g>
<g><path style="opacity:1" fill="#fbc72a" d="M 518.5,673.5 C 527.53,673.358 531.363,677.692 530,686.5C 523.882,693.423 518.215,693.09 513,685.5C 511.873,680.089 513.707,676.089 518.5,673.5 Z"/></g>
<g><path style="opacity:1" fill="#0f0d24" d="M 551.5,680.5 C 550.74,685.814 552.74,689.647 557.5,692C 564.401,693.266 568.401,690.433 569.5,683.5C 567.966,675.293 563.299,672.627 555.5,675.5C 554.262,675.19 554.262,674.69 555.5,674C 563.852,671.312 569.185,674.312 571.5,683C 569.338,692.581 563.671,695.581 554.5,692C 552.951,690.786 551.785,689.286 551,687.5C 550.198,684.362 550.364,682.029 551.5,680.5 Z"/></g>
<g><path style="opacity:1" fill="#fac82b" d="M 436.5,696.5 C 438.919,708.081 434.253,712.748 422.5,710.5C 418.835,706.919 417.668,702.585 419,697.5C 424.468,689.969 430.301,689.636 436.5,696.5 Z"/></g>
<g><path style="opacity:1" fill="#f3e02f" d="M 713.5,681.5 C 712.247,695.378 704.913,705.211 691.5,711C 688.864,711.934 686.197,712.768 683.5,713.5C 682.584,713.457 681.917,713.124 681.5,712.5C 684.936,711.808 688.27,710.808 691.5,709.5C 703.621,703.921 710.955,694.588 713.5,681.5 Z"/></g>
<g><path style="opacity:1" fill="#121122" d="M 438.5,676.5 C 436.132,680.052 435.965,683.719 438,687.5C 443.795,692.955 449.295,692.621 454.5,686.5C 454.36,688.124 455.027,689.29 456.5,690C 455.833,690.333 455.167,690.667 454.5,691C 455.872,691.402 457.205,691.902 458.5,692.5C 460.957,690.775 463.623,690.275 466.5,691C 464.942,691.21 463.609,691.71 462.5,692.5C 457.578,693.428 455.244,696.428 455.5,701.5C 457.157,710.279 462.157,712.779 470.5,709C 476.264,702.229 475.264,696.729 467.5,692.5C 470.058,691.847 472.225,692.847 474,695.5C 477.51,703.301 475.343,708.801 467.5,712C 479.539,712.418 491.539,712.751 503.5,713C 502.5,712.667 501.5,712.333 500.5,712C 502.382,711.802 504.048,711.302 505.5,710.5C 510.422,709.572 512.756,706.572 512.5,701.5C 512.64,697.443 510.974,694.443 507.5,692.5C 507.56,691.957 507.893,691.624 508.5,691.5C 509.814,692.313 510.981,693.313 512,694.5C 516.16,703.352 513.66,709.519 504.5,713C 515.141,712.194 525.808,712.361 536.5,713.5C 538.708,712.728 538.375,711.895 535.5,711C 535.728,710.601 536.062,710.435 536.5,710.5C 538.764,711.219 541.097,711.552 543.5,711.5C 543.082,712.222 542.416,712.722 541.5,713C 552.794,712.757 564.128,712.424 575.5,712C 568.146,707.659 566.646,701.826 571,694.5C 571.399,694.728 571.565,695.062 571.5,695.5C 567.836,702.31 569.503,707.477 576.5,711C 582.351,712.157 586.518,709.991 589,704.5C 588.937,693.601 583.77,689.934 573.5,693.5C 572.262,693.19 572.262,692.69 573.5,692C 579.534,689.385 584.701,690.552 589,695.5C 592.247,702.73 590.414,708.23 583.5,712C 613.833,712.667 644.167,712.667 674.5,712C 679.822,711.42 684.989,710.253 690,708.5C 690.765,708.57 691.265,708.903 691.5,709.5C 688.27,710.808 684.936,711.808 681.5,712.5C 679.901,712.232 678.568,712.566 677.5,713.5C 576.177,714.48 474.844,714.813 373.5,714.5C 372.081,713.549 370.415,713.216 368.5,713.5C 386.662,712.668 404.995,712.168 423.5,712C 422.944,711.617 422.611,711.117 422.5,710.5C 434.253,712.748 438.919,708.081 436.5,696.5C 436.81,695.262 437.31,695.262 438,696.5C 438.422,698.355 438.922,700.189 439.5,702C 438.167,704 438.167,706 439.5,708C 437.074,708.91 434.408,710.244 431.5,712C 441.5,712.667 451.5,712.667 461.5,712C 453.519,707.726 451.852,701.726 456.5,694C 455.5,693.333 454.5,693.333 453.5,694C 453.833,694.333 454.167,694.667 454.5,695C 453.739,699.358 452.572,699.525 451,695.5C 450.016,697.795 449.183,697.461 448.5,694.5C 448.846,693.304 449.346,693.304 450,694.5C 451.271,693.295 451.937,691.962 452,690.5C 446.478,693.602 441.478,692.935 437,688.5C 434.781,683.931 435.114,679.598 438,675.5C 438.399,675.728 438.565,676.062 438.5,676.5 Z"/></g>
<g><path style="opacity:1" fill="#f9c72b" d="M 571.5,695.5 C 572.5,695.167 573.167,694.5 573.5,693.5C 583.77,689.934 588.937,693.601 589,704.5C 586.518,709.991 582.351,712.157 576.5,711C 569.503,707.477 567.836,702.31 571.5,695.5 Z"/></g>
<g><path style="opacity:1" fill="#fcc32b" d="M 549.5,706.5 C 548.833,707.833 547.833,708.833 546.5,709.5C 542.941,709.923 539.274,709.423 535.5,708C 531.405,700.73 533.239,695.896 541,693.5C 543.887,693.903 546.221,695.236 548,697.5C 548.181,700.695 548.681,703.695 549.5,706.5 Z"/></g>
<g><path style="opacity:1" fill="#fbc82b" d="M 507.5,692.5 C 510.974,694.443 512.64,697.443 512.5,701.5C 512.756,706.572 510.422,709.572 505.5,710.5C 500.457,711.569 496.623,709.903 494,705.5C 492.476,694.857 496.976,690.524 507.5,692.5 Z"/></g>
<g><path style="opacity:1" fill="#f9c72b" d="M 462.5,692.5 C 464.167,692.5 465.833,692.5 467.5,692.5C 475.264,696.729 476.264,702.229 470.5,709C 462.157,712.779 457.157,710.279 455.5,701.5C 455.244,696.428 457.578,693.428 462.5,692.5 Z"/></g>
<g><path style="opacity:1" fill="#f2db2c" d="M 549.5,706.5 C 548.681,703.695 548.181,700.695 548,697.5C 546.221,695.236 543.887,693.903 541,693.5C 533.239,695.896 531.405,700.73 535.5,708C 539.274,709.423 542.941,709.923 546.5,709.5C 545.29,709.932 544.29,710.599 543.5,711.5C 541.097,711.552 538.764,711.219 536.5,710.5C 529.511,704.264 529.844,698.431 537.5,693C 547.717,692.048 551.717,696.548 549.5,706.5 Z"/></g>
<g><path style="opacity:1" fill="#fdee2f" d="M 677.5,713.5 C 678.552,713.351 679.552,713.517 680.5,714C 678.5,714.333 676.5,714.667 674.5,715C 577.993,715.182 481.493,715.682 385,716.5C 379.819,716.147 374.653,715.647 369.5,715C 370.793,714.51 372.127,714.343 373.5,714.5C 474.844,714.813 576.177,714.48 677.5,713.5 Z"/></g>
<g><path style="opacity:1" fill="#e44612" d="M 637.5,766.5 C 637.5,852.167 637.5,937.833 637.5,1023.5C 630.167,1023.5 622.833,1023.5 615.5,1023.5C 615.667,948.166 615.5,872.833 615,797.5C 614.5,797 614,796.5 613.5,796C 607.175,795.5 600.842,795.334 594.5,795.5C 594.667,816.836 594.5,838.169 594,859.5C 590.237,862.461 587.904,861.461 587,856.5C 586.5,835.836 586.333,815.169 586.5,794.5C 580.5,794.5 574.5,794.5 568.5,794.5C 568.667,833.835 568.5,873.168 568,912.5C 565.16,915.371 562.826,915.037 561,911.5C 560.5,872.501 560.333,833.501 560.5,794.5C 527.842,793.621 495.176,793.287 462.5,793.5C 462.667,839.835 462.5,886.168 462,932.5C 460.582,934.363 458.749,934.863 456.5,934C 455.809,932.933 455.309,931.766 455,930.5C 454.5,884.835 454.333,839.168 454.5,793.5C 445.5,793.5 436.5,793.5 427.5,793.5C 427.666,802.506 427.5,811.506 427,820.5C 424.283,823.321 421.95,822.987 420,819.5C 419.5,810.506 419.334,801.506 419.5,792.5C 408.833,792.5 398.167,792.5 387.5,792.5C 388.164,869.507 387.497,946.174 385.5,1022.5C 385.5,937.167 385.5,851.833 385.5,766.5C 469.5,765.167 553.5,765.167 637.5,766.5 Z"/></g>
<g><path style="opacity:1" fill="#f8faf6" d="M 637.5,766.5 C 713.833,766.5 790.167,766.5 866.5,766.5C 792.208,767.5 716.541,767.833 639.5,767.5C 639.5,852.833 639.5,938.167 639.5,1023.5C 638.833,1023.5 638.167,1023.5 637.5,1023.5C 637.5,937.833 637.5,852.167 637.5,766.5 Z"/></g>
<g><path style="opacity:1" fill="#f15f27" d="M 615.5,1023.5 C 609.5,1023.5 603.5,1023.5 597.5,1023.5C 597.667,989.832 597.5,956.165 597,922.5C 595.169,915.049 592.835,914.716 590,921.5C 589.5,955.498 589.333,989.498 589.5,1023.5C 574.167,1023.5 558.833,1023.5 543.5,1023.5C 543.667,997.165 543.5,970.831 543,944.5C 540.35,937.928 538.017,937.928 536,944.5C 535.5,970.831 535.333,997.165 535.5,1023.5C 527.167,1023.5 518.833,1023.5 510.5,1023.5C 510.667,959.832 510.5,896.166 510,832.5C 509.653,830.82 508.653,829.82 507,829.5C 504.974,830.52 503.641,832.187 503,834.5C 502.5,897.499 502.333,960.499 502.5,1023.5C 478.833,1023.5 455.167,1023.5 431.5,1023.5C 431.667,976.165 431.5,928.832 431,881.5C 428.533,876.331 426.2,876.331 424,881.5C 422.82,928.826 422.32,976.159 422.5,1023.5C 410.167,1023.5 397.833,1023.5 385.5,1023.5C 385.5,1023.17 385.5,1022.83 385.5,1022.5C 387.497,946.174 388.164,869.507 387.5,792.5C 398.167,792.5 408.833,792.5 419.5,792.5C 419.334,801.506 419.5,810.506 420,819.5C 421.95,822.987 424.283,823.321 427,820.5C 427.5,811.506 427.666,802.506 427.5,793.5C 436.5,793.5 445.5,793.5 454.5,793.5C 454.333,839.168 454.5,884.835 455,930.5C 455.309,931.766 455.809,932.933 456.5,934C 458.749,934.863 460.582,934.363 462,932.5C 462.5,886.168 462.667,839.835 462.5,793.5C 495.176,793.287 527.842,793.621 560.5,794.5C 560.333,833.501 560.5,872.501 561,911.5C 562.826,915.037 565.16,915.371 568,912.5C 568.5,873.168 568.667,833.835 568.5,794.5C 574.5,794.5 580.5,794.5 586.5,794.5C 586.333,815.169 586.5,835.836 587,856.5C 587.904,861.461 590.237,862.461 594,859.5C 594.5,838.169 594.667,816.836 594.5,795.5C 600.842,795.334 607.175,795.5 613.5,796C 614,796.5 614.5,797 615,797.5C 615.5,872.833 615.667,948.166 615.5,1023.5 Z"/></g>
<g><path style="opacity:1" fill="#f7fcfb" d="M 151.5,765.5 C 229.478,766.488 307.478,766.822 385.5,766.5C 385.5,851.833 385.5,937.167 385.5,1022.5C 384.501,937.668 384.167,852.668 384.5,767.5C 307.499,767.667 230.499,767.5 153.5,767C 152.584,766.722 151.918,766.222 151.5,765.5 Z"/></g>
<g><path style="opacity:1" fill="#e34511" d="M 597.5,1023.5 C 594.833,1023.5 592.167,1023.5 589.5,1023.5C 589.333,989.498 589.5,955.498 590,921.5C 592.835,914.716 595.169,915.049 597,922.5C 597.5,956.165 597.667,989.832 597.5,1023.5 Z"/></g>
<g><path style="opacity:1" fill="#e34612" d="M 543.5,1023.5 C 540.833,1023.5 538.167,1023.5 535.5,1023.5C 535.333,997.165 535.5,970.831 536,944.5C 538.017,937.928 540.35,937.928 543,944.5C 543.5,970.831 543.667,997.165 543.5,1023.5 Z"/></g>
<g><path style="opacity:1" fill="#e44713" d="M 510.5,1023.5 C 507.833,1023.5 505.167,1023.5 502.5,1023.5C 502.333,960.499 502.5,897.499 503,834.5C 503.641,832.187 504.974,830.52 507,829.5C 508.653,829.82 509.653,830.82 510,832.5C 510.5,896.166 510.667,959.832 510.5,1023.5 Z"/></g>
<g><path style="opacity:1" fill="#e34612" d="M 431.5,1023.5 C 428.5,1023.5 425.5,1023.5 422.5,1023.5C 422.32,976.159 422.82,928.826 424,881.5C 426.2,876.331 428.533,876.331 431,881.5C 431.5,928.832 431.667,976.165 431.5,1023.5 Z"/></g>
</svg>
