<?xml version="1.0" encoding="UTF-8"?>
<!DOCTYPE svg PUBLIC "-//W3C//DTD SVG 1.1//EN" "http://www.w3.org/Graphics/SVG/1.1/DTD/svg11.dtd">
<svg xmlns="http://www.w3.org/2000/svg" version="1.1" width="1536px" height="1024px" style="shape-rendering:geometricPrecision; text-rendering:geometricPrecision; image-rendering:optimizeQuality; fill-rule:evenodd; clip-rule:evenodd" xmlns:xlink="http://www.w3.org/1999/xlink">
<g><path style="opacity:1" fill="#fef0d5" d="M -0.5,-0.5 C 511.5,-0.5 1023.5,-0.5 1535.5,-0.5C 1535.5,340.833 1535.5,682.167 1535.5,1023.5C 1023.5,1023.5 511.5,1023.5 -0.5,1023.5C -0.5,682.167 -0.5,340.833 -0.5,-0.5 Z"/></g>
<g><path style="opacity:1" fill="#b0b862" d="M 539.5,332.5 C 520.625,363.943 492.625,378.61 455.5,376.5C 453.274,399.551 442.274,417.051 422.5,429C 407.594,436.802 391.927,441.635 375.5,443.5C 375.5,469.833 375.5,496.167 375.5,522.5C 373.833,522.5 372.167,522.5 370.5,522.5C 371.568,521.566 372.901,521.232 374.5,521.5C 374.167,480.161 374.5,438.828 375.5,397.5C 400.99,367.874 426.49,338.207 452,308.5C 456.552,300.766 454.385,297.266 445.5,298C 422,325.5 398.5,353 375,380.5C 374.333,348.167 374.333,315.833 375,283.5C 392.372,264.463 409.372,245.13 426,225.5C 427.666,218.837 425.166,216.004 418.5,217C 404.333,233.167 390.167,249.333 376,265.5C 375.667,235.833 375.333,206.167 375,176.5C 372.336,172.165 369.003,171.499 365,174.5C 363.676,224.75 363.009,275.084 363,325.5C 348.132,289.932 333.965,254.099 320.5,218C 312.517,215.315 309.684,218.148 312,226.5C 320.111,249.388 328.778,272.054 338,294.5C 339.776,299.148 341.11,303.815 342,308.5C 326.721,296.556 310.888,285.389 294.5,275C 286.354,274.298 284.354,277.631 288.5,285C 309.009,299.087 329.342,313.421 349.5,328C 354.363,333.563 358.863,339.396 363,345.5C 363.5,378.165 363.667,410.832 363.5,443.5C 340.149,442.771 318.816,435.938 299.5,423C 287.341,411.51 281.008,397.343 280.5,380.5C 244.976,382.148 215.809,369.481 193,342.5C 187.686,345.006 182.519,347.673 177.5,350.5C 181.918,346.446 186.918,343.113 192.5,340.5C 177.156,314.443 171.99,286.443 177,256.5C 182.203,228.57 195.703,205.737 217.5,188C 231.377,178.43 246.711,172.93 263.5,171.5C 264.967,139.071 276.967,111.238 299.5,88C 328.551,64.9089 361.218,57.9089 397.5,67C 435.616,78.4468 461.449,102.947 475,140.5C 480.8,156.668 483.967,173.335 484.5,190.5C 514.211,196.035 534.378,213.035 545,241.5C 552.848,265.633 553.515,289.967 547,314.5C 544.746,320.666 542.246,326.666 539.5,332.5 Z"/></g>
<g><path style="opacity:1" fill="#b1b862" d="M 1345.5,332.5 C 1332.02,366.817 1308.02,390.65 1273.5,404C 1250.77,413.295 1227.1,418.128 1202.5,418.5C 1208.76,405.484 1215.42,392.651 1222.5,380C 1238.78,377.429 1254.11,372.095 1268.5,364C 1272.03,361.162 1272.37,357.995 1269.5,354.5C 1267.23,353.456 1264.9,353.289 1262.5,354C 1248.08,361.772 1232.75,366.772 1216.5,369C 1214.3,371.234 1212.47,373.734 1211,376.5C 1201,395.167 1191,413.833 1181,432.5C 1180.33,405.167 1180.33,377.833 1181,350.5C 1198.58,323.002 1215.92,295.335 1233,267.5C 1235.96,262.046 1234.46,258.713 1228.5,257.5C 1226.63,257.39 1225.13,258.056 1224,259.5C 1210.42,283.004 1196.08,306.004 1181,328.5C 1180.67,289.167 1180.33,249.833 1180,210.5C 1176.2,205.259 1172.53,205.259 1169,210.5C 1168.67,247.5 1168.33,284.5 1168,321.5C 1155.29,298.755 1143.63,275.422 1133,251.5C 1129.95,247.99 1126.62,247.657 1123,250.5C 1122.33,252.833 1122.33,255.167 1123,257.5C 1137.28,288.062 1152.61,318.062 1169,347.5C 1169.5,410.166 1169.67,472.832 1169.5,535.5C 1168.5,496.337 1168.17,457.004 1168.5,417.5C 1154.46,413.881 1140.46,409.715 1126.5,405C 1112.31,398.406 1098.31,391.573 1084.5,384.5C 1084.66,386.527 1084.5,388.527 1084,390.5C 1083.52,389.552 1083.35,388.552 1083.5,387.5C 1084.5,372.172 1085.5,356.838 1086.5,341.5C 1087.84,327.651 1082.17,318.151 1069.5,313C 1057.51,309.578 1046.51,311.412 1036.5,318.5C 1033.47,321.226 1031.47,324.559 1030.5,328.5C 1029.78,325.358 1030.78,322.525 1033.5,320C 1032.43,319.261 1031.76,318.261 1031.5,317C 1032.32,313.038 1032.82,308.872 1033,304.5C 1032.26,305.641 1031.43,305.641 1030.5,304.5C 1029.89,305.98 1029.55,307.313 1029.5,308.5C 1028.76,307.092 1027.92,305.759 1027,304.5C 1026.33,305.833 1025.67,305.833 1025,304.5C 1023.81,306.443 1022.31,306.276 1020.5,304C 1022.65,303.809 1024.65,302.642 1026.5,300.5C 1023.74,297.684 1024.24,297.018 1028,298.5C 1028.75,296.392 1030.58,294.726 1033.5,293.5C 1034.28,294.729 1034.78,296.062 1035,297.5C 1035.79,295.413 1036.96,293.579 1038.5,292C 1037.95,291.075 1037.29,290.242 1036.5,289.5C 1035.49,289.938 1035.49,290.604 1036.5,291.5C 1034.28,292.78 1032.28,292.447 1030.5,290.5C 1030.17,291.167 1029.83,291.833 1029.5,292.5C 1028.81,291.975 1028.31,291.308 1028,290.5C 1024.61,292.227 1022.27,294.894 1021,298.5C 1017.72,296.881 1014.72,294.881 1012,292.5C 1011.52,293.448 1011.35,294.448 1011.5,295.5C 1009.47,295.662 1007.47,295.495 1005.5,295C 1008.2,294.051 1009.03,292.217 1008,289.5C 1007.31,290.357 1006.48,291.023 1005.5,291.5C 1005.12,289.979 1004.95,288.313 1005,286.5C 1003.33,289.992 1001.5,289.826 999.5,286C 1000.74,285.544 1001.58,286.044 1002,287.5C 1002.36,285.579 1003.19,283.912 1004.5,282.5C 1003.83,282.167 1003.17,281.833 1002.5,281.5C 1002.71,280.914 1003.04,280.414 1003.5,280C 1001.64,278.594 999.803,278.094 998,278.5C 998.419,276.497 999.253,274.497 1000.5,272.5C 1000.33,272.167 1000.17,271.833 1000,271.5C 999.28,273.255 998.113,274.089 996.5,274C 997.816,272.022 997.316,270.522 995,269.5C 992.853,270.113 990.686,270.779 988.5,271.5C 987.289,272.72 987.289,273.887 988.5,275C 987.051,276.117 985.384,276.784 983.5,277C 982.874,277.75 982.374,278.584 982,279.5C 980.732,279.384 979.398,279.051 978,278.5C 977.95,280.744 977.117,282.411 975.5,283.5C 974.844,252.759 984.01,225.426 1003,201.5C 1023.23,179.971 1048.06,170.637 1077.5,173.5C 1093.48,127.676 1125.15,99.8424 1172.5,90C 1216.97,86.8074 1247.81,105.641 1265,146.5C 1271.51,163.909 1274.68,181.909 1274.5,200.5C 1320.4,203.901 1345.9,228.568 1351,274.5C 1352.91,294.217 1351.08,313.551 1345.5,332.5 Z"/></g>
<g><path style="opacity:1" fill="#fe5925" d="M 808.5,292.5 C 808.784,290.585 808.451,288.919 807.5,287.5C 805.172,265.553 803.505,243.553 802.5,221.5C 800.289,194.583 812.623,183.083 839.5,187C 850.561,189.061 857.394,195.561 860,206.5C 860.667,216.833 860.667,227.167 860,237.5C 855.989,274.251 851.323,310.918 846,347.5C 843.398,361.216 835.565,365.716 822.5,361C 818.003,356.838 815.503,351.672 815,345.5C 813.078,327.792 810.911,310.125 808.5,292.5 Z"/></g>
<g><path style="opacity:1" fill="#fe5825" d="M 654.5,290.5 C 652.642,335.75 648.142,380.75 641,425.5C 640.182,430.451 638.682,435.118 636.5,439.5C 623.729,447.965 614.896,444.965 610,430.5C 608.838,424.539 608.005,418.539 607.5,412.5C 602.551,374.792 598.884,336.958 596.5,299C 595.875,274.297 607.875,263.63 632.5,267C 645.862,269.195 653.195,277.028 654.5,290.5 Z"/></g>
<g><path style="opacity:1" fill="#fef0d4" d="M 807.5,287.5 C 808.451,288.919 808.784,290.585 808.5,292.5C 807.686,294.631 807.186,296.964 807,299.5C 807.365,294.494 805.698,292.827 802,294.5C 802.617,292.905 802.284,291.572 801,290.5C 800.167,292.667 798.667,294.167 796.5,295C 797.573,296.25 797.573,297.584 796.5,299C 796.905,299.945 797.572,300.612 798.5,301C 795.736,302.544 795.903,303.711 799,304.5C 801.969,303.397 802.136,302.064 799.5,300.5C 800.052,298.997 800.052,297.331 799.5,295.5C 801.308,295.491 802.975,295.991 804.5,297C 804.167,297.333 803.833,297.667 803.5,298C 805.211,299.133 805.711,300.633 805,302.5C 804.667,301.833 804.333,301.167 804,300.5C 803.027,302.392 802.36,304.392 802,306.5C 800.933,307.191 799.766,307.691 798.5,308C 799.451,308.718 799.617,309.551 799,310.5C 796.64,309.941 794.307,308.608 792,306.5C 790.56,307.93 790.226,309.597 791,311.5C 791.308,310.692 791.808,310.025 792.5,309.5C 795.289,310.648 797.956,311.981 800.5,313.5C 801.333,312.5 802.167,311.5 803,310.5C 803.667,311.833 804.333,311.833 805,310.5C 805.75,311.126 806.584,311.626 807.5,312C 805.866,312.494 804.199,312.66 802.5,312.5C 802.646,314.942 801.813,315.609 800,314.5C 798.422,315.711 798.255,317.045 799.5,318.5C 801.745,318.255 804.078,318.255 806.5,318.5C 807.23,320.341 807.897,322.175 808.5,324C 807.151,324.772 806.318,325.939 806,327.5C 805.107,326.289 804.274,326.289 803.5,327.5C 803.709,328.086 804.043,328.586 804.5,329C 802.112,329.303 799.945,330.137 798,331.5C 797.56,329.924 796.727,328.59 795.5,327.5C 795.865,326.098 796.699,325.098 798,324.5C 801.05,325.391 801.384,324.391 799,321.5C 796.984,321.697 794.984,322.697 793,324.5C 792.667,324.167 792.333,323.833 792,323.5C 789.943,324.958 787.777,325.792 785.5,326C 784.304,326.654 784.304,327.154 785.5,327.5C 786.451,326.674 787.451,326.508 788.5,327C 787.929,328.205 787.262,329.372 786.5,330.5C 785.808,329.975 785.308,329.308 785,328.5C 784.626,329.416 784.126,330.25 783.5,331C 784.893,332.171 785.727,333.671 786,335.5C 786.626,333.009 787.459,333.009 788.5,335.5C 789.086,335.291 789.586,334.957 790,334.5C 791.197,337.089 792.197,339.756 793,342.5C 794.297,341.216 795.464,341.383 796.5,343C 795.167,343.667 793.833,344.333 792.5,345C 793.167,345.333 793.833,345.667 794.5,346C 791.882,347.974 792.048,349.807 795,351.5C 796.751,350.826 798.417,350.493 800,350.5C 800.219,351.938 800.719,353.271 801.5,354.5C 802.72,353.289 803.887,353.289 805,354.5C 805.309,355.766 805.809,356.933 806.5,358C 804.283,359.275 801.949,360.275 799.5,361C 801.322,363.821 803.489,366.321 806,368.5C 806.658,366.892 806.158,365.725 804.5,365C 805,364.833 805.5,364.667 806,364.5C 809.07,365.891 810.403,368.224 810,371.5C 809.309,369.109 808.309,369.109 807,371.5C 806.396,369.314 805.23,369.148 803.5,371C 805.602,372.733 805.935,374.733 804.5,377C 805.742,377.311 806.742,376.811 807.5,375.5C 808.408,376.79 808.241,378.123 807,379.5C 806,379.167 805,378.833 804,378.5C 803.966,380.18 803.799,381.68 803.5,383C 804.5,383.667 805.5,383.667 806.5,383C 805.289,382.107 805.289,381.274 806.5,380.5C 809.744,385.398 808.911,389.398 804,392.5C 803.5,392.167 803,391.833 802.5,391.5C 802.846,390.304 803.346,390.304 804,391.5C 805.134,389.206 805.634,387.039 805.5,385C 804.167,384.333 802.833,384.333 801.5,385C 799.726,389.399 797.393,392.732 794.5,395C 795.025,395.692 795.692,396.192 796.5,396.5C 796.833,395.167 797.167,393.833 797.5,392.5C 798.429,393.689 798.762,395.022 798.5,396.5C 799.822,396.67 800.989,396.337 802,395.5C 803.119,396.552 803.619,397.719 803.5,399C 802.167,399.667 800.833,399.667 799.5,399C 802.121,398.094 801.954,397.594 799,397.5C 798.167,397.833 797.333,398.167 796.5,398.5C 797.711,399.72 797.711,400.887 796.5,402C 797.833,402.333 799.167,402.667 800.5,403C 800,403.5 799.5,404 799,404.5C 797.989,403.663 796.822,403.33 795.5,403.5C 795.33,404.822 795.663,405.989 796.5,407C 795.5,408 794.5,409 793.5,410C 794.641,410.741 794.641,411.575 793.5,412.5C 796.107,413.318 798.774,413.818 801.5,414C 800.833,414.333 800.167,414.667 799.5,415C 800.833,415.333 802.167,415.667 803.5,416C 802.376,416.249 801.376,416.749 800.5,417.5C 800.833,417.833 801.167,418.167 801.5,418.5C 803.611,419.364 805.444,419.364 807,418.5C 808.472,422.981 811.138,426.648 815,429.5C 815.743,431.441 815.576,433.274 814.5,435C 817.088,433.91 819.421,434.41 821.5,436.5C 820.833,436.833 820.167,437.167 819.5,437.5C 822.41,438.973 825.41,439.806 828.5,440C 827.62,438.644 827.286,437.144 827.5,435.5C 829.857,435.663 832.19,435.497 834.5,435C 831.964,434.814 829.631,434.314 827.5,433.5C 830.167,433.5 832.833,433.5 835.5,433.5C 835.917,434.124 836.584,434.457 837.5,434.5C 843.916,432.583 849.082,428.916 853,423.5C 854.255,424.211 855.421,425.044 856.5,426C 855.664,427.243 855.997,428.41 857.5,429.5C 858.795,426.988 859.461,424.321 859.5,421.5C 860.705,430.426 864.038,438.593 869.5,446C 840.541,453.47 820.541,470.97 809.5,498.5C 808.596,499.209 808.263,500.209 808.5,501.5C 806.435,501.517 804.435,501.85 802.5,502.5C 777.878,505.076 753.212,507.243 728.5,509C 719.531,509.682 710.864,511.516 702.5,514.5C 689.717,494.929 672.051,487.262 649.5,491.5C 649.693,487.434 649.36,483.434 648.5,479.5C 648.813,465.086 644.813,451.752 636.5,439.5C 638.682,435.118 640.182,430.451 641,425.5C 648.142,380.75 652.642,335.75 654.5,290.5C 655.326,295.316 655.826,300.316 656,305.5C 656.333,300.5 656.667,295.5 657,290.5C 657.333,293.833 657.667,297.167 658,300.5C 659.41,299.213 660.91,298.046 662.5,297C 661.833,296.667 661.167,296.333 660.5,296C 661.833,295.667 663.167,295.333 664.5,295C 665.833,294.333 665.833,293.667 664.5,293C 667.667,291.071 670.334,291.738 672.5,295C 669.041,294.266 668.707,295.266 671.5,298C 670.424,299.726 670.257,301.559 671,303.5C 671.333,302.833 671.667,302.167 672,301.5C 676.285,303.028 677.618,305.694 676,309.5C 675.667,309.167 675.333,308.833 675,308.5C 674.682,310.061 673.849,311.228 672.5,312C 673.136,313.356 674.303,314.522 676,315.5C 677.762,315.056 677.595,314.556 675.5,314C 676.749,312.176 677.915,312.343 679,314.5C 682.091,312.108 681.591,310.274 677.5,309C 678,308.5 678.5,308 679,307.5C 681.293,308.239 683.793,308.239 686.5,307.5C 684.898,306.285 682.898,304.785 680.5,303C 687.533,303.857 687.866,303.19 681.5,301C 680.398,297.004 677.898,296.171 674,298.5C 673.5,298 673,297.5 672.5,297C 674.164,296.015 675.83,294.849 677.5,293.5C 678.687,294.894 679.354,294.727 679.5,293C 678.902,291.699 677.902,290.865 676.5,290.5C 675.232,291.428 673.899,291.595 672.5,291C 673.337,289.989 673.67,288.822 673.5,287.5C 671.738,287.357 670.071,287.691 668.5,288.5C 665.485,285.852 662.318,284.185 659,283.5C 654.934,279.878 654.768,276.211 658.5,272.5C 657.147,271.476 656.48,270.143 656.5,268.5C 658.512,267.986 660.512,267.82 662.5,268C 660.099,268.805 660.266,269.638 663,270.5C 664.328,268.978 664.162,267.311 662.5,265.5C 663.806,264.088 664.64,262.421 665,260.5C 666.156,261.993 666.99,261.826 667.5,260C 666.99,258.174 666.156,258.007 665,259.5C 664.667,258.833 664.333,258.167 664,257.5C 662.956,258.623 662.29,259.956 662,261.5C 660.259,259.459 660.092,257.292 661.5,255C 660.747,253.513 659.914,253.346 659,254.5C 658.506,252.866 658.34,251.199 658.5,249.5C 660.942,249.119 661.609,249.786 660.5,251.5C 661.522,252.354 662.355,253.354 663,254.5C 664,253.167 665,251.833 666,250.5C 666.617,251.449 666.451,252.282 665.5,253C 666.893,254.171 667.727,255.671 668,257.5C 668.333,256.833 668.667,256.167 669,255.5C 669.36,257.421 670.194,259.088 671.5,260.5C 671.023,261.478 670.357,262.311 669.5,263C 671.409,263.448 672.576,262.615 673,260.5C 673.333,260.833 673.667,261.167 674,261.5C 674.667,260.5 674.667,259.5 674,258.5C 673.346,259.696 672.846,259.696 672.5,258.5C 675.787,257.432 677.454,258.765 677.5,262.5C 674.203,262.329 673.869,262.995 676.5,264.5C 675.224,265.645 673.891,265.645 672.5,264.5C 670.862,265.705 670.529,267.038 671.5,268.5C 672.833,267.833 674.167,267.167 675.5,266.5C 676.251,267.376 676.751,268.376 677,269.5C 677.561,268.978 678.228,268.645 679,268.5C 680.194,270.024 681.694,271.19 683.5,272C 682.346,272.914 682.513,273.747 684,274.5C 684.667,273.167 685.333,273.167 686,274.5C 686.49,273.207 686.657,271.873 686.5,270.5C 688.095,271.362 689.762,271.862 691.5,272C 690.782,269.539 690.115,267.039 689.5,264.5C 690.718,264.891 691.552,264.224 692,262.5C 694.069,263.264 696.236,263.764 698.5,264C 700.224,264.448 700.891,265.282 700.5,266.5C 702.667,265.046 704.667,265.212 706.5,267C 705.167,267 703.833,267 702.5,267C 703.167,267.667 703.833,268.333 704.5,269C 704.943,270.518 704.276,271.685 702.5,272.5C 699.742,267.683 696.076,266.683 691.5,269.5C 692.867,269.504 694.367,270.17 696,271.5C 698.033,270.984 698.033,271.65 696,273.5C 695.333,272.833 694.667,272.167 694,271.5C 693.71,273.044 693.044,274.377 692,275.5C 691.667,274.833 691.333,274.167 691,273.5C 689.354,275.055 689.021,276.721 690,278.5C 687.361,280.473 685.027,282.806 683,285.5C 682.086,284.346 681.253,284.513 680.5,286C 681.174,287.751 681.507,289.417 681.5,291C 682.631,290.892 683.631,290.392 684.5,289.5C 685.647,289.818 686.481,290.484 687,291.5C 687.216,289.616 687.883,287.949 689,286.5C 689.667,287.833 690.333,287.833 691,286.5C 691.333,287.167 691.667,287.833 692,288.5C 694.454,286.987 696.121,287.654 697,290.5C 698.518,286.045 700.351,285.711 702.5,289.5C 703.333,288.5 704.167,287.5 705,286.5C 705.333,287.167 705.667,287.833 706,288.5C 706.333,287.167 706.667,285.833 707,284.5C 707.317,286.301 707.984,286.634 709,285.5C 711.729,288.864 714.729,289.197 718,286.5C 718.414,286.957 718.914,287.291 719.5,287.5C 719.165,286.336 719.165,285.003 719.5,283.5C 718.833,283.167 718.167,282.833 717.5,282.5C 717.991,279.264 719.324,278.764 721.5,281C 720.664,282.243 720.997,283.41 722.5,284.5C 723.506,284.062 723.506,283.396 722.5,282.5C 723.559,281.304 724.893,280.637 726.5,280.5C 728.627,281.648 730.794,282.648 733,283.5C 733.5,282.333 734.333,281.5 735.5,281C 734.359,280.259 734.359,279.425 735.5,278.5C 736.914,277.376 738.414,276.376 740,275.5C 741.333,277.167 742.667,278.833 744,280.5C 744.51,278.455 745.343,276.621 746.5,275C 744.476,273.542 744.309,271.709 746,269.5C 748.081,268.667 750.248,268.667 752.5,269.5C 752.222,267.654 752.889,266.32 754.5,265.5C 754.736,266.247 755.07,267.08 755.5,268C 753.071,268.451 752.904,269.285 755,270.5C 755.414,270.043 755.914,269.709 756.5,269.5C 757.281,270.729 757.781,272.062 758,273.5C 758.667,272.833 759.333,272.167 760,271.5C 761.789,271.377 763.622,271.377 765.5,271.5C 768.1,268.959 768.1,266.459 765.5,264C 767.409,263.552 768.576,264.385 769,266.5C 769.179,268.424 769.346,270.091 769.5,271.5C 770.738,268.832 770.738,266.166 769.5,263.5C 770.955,262.255 772.289,262.422 773.5,264C 772.833,264.333 772.167,264.667 771.5,265C 771.693,266.645 771.86,268.479 772,270.5C 772.333,269.833 772.667,269.167 773,268.5C 774.109,272.017 775.276,272.184 776.5,269C 776.095,268.055 775.428,267.388 774.5,267C 775.167,266.667 775.833,266.333 776.5,266C 775.151,264.365 775.318,262.865 777,261.5C 777.667,262.167 778.333,262.833 779,263.5C 780.252,261.999 781.252,260.332 782,258.5C 782.311,260.556 782.811,262.556 783.5,264.5C 782.833,264.833 782.167,265.167 781.5,265.5C 782.735,267.415 784.068,268.415 785.5,268.5C 782.497,269.608 781.997,271.275 784,273.5C 785.84,272.167 786.34,272.334 785.5,274C 786.328,274.915 787.328,275.581 788.5,276C 786.578,277.46 785.911,279.127 786.5,281C 784.695,281.972 783.028,283.139 781.5,284.5C 782.373,286.413 783.373,288.247 784.5,290C 784.167,290.333 783.833,290.667 783.5,291C 784.483,291.591 785.15,291.257 785.5,290C 784.29,285.597 784.79,285.43 787,289.5C 787.612,286.968 789.112,286.135 791.5,287C 789.627,288.085 787.96,289.418 786.5,291C 787.76,292.113 788.927,292.28 790,291.5C 790.667,294.167 791.333,294.167 792,291.5C 792.667,292.167 793.333,292.833 794,293.5C 796.796,292.099 799.463,290.432 802,288.5C 802.583,290.002 803.416,291.335 804.5,292.5C 805.314,290.234 805.814,287.9 806,285.5C 806.333,287.167 806.667,288.833 807,290.5C 807.483,289.552 807.649,288.552 807.5,287.5 Z"/></g>
<g><path style="opacity:1" fill="#859045" d="M 370.5,522.5 C 368.167,522.5 365.833,522.5 363.5,522.5C 363.5,496.5 363.5,470.5 363.5,444.5C 363.5,444.167 363.5,443.833 363.5,443.5C 363.667,410.832 363.5,378.165 363,345.5C 358.863,339.396 354.363,333.563 349.5,328C 329.342,313.421 309.009,299.087 288.5,285C 284.354,277.631 286.354,274.298 294.5,275C 310.888,285.389 326.721,296.556 342,308.5C 341.11,303.815 339.776,299.148 338,294.5C 328.778,272.054 320.111,249.388 312,226.5C 309.684,218.148 312.517,215.315 320.5,218C 333.965,254.099 348.132,289.932 363,325.5C 363.009,275.084 363.676,224.75 365,174.5C 369.003,171.499 372.336,172.165 375,176.5C 375.333,206.167 375.667,235.833 376,265.5C 390.167,249.333 404.333,233.167 418.5,217C 425.166,216.004 427.666,218.837 426,225.5C 409.372,245.13 392.372,264.463 375,283.5C 374.333,315.833 374.333,348.167 375,380.5C 398.5,353 422,325.5 445.5,298C 454.385,297.266 456.552,300.766 452,308.5C 426.49,338.207 400.99,367.874 375.5,397.5C 374.5,438.828 374.167,480.161 374.5,521.5C 372.901,521.232 371.568,521.566 370.5,522.5 Z"/></g>
<g><path style="opacity:1" fill="#fe5826" d="M 1083.5,387.5 C 1079.85,414.002 1076.35,440.669 1073,467.5C 1072.87,475.938 1069.37,482.438 1062.5,487C 1057.54,488.034 1052.88,487.534 1048.5,485.5C 1044.01,481.25 1041.51,475.916 1041,469.5C 1035.83,429.452 1031.66,389.452 1028.5,349.5C 1028.29,342.789 1028.62,336.123 1029.5,329.5C 1030.17,329.5 1030.5,329.167 1030.5,328.5C 1031.47,324.559 1033.47,321.226 1036.5,318.5C 1046.51,311.412 1057.51,309.578 1069.5,313C 1082.17,318.151 1087.84,327.651 1086.5,341.5C 1085.5,356.838 1084.5,372.172 1083.5,387.5 Z"/></g>
<g><path style="opacity:1" fill="#c3c477" d="M 539.5,332.5 C 552.277,338.111 562.444,346.778 570,358.5C 578.865,373.293 582.698,389.293 581.5,406.5C 591.029,405.121 599.695,407.121 607.5,412.5C 608.005,418.539 608.838,424.539 610,430.5C 614.896,444.965 623.729,447.965 636.5,439.5C 644.813,451.752 648.813,465.086 648.5,479.5C 640.6,463.253 628.267,458.753 611.5,466C 597.665,477.847 595.831,491.347 606,506.5C 619.696,517.707 632.696,517.04 645,504.5C 647.237,500.285 648.737,495.952 649.5,491.5C 672.051,487.262 689.717,494.929 702.5,514.5C 697.867,519.494 693.201,524.494 688.5,529.5C 688.414,528.504 688.748,527.671 689.5,527C 686.5,526.833 683.5,526.667 680.5,526.5C 667.358,527.653 654.358,528.653 641.5,529.5C 624.505,528.967 607.505,528.634 590.5,528.5C 597.604,514.776 593.938,505.443 579.5,500.5C 579.036,492.705 577.869,485.038 576,477.5C 567.747,462.476 555.581,458.31 539.5,465C 536.577,467.045 533.743,469.212 531,471.5C 528.767,451.518 518.267,438.018 499.5,431C 478.975,428.204 465.808,436.704 460,456.5C 459.522,464.197 459.522,471.864 460,479.5C 452.038,473.892 443.205,472.058 433.5,474C 416.613,478.561 410.113,489.395 414,506.5C 414.958,511.545 416.791,516.212 419.5,520.5C 436.328,521.167 452.995,521.833 469.5,522.5C 438.495,522.546 407.495,522.213 376.5,521.5C 376.831,495.328 376.498,469.328 375.5,443.5C 391.927,441.635 407.594,436.802 422.5,429C 442.274,417.051 453.274,399.551 455.5,376.5C 492.625,378.61 520.625,363.943 539.5,332.5 Z"/></g>
<g><path style="opacity:1" fill="#c4c478" d="M 1345.5,332.5 C 1377.74,356.329 1390.57,388.329 1384,428.5C 1383.26,435.586 1382.1,442.586 1380.5,449.5C 1403.51,454.684 1416.68,469.017 1420,492.5C 1423.68,519.457 1416.51,542.957 1398.5,563C 1402.67,565.588 1407.01,567.921 1411.5,570C 1412.38,570.708 1413.05,571.542 1413.5,572.5C 1408.34,569.755 1403.01,567.255 1397.5,565C 1396.33,563.167 1395.17,561.333 1394,559.5C 1393.67,560.5 1393.33,561.5 1393,562.5C 1385.69,560.036 1378.19,558.203 1370.5,557C 1370.17,556.667 1369.83,556.333 1369.5,556C 1371.06,555.241 1372.06,554.074 1372.5,552.5C 1377.77,546.714 1381.6,540.047 1384,532.5C 1387.31,522.52 1384.14,516.02 1374.5,513C 1368.68,512.917 1363.01,513.584 1357.5,515C 1361.16,507.682 1363.83,500.015 1365.5,492C 1364.82,481.656 1359.48,477.989 1349.5,481C 1339.53,486.25 1330.69,493.084 1323,501.5C 1324.12,491.405 1324.95,481.238 1325.5,471C 1326.75,456.849 1322.42,444.849 1312.5,435C 1303.45,430.404 1295.95,432.237 1290,440.5C 1284.63,448.986 1281.63,458.319 1281,468.5C 1280.78,478.508 1280.78,488.508 1281,498.5C 1273.98,488.807 1265.15,481.307 1254.5,476C 1240.08,470.418 1230.24,474.918 1225,489.5C 1224.33,492.5 1224.33,495.5 1225,498.5C 1226.05,501.654 1227.05,504.654 1228,507.5C 1219.74,501.142 1210.57,499.309 1200.5,502C 1194.54,504.242 1191.54,508.576 1191.5,515C 1191.94,518.593 1192.77,522.093 1194,525.5C 1197.24,531.568 1201.4,536.902 1206.5,541.5C 1198.21,539.908 1189.87,538.575 1181.5,537.5C 1181.83,510.328 1181.5,483.328 1180.5,456.5C 1187.34,443.471 1194.68,430.804 1202.5,418.5C 1227.1,418.128 1250.77,413.295 1273.5,404C 1308.02,390.65 1332.02,366.817 1345.5,332.5 Z"/></g>
<g><path style="opacity:1" fill="#a3d276" d="M 1029.5,329.5 C 1028.62,336.123 1028.29,342.789 1028.5,349.5C 1026.88,353.116 1026.71,347.116 1028,331.5C 1028.28,330.584 1028.78,329.918 1029.5,329.5 Z"/></g>
<g><path style="opacity:1" fill="#c4c478" d="M 363.5,443.5 C 363.5,443.833 363.5,444.167 363.5,444.5C 362.668,471.997 362.168,499.664 362,527.5C 360.408,531.021 358.575,534.354 356.5,537.5C 353.24,541.213 349.24,542.547 344.5,541.5C 331.826,542.751 319.326,543.418 307,543.5C 304.393,542.877 301.893,542.21 299.5,541.5C 308.471,534.695 316.304,526.695 323,517.5C 333.934,492.425 325.768,481.591 298.5,485C 285.716,490.439 274.549,498.272 265,508.5C 269.583,497.308 274.25,485.974 279,474.5C 280.384,468.891 280.717,463.225 280,457.5C 275.509,449.004 268.676,446.171 259.5,449C 249.806,456.537 242.639,466.037 238,477.5C 238.526,458.864 238.192,440.197 237,421.5C 234.804,418.875 231.97,417.875 228.5,418.5C 228.667,445.169 228.5,471.835 228,498.5C 224.372,486.407 218.539,475.574 210.5,466C 196.634,459.507 191.134,464.007 194,479.5C 196.779,487.841 199.946,496.007 203.5,504C 199.677,502.088 195.677,500.088 191.5,498C 172.191,494.014 166.024,501.514 173,520.5C 177.647,528.644 183.814,535.311 191.5,540.5C 191.189,541.478 190.522,542.145 189.5,542.5C 184.922,542.478 180.422,542.144 176,541.5C 172.534,542.202 169.034,542.869 165.5,543.5C 164.833,543.167 164.167,542.833 163.5,542.5C 155.508,543.197 147.508,544.03 139.5,545C 140.696,545.654 140.696,546.154 139.5,546.5C 135.301,546.446 131.134,546.446 127,546.5C 126.925,548.935 126.092,549.602 124.5,548.5C 110.078,527.891 105.578,505.225 111,480.5C 117.049,461.12 129.382,447.453 148,439.5C 147.408,425.874 147.408,412.207 148,398.5C 151.601,378.454 161.435,362.454 177.5,350.5C 182.519,347.673 187.686,345.006 193,342.5C 215.809,369.481 244.976,382.148 280.5,380.5C 281.008,397.343 287.341,411.51 299.5,423C 318.816,435.938 340.149,442.771 363.5,443.5 Z"/></g>
<g><path style="opacity:1" fill="#869045" d="M 1202.5,418.5 C 1194.68,430.804 1187.34,443.471 1180.5,456.5C 1180.5,483.5 1180.5,510.5 1180.5,537.5C 1176.8,536.992 1173.14,536.326 1169.5,535.5C 1169.67,472.832 1169.5,410.166 1169,347.5C 1152.61,318.062 1137.28,288.062 1123,257.5C 1122.33,255.167 1122.33,252.833 1123,250.5C 1126.62,247.657 1129.95,247.99 1133,251.5C 1143.63,275.422 1155.29,298.755 1168,321.5C 1168.33,284.5 1168.67,247.5 1169,210.5C 1172.53,205.259 1176.2,205.259 1180,210.5C 1180.33,249.833 1180.67,289.167 1181,328.5C 1196.08,306.004 1210.42,283.004 1224,259.5C 1225.13,258.056 1226.63,257.39 1228.5,257.5C 1234.46,258.713 1235.96,262.046 1233,267.5C 1215.92,295.335 1198.58,323.002 1181,350.5C 1180.33,377.833 1180.33,405.167 1181,432.5C 1191,413.833 1201,395.167 1211,376.5C 1212.47,373.734 1214.3,371.234 1216.5,369C 1232.75,366.772 1248.08,361.772 1262.5,354C 1264.9,353.289 1267.23,353.456 1269.5,354.5C 1272.37,357.995 1272.03,361.162 1268.5,364C 1254.11,372.095 1238.78,377.429 1222.5,380C 1215.42,392.651 1208.76,405.484 1202.5,418.5 Z"/></g>
<g><path style="opacity:1" fill="#b9bd6d" d="M 905.5,362.5 C 908.194,363.583 911.028,364.583 914,365.5C 915.411,364.916 916.578,364.416 917.5,364C 919.35,365.845 919.683,367.845 918.5,370C 920.108,370.658 921.275,370.158 922,368.5C 923.722,368.962 925.555,369.128 927.5,369C 925.725,370.439 923.725,371.439 921.5,372C 923.329,372.273 924.829,373.107 926,374.5C 926.333,374.167 926.667,373.833 927,373.5C 926.745,374.915 926.245,376.415 925.5,378C 925.585,379.107 925.919,380.107 926.5,381C 928.134,381.494 929.801,381.66 931.5,381.5C 931.33,382.822 931.663,383.989 932.5,385C 931.747,386.487 930.914,386.654 930,385.5C 929.683,387.301 929.016,387.634 928,386.5C 926.242,387.469 925.742,388.636 926.5,390C 924.149,391.461 921.982,390.961 920,388.5C 919.667,388.833 919.333,389.167 919,389.5C 918.774,392.095 918.274,394.595 917.5,397C 920.835,395.818 923.168,396.984 924.5,400.5C 924.333,401.167 924.167,401.833 924,402.5C 922.97,400.224 921.47,399.557 919.5,400.5C 921.842,402.179 924.176,403.846 926.5,405.5C 924.741,406.754 923.241,406.421 922,404.5C 923.101,406.792 922.268,408.292 919.5,409C 921.376,410.017 923.376,410.851 925.5,411.5C 923.816,412.854 923.316,414.521 924,416.5C 924.414,416.043 924.914,415.709 925.5,415.5C 927.302,416.986 929.302,417.986 931.5,418.5C 931.5,419.5 931.5,420.5 931.5,421.5C 935.056,421.275 935.39,422.108 932.5,424C 932.944,425.762 933.444,425.595 934,423.5C 934.637,425.303 935.803,426.636 937.5,427.5C 936.494,428.396 936.494,429.062 937.5,429.5C 938.541,427.009 939.374,427.009 940,429.5C 942.152,427.723 941.985,426.223 939.5,425C 940.448,424.517 941.448,424.351 942.5,424.5C 947.407,432.642 952.574,440.642 958,448.5C 958.5,461.829 958.667,475.163 958.5,488.5C 947.146,488.256 935.812,488.59 924.5,489.5C 919.634,487.272 914.467,485.938 909,485.5C 906.37,485.464 903.87,485.964 901.5,487C 901.728,487.399 902.062,487.565 902.5,487.5C 899.523,489.467 896.523,491.467 893.5,493.5C 868.227,495.898 842.894,497.898 817.5,499.5C 815.241,499.468 813.075,499.134 811,498.5C 810.221,501.097 809.721,501.097 809.5,498.5C 820.541,470.97 840.541,453.47 869.5,446C 864.038,438.593 860.705,430.426 859.5,421.5C 857.839,388.458 873.172,368.791 905.5,362.5 Z"/></g>
<g><path style="opacity:1" fill="#fe5825" d="M 835.5,433.5 C 832.833,433.5 830.167,433.5 827.5,433.5C 813.722,430.137 806.722,421.304 806.5,407C 807.462,392.042 815.295,383.542 830,381.5C 849.321,383.442 857.654,394.109 855,413.5C 852.36,423.973 845.86,430.639 835.5,433.5 Z"/></g>
<g><path style="opacity:1" fill="#c4c477" d="M 1168.5,417.5 C 1167.67,456.665 1167.17,495.998 1167,535.5C 1157.25,532.85 1147.42,530.517 1137.5,528.5C 1135.4,528.479 1133.23,528.813 1131,529.5C 1131.08,528.262 1130.91,527.262 1130.5,526.5C 1129.17,526.833 1127.83,527.167 1126.5,527.5C 1124.7,526.735 1122.87,526.068 1121,525.5C 1118.1,525.978 1115.1,525.978 1112,525.5C 1110.33,526.167 1108.67,526.833 1107,527.5C 1101.67,526.833 1096.33,526.167 1091,525.5C 1089,526.167 1087,526.833 1085,527.5C 1084.29,525.014 1083.46,525.014 1082.5,527.5C 1079.66,517.991 1073.66,511.324 1064.5,507.5C 1063.14,505.935 1060.81,505.268 1057.5,505.5C 1053.56,505.481 1049.89,506.481 1046.5,508.5C 1045.69,508.192 1045.03,507.692 1044.5,507C 1045.83,506.667 1047.17,506.333 1048.5,506C 1046.79,504.49 1045.13,502.99 1043.5,501.5C 1045.11,499.505 1046.44,497.339 1047.5,495C 1046.95,492.186 1047.29,489.353 1048.5,486.5C 1048.5,486.167 1048.5,485.833 1048.5,485.5C 1052.88,487.534 1057.54,488.034 1062.5,487C 1069.37,482.438 1072.87,475.938 1073,467.5C 1076.35,440.669 1079.85,414.002 1083.5,387.5C 1083.35,388.552 1083.52,389.552 1084,390.5C 1084.5,388.527 1084.66,386.527 1084.5,384.5C 1098.31,391.573 1112.31,398.406 1126.5,405C 1140.46,409.715 1154.46,413.881 1168.5,417.5 Z"/></g>
<g><path style="opacity:1" fill="#a3ad5a" d="M 965.5,490.5 C 962.933,490.279 960.599,489.612 958.5,488.5C 958.667,475.163 958.5,461.829 958,448.5C 952.574,440.642 947.407,432.642 942.5,424.5C 937.973,417.445 933.973,410.112 930.5,402.5C 934.082,398.572 937.582,398.906 941,403.5C 946.164,413.166 951.831,422.5 958,431.5C 958.333,409.167 958.667,386.833 959,364.5C 961.667,361.833 964.333,361.833 967,364.5C 967.333,385.833 967.667,407.167 968,428.5C 973.252,420.332 978.252,411.999 983,403.5C 985.516,399.64 988.849,398.64 993,400.5C 992.866,404.797 991.533,408.797 989,412.5C 981.968,424.187 974.968,435.854 968,447.5C 968.153,462.202 967.32,476.535 965.5,490.5 Z"/></g>
<g><path style="opacity:1" fill="#a4b15e" d="M 1372.5,552.5 C 1370.26,553.389 1368.26,554.722 1366.5,556.5C 1355.26,554.64 1343.93,553.473 1332.5,553C 1307.51,552 1282.51,551.334 1257.5,551C 1240.07,549.763 1223.07,546.596 1206.5,541.5C 1201.4,536.902 1197.24,531.568 1194,525.5C 1192.77,522.093 1191.94,518.593 1191.5,515C 1191.54,508.576 1194.54,504.242 1200.5,502C 1210.57,499.309 1219.74,501.142 1228,507.5C 1227.05,504.654 1226.05,501.654 1225,498.5C 1224.33,495.5 1224.33,492.5 1225,489.5C 1230.24,474.918 1240.08,470.418 1254.5,476C 1265.15,481.307 1273.98,488.807 1281,498.5C 1280.78,488.508 1280.78,478.508 1281,468.5C 1281.63,458.319 1284.63,448.986 1290,440.5C 1295.95,432.237 1303.45,430.404 1312.5,435C 1322.42,444.849 1326.75,456.849 1325.5,471C 1324.95,481.238 1324.12,491.405 1323,501.5C 1330.69,493.084 1339.53,486.25 1349.5,481C 1359.48,477.989 1364.82,481.656 1365.5,492C 1363.83,500.015 1361.16,507.682 1357.5,515C 1363.01,513.584 1368.68,512.917 1374.5,513C 1384.14,516.02 1387.31,522.52 1384,532.5C 1381.6,540.047 1377.77,546.714 1372.5,552.5 Z"/></g>
<g><path style="opacity:1" fill="#b5ba69" d="M 1030.5,328.5 C 1030.5,329.167 1030.17,329.5 1029.5,329.5C 1028.78,329.918 1028.28,330.584 1028,331.5C 1026.71,347.116 1026.88,353.116 1028.5,349.5C 1031.66,389.452 1035.83,429.452 1041,469.5C 1041.51,475.916 1044.01,481.25 1048.5,485.5C 1048.5,485.833 1048.5,486.167 1048.5,486.5C 1047.5,486.586 1046.67,486.252 1046,485.5C 1044.68,488.492 1042.68,490.825 1040,492.5C 1035.51,489.348 1031.01,486.181 1026.5,483C 1019.48,480.502 1012.82,481.168 1006.5,485C 1001.28,489.892 995.779,494.392 990,498.5C 981.868,495.33 973.701,492.663 965.5,490.5C 967.32,476.535 968.153,462.202 968,447.5C 974.968,435.854 981.968,424.187 989,412.5C 991.533,408.797 992.866,404.797 993,400.5C 988.849,398.64 985.516,399.64 983,403.5C 978.252,411.999 973.252,420.332 968,428.5C 967.667,407.167 967.333,385.833 967,364.5C 964.333,361.833 961.667,361.833 959,364.5C 958.667,386.833 958.333,409.167 958,431.5C 951.831,422.5 946.164,413.166 941,403.5C 937.582,398.906 934.082,398.572 930.5,402.5C 933.973,410.112 937.973,417.445 942.5,424.5C 941.448,424.351 940.448,424.517 939.5,425C 941.985,426.223 942.152,427.723 940,429.5C 939.374,427.009 938.541,427.009 937.5,429.5C 936.494,429.062 936.494,428.396 937.5,427.5C 935.803,426.636 934.637,425.303 934,423.5C 933.444,425.595 932.944,425.762 932.5,424C 935.39,422.108 935.056,421.275 931.5,421.5C 931.5,420.5 931.5,419.5 931.5,418.5C 929.302,417.986 927.302,416.986 925.5,415.5C 924.914,415.709 924.414,416.043 924,416.5C 923.316,414.521 923.816,412.854 925.5,411.5C 923.376,410.851 921.376,410.017 919.5,409C 922.268,408.292 923.101,406.792 922,404.5C 923.241,406.421 924.741,406.754 926.5,405.5C 924.176,403.846 921.842,402.179 919.5,400.5C 921.47,399.557 922.97,400.224 924,402.5C 924.167,401.833 924.333,401.167 924.5,400.5C 923.168,396.984 920.835,395.818 917.5,397C 918.274,394.595 918.774,392.095 919,389.5C 919.333,389.167 919.667,388.833 920,388.5C 921.982,390.961 924.149,391.461 926.5,390C 925.742,388.636 926.242,387.469 928,386.5C 929.016,387.634 929.683,387.301 930,385.5C 930.914,386.654 931.747,386.487 932.5,385C 931.663,383.989 931.33,382.822 931.5,381.5C 929.801,381.66 928.134,381.494 926.5,381C 925.919,380.107 925.585,379.107 925.5,378C 926.245,376.415 926.745,374.915 927,373.5C 926.667,373.833 926.333,374.167 926,374.5C 924.829,373.107 923.329,372.273 921.5,372C 923.725,371.439 925.725,370.439 927.5,369C 925.555,369.128 923.722,368.962 922,368.5C 921.275,370.158 920.108,370.658 918.5,370C 919.683,367.845 919.35,365.845 917.5,364C 916.578,364.416 915.411,364.916 914,365.5C 911.028,364.583 908.194,363.583 905.5,362.5C 906.833,362.5 908.167,362.5 909.5,362.5C 909.662,337.15 918.662,315.65 936.5,298C 948.024,289.324 961.024,284.49 975.5,283.5C 977.117,282.411 977.95,280.744 978,278.5C 979.398,279.051 980.732,279.384 982,279.5C 982.374,278.584 982.874,277.75 983.5,277C 985.384,276.784 987.051,276.117 988.5,275C 987.289,273.887 987.289,272.72 988.5,271.5C 990.686,270.779 992.853,270.113 995,269.5C 997.316,270.522 997.816,272.022 996.5,274C 998.113,274.089 999.28,273.255 1000,271.5C 1000.17,271.833 1000.33,272.167 1000.5,272.5C 999.253,274.497 998.419,276.497 998,278.5C 999.803,278.094 1001.64,278.594 1003.5,280C 1003.04,280.414 1002.71,280.914 1002.5,281.5C 1003.17,281.833 1003.83,282.167 1004.5,282.5C 1003.19,283.912 1002.36,285.579 1002,287.5C 1001.58,286.044 1000.74,285.544 999.5,286C 1001.5,289.826 1003.33,289.992 1005,286.5C 1004.95,288.313 1005.12,289.979 1005.5,291.5C 1006.48,291.023 1007.31,290.357 1008,289.5C 1009.03,292.217 1008.2,294.051 1005.5,295C 1007.47,295.495 1009.47,295.662 1011.5,295.5C 1011.35,294.448 1011.52,293.448 1012,292.5C 1014.72,294.881 1017.72,296.881 1021,298.5C 1022.27,294.894 1024.61,292.227 1028,290.5C 1028.31,291.308 1028.81,291.975 1029.5,292.5C 1029.83,291.833 1030.17,291.167 1030.5,290.5C 1032.28,292.447 1034.28,292.78 1036.5,291.5C 1035.49,290.604 1035.49,289.938 1036.5,289.5C 1037.29,290.242 1037.95,291.075 1038.5,292C 1036.96,293.579 1035.79,295.413 1035,297.5C 1034.78,296.062 1034.28,294.729 1033.5,293.5C 1030.58,294.726 1028.75,296.392 1028,298.5C 1024.24,297.018 1023.74,297.684 1026.5,300.5C 1024.65,302.642 1022.65,303.809 1020.5,304C 1022.31,306.276 1023.81,306.443 1025,304.5C 1025.67,305.833 1026.33,305.833 1027,304.5C 1027.92,305.759 1028.76,307.092 1029.5,308.5C 1029.55,307.313 1029.89,305.98 1030.5,304.5C 1031.43,305.641 1032.26,305.641 1033,304.5C 1032.82,308.872 1032.32,313.038 1031.5,317C 1031.76,318.261 1032.43,319.261 1033.5,320C 1030.78,322.525 1029.78,325.358 1030.5,328.5 Z"/></g>
<g><path style="opacity:1" fill="#a6b360" d="M 299.5,541.5 C 297.051,542.042 294.551,542.375 292,542.5C 258.438,541.865 224.938,541.198 191.5,540.5C 183.814,535.311 177.647,528.644 173,520.5C 166.024,501.514 172.191,494.014 191.5,498C 195.677,500.088 199.677,502.088 203.5,504C 199.946,496.007 196.779,487.841 194,479.5C 191.134,464.007 196.634,459.507 210.5,466C 218.539,475.574 224.372,486.407 228,498.5C 228.5,471.835 228.667,445.169 228.5,418.5C 231.97,417.875 234.804,418.875 237,421.5C 238.192,440.197 238.526,458.864 238,477.5C 242.639,466.037 249.806,456.537 259.5,449C 268.676,446.171 275.509,449.004 280,457.5C 280.717,463.225 280.384,468.891 279,474.5C 274.25,485.974 269.583,497.308 265,508.5C 274.549,498.272 285.716,490.439 298.5,485C 325.768,481.591 333.934,492.425 323,517.5C 316.304,526.695 308.471,534.695 299.5,541.5 Z"/></g>
<g><path style="opacity:1" fill="#929c4f" d="M 590.5,528.5 C 550.194,526.092 509.861,524.092 469.5,522.5C 452.995,521.833 436.328,521.167 419.5,520.5C 416.791,516.212 414.958,511.545 414,506.5C 410.113,489.395 416.613,478.561 433.5,474C 443.205,472.058 452.038,473.892 460,479.5C 459.522,471.864 459.522,464.197 460,456.5C 465.808,436.704 478.975,428.204 499.5,431C 518.267,438.018 528.767,451.518 531,471.5C 533.743,469.212 536.577,467.045 539.5,465C 555.581,458.31 567.747,462.476 576,477.5C 577.869,485.038 579.036,492.705 579.5,500.5C 593.938,505.443 597.604,514.776 590.5,528.5 Z"/></g>
<g><path style="opacity:1" fill="#fe5825" d="M 648.5,479.5 C 649.36,483.434 649.693,487.434 649.5,491.5C 648.737,495.952 647.237,500.285 645,504.5C 632.696,517.04 619.696,517.707 606,506.5C 595.831,491.347 597.665,477.847 611.5,466C 628.267,458.753 640.6,463.253 648.5,479.5 Z"/></g>
<g><path style="opacity:1" fill="#cbc97d" d="M 1168.5,417.5 C 1168.17,457.004 1168.5,496.337 1169.5,535.5C 1173.14,536.326 1176.8,536.992 1180.5,537.5C 1180.5,510.5 1180.5,483.5 1180.5,456.5C 1181.5,483.328 1181.83,510.328 1181.5,537.5C 1189.87,538.575 1198.21,539.908 1206.5,541.5C 1223.07,546.596 1240.07,549.763 1257.5,551C 1282.51,551.334 1307.51,552 1332.5,553C 1343.93,553.473 1355.26,554.64 1366.5,556.5C 1368.26,554.722 1370.26,553.389 1372.5,552.5C 1372.06,554.074 1371.06,555.241 1369.5,556C 1369.83,556.333 1370.17,556.667 1370.5,557C 1378.19,558.203 1385.69,560.036 1393,562.5C 1393.33,561.5 1393.67,560.5 1394,559.5C 1395.17,561.333 1396.33,563.167 1397.5,565C 1403.01,567.255 1408.34,569.755 1413.5,572.5C 1424.88,579.669 1427.71,589.336 1422,601.5C 1415.09,607.712 1407.25,612.545 1398.5,616C 1387.36,620.268 1376.03,623.934 1364.5,627C 1337.76,632.281 1311.1,637.947 1284.5,644C 1274.98,646.177 1266.48,650.344 1259,656.5C 1257.75,659.077 1257.42,661.743 1258,664.5C 1261.06,667.614 1264.56,670.114 1268.5,672C 1286.3,678.284 1304.3,683.951 1322.5,689C 1335.01,692.833 1345.84,699.333 1355,708.5C 1365.02,719.437 1366.02,731.104 1358,743.5C 1346.26,755.58 1333.09,765.747 1318.5,774C 1305.17,780.667 1291.83,787.333 1278.5,794C 1273.04,797.787 1267.88,801.954 1263,806.5C 1259.67,811.5 1259.67,816.5 1263,821.5C 1269.5,826 1276,830.5 1282.5,835C 1296.8,845.562 1297.14,856.562 1283.5,868C 1256.39,882.482 1227.72,892.816 1197.5,899C 1144.77,911.847 1091.44,921.014 1037.5,926.5C 1018.27,916.106 999.932,904.273 982.5,891C 974.822,884.663 968.655,877.163 964,868.5C 959.877,858.278 960.877,848.611 967,839.5C 975.637,827.194 986.47,817.361 999.5,810C 1029.08,796.545 1057.75,781.545 1085.5,765C 1097.24,757.923 1107.08,748.757 1115,737.5C 1124.5,715.995 1120.33,697.495 1102.5,682C 1084.79,669.646 1065.46,660.813 1044.5,655.5C 1044.66,658.518 1044.5,661.518 1044,664.5C 1043.51,663.207 1043.34,661.873 1043.5,660.5C 1045.49,628.142 1037.66,598.475 1020,571.5C 1011.93,560.424 1001.76,551.924 989.5,546C 983.006,543.862 976.34,542.695 969.5,542.5C 946.822,544.526 924.322,547.526 902,551.5C 901.333,550.833 901.333,550.167 902,549.5C 910.333,539.167 918.667,528.833 927,518.5C 933.784,507.8 931.951,498.634 921.5,491C 915.754,486.676 909.421,485.509 902.5,487.5C 902.062,487.565 901.728,487.399 901.5,487C 903.87,485.964 906.37,485.464 909,485.5C 914.467,485.938 919.634,487.272 924.5,489.5C 935.812,488.59 947.146,488.256 958.5,488.5C 960.599,489.612 962.933,490.279 965.5,490.5C 973.701,492.663 981.868,495.33 990,498.5C 995.779,494.392 1001.28,489.892 1006.5,485C 1012.82,481.168 1019.48,480.502 1026.5,483C 1031.01,486.181 1035.51,489.348 1040,492.5C 1042.68,490.825 1044.68,488.492 1046,485.5C 1046.67,486.252 1047.5,486.586 1048.5,486.5C 1047.29,489.353 1046.95,492.186 1047.5,495C 1046.44,497.339 1045.11,499.505 1043.5,501.5C 1045.13,502.99 1046.79,504.49 1048.5,506C 1047.17,506.333 1045.83,506.667 1044.5,507C 1045.03,507.692 1045.69,508.192 1046.5,508.5C 1049.89,506.481 1053.56,505.481 1057.5,505.5C 1060.81,505.268 1063.14,505.935 1064.5,507.5C 1048.01,505.49 1037.51,512.49 1033,528.5C 1031.2,545.908 1038.87,556.241 1056,559.5C 1075.41,557.724 1084.24,547.058 1082.5,527.5C 1083.46,525.014 1084.29,525.014 1085,527.5C 1087,526.833 1089,526.167 1091,525.5C 1096.33,526.167 1101.67,526.833 1107,527.5C 1108.67,526.833 1110.33,526.167 1112,525.5C 1115.1,525.978 1118.1,525.978 1121,525.5C 1122.87,526.068 1124.7,526.735 1126.5,527.5C 1127.83,527.167 1129.17,526.833 1130.5,526.5C 1130.91,527.262 1131.08,528.262 1131,529.5C 1133.23,528.813 1135.4,528.479 1137.5,528.5C 1147.42,530.517 1157.25,532.85 1167,535.5C 1167.17,495.998 1167.67,456.665 1168.5,417.5 Z"/></g>
<g><path style="opacity:1" fill="#fed098" d="M 802.5,502.5 C 793.275,505.278 784.608,509.444 776.5,515C 769.049,520.764 768.716,526.764 775.5,533C 790.746,539.459 806.079,545.626 821.5,551.5C 816.733,556.715 810.733,559.548 803.5,560C 772.545,563.053 741.545,565.553 710.5,567.5C 705.232,563.524 699.566,560.024 693.5,557C 683.62,549.346 681.954,540.18 688.5,529.5C 693.201,524.494 697.867,519.494 702.5,514.5C 710.864,511.516 719.531,509.682 728.5,509C 753.212,507.243 777.878,505.076 802.5,502.5 Z"/></g>
<g><path style="opacity:1" fill="#fe5826" d="M 1064.5,507.5 C 1073.66,511.324 1079.66,517.991 1082.5,527.5C 1084.24,547.058 1075.41,557.724 1056,559.5C 1038.87,556.241 1031.2,545.908 1033,528.5C 1037.51,512.49 1048.01,505.49 1064.5,507.5 Z"/></g>
<g><path style="opacity:1" fill="#cecd81" d="M 893.5,493.5 C 869.814,513.182 845.814,532.516 821.5,551.5C 806.079,545.626 790.746,539.459 775.5,533C 768.716,526.764 769.049,520.764 776.5,515C 784.608,509.444 793.275,505.278 802.5,502.5C 804.435,501.85 806.435,501.517 808.5,501.5C 808.263,500.209 808.596,499.209 809.5,498.5C 809.721,501.097 810.221,501.097 811,498.5C 813.075,499.134 815.241,499.468 817.5,499.5C 842.894,497.898 868.227,495.898 893.5,493.5 Z"/></g>
<g><path style="opacity:1" fill="#cbca7d" d="M 688.5,529.5 C 681.954,540.18 683.62,549.346 693.5,557C 699.566,560.024 705.232,563.524 710.5,567.5C 674.842,568.574 639.175,568.741 603.5,568C 544.472,564.957 485.472,561.457 426.5,557.5C 416.723,557.037 408.057,559.87 400.5,566C 383.035,581.403 371.535,600.57 366,623.5C 360.007,646.439 357.841,669.772 359.5,693.5C 352.708,683.922 344.041,676.422 333.5,671C 317.286,664.873 311.453,670.373 316,687.5C 318.222,698.059 320.889,708.392 324,718.5C 314.674,704.922 302.507,694.755 287.5,688C 270.844,684.132 265.344,690.299 271,706.5C 279.131,718.597 288.964,729.097 300.5,738C 297.153,737.783 293.82,737.116 290.5,736C 284.167,735.333 277.833,735.333 271.5,736C 263.632,742.415 263.632,749.082 271.5,756C 275.815,758.773 280.482,760.773 285.5,762C 308.543,762.813 331.543,762.646 354.5,761.5C 363.751,761.714 373.084,761.881 382.5,762C 390.02,769.238 398.02,775.738 406.5,781.5C 396.014,781.382 386.848,784.716 379,791.5C 378.447,794.82 379.614,797.486 382.5,799.5C 386.841,802.171 391.508,804.004 396.5,805C 408.702,807.553 421.035,808.886 433.5,809C 454.167,809.667 474.833,809.667 495.5,809C 500.684,808.826 505.684,808.326 510.5,807.5C 526.875,806.648 543.208,805.314 559.5,803.5C 544.757,811.384 528.757,819.55 511.5,828C 488.969,841.429 467.302,856.096 446.5,872C 434.609,882.731 422.609,893.231 410.5,903.5C 355.638,893.118 301.638,879.284 248.5,862C 228.439,855.303 209.772,845.969 192.5,834C 186.535,829.041 181.702,823.208 178,816.5C 173.634,805.501 175.3,795.501 183,786.5C 187.575,781.254 192.742,776.754 198.5,773C 208.605,767.229 218.938,761.896 229.5,757C 235.342,750.534 234.342,745.201 226.5,741C 207.881,732.683 188.881,725.349 169.5,719C 159.271,715.641 150.438,710.141 143,702.5C 138.34,694.796 138.34,687.129 143,679.5C 147.244,674.585 152.077,670.419 157.5,667C 175.768,659.183 194.101,651.516 212.5,644C 220.607,637.266 221.607,629.599 215.5,621C 211.159,617.828 206.492,615.161 201.5,613C 180.112,605.982 158.445,599.982 136.5,595C 126.476,592.55 117.143,588.55 108.5,583C 98.6932,575.282 98.0266,566.948 106.5,558C 112.15,554.01 118.15,550.843 124.5,548.5C 126.092,549.602 126.925,548.935 127,546.5C 131.134,546.446 135.301,546.446 139.5,546.5C 140.696,546.154 140.696,545.654 139.5,545C 147.508,544.03 155.508,543.197 163.5,542.5C 164.167,542.833 164.833,543.167 165.5,543.5C 169.034,542.869 172.534,542.202 176,541.5C 180.422,542.144 184.922,542.478 189.5,542.5C 190.522,542.145 191.189,541.478 191.5,540.5C 224.938,541.198 258.438,541.865 292,542.5C 294.551,542.375 297.051,542.042 299.5,541.5C 301.893,542.21 304.393,542.877 307,543.5C 319.326,543.418 331.826,542.751 344.5,541.5C 349.24,542.547 353.24,541.213 356.5,537.5C 357.436,539.441 358.77,541.108 360.5,542.5C 360.833,542.167 361.167,541.833 361.5,541.5C 357.25,537.36 357.917,535.36 363.5,535.5C 366.945,539.298 370.111,538.965 373,534.5C 373.547,539.348 374.88,539.682 377,535.5C 377.29,537.044 377.956,538.377 379,539.5C 381.324,538.193 382.657,536.193 383,533.5C 383.333,534.167 383.667,534.833 384,535.5C 384.718,534.549 385.551,534.383 386.5,535C 385.663,536.011 385.33,537.178 385.5,538.5C 388.946,537.288 391.779,538.288 394,541.5C 395.728,539.806 395.228,538.639 392.5,538C 393.77,537.1 394.77,535.934 395.5,534.5C 397.263,537.02 399.263,539.353 401.5,541.5C 405.455,539.259 405.122,536.926 400.5,534.5C 402.261,533.206 404.094,533.539 406,535.5C 406.196,533.714 407.029,532.381 408.5,531.5C 408.833,531.833 409.167,532.167 409.5,532.5C 408.035,534.599 406.701,536.766 405.5,539C 406.98,538.942 407.813,540.109 408,542.5C 409.309,540.109 410.309,540.109 411,542.5C 411.5,542 412,541.5 412.5,541C 412.62,539.287 412.453,537.454 412,535.5C 412.915,536.328 413.581,537.328 414,538.5C 414.414,538.043 414.914,537.709 415.5,537.5C 416.584,538.665 417.417,539.998 418,541.5C 418.915,540.672 419.581,539.672 420,538.5C 422.368,538.41 424.868,538.743 427.5,539.5C 425.711,540.623 425.378,541.956 426.5,543.5C 427.696,543.154 427.696,542.654 426.5,542C 428.714,541.54 429.381,542.207 428.5,544C 429.5,544.667 430.5,544.667 431.5,544C 430.549,543.282 430.383,542.449 431,541.5C 432.533,541.944 434.033,542.277 435.5,542.5C 436.711,541.726 436.711,540.893 435.5,540C 436.784,539.316 437.951,539.483 439,540.5C 440.538,538.671 440.038,537.171 437.5,536C 440.239,533.807 442.572,534.14 444.5,537C 445.424,538.15 445.424,539.15 444.5,540C 445.742,540.311 446.742,539.811 447.5,538.5C 448.243,539.908 449.077,541.241 450,542.5C 450.684,541.216 450.517,540.049 449.5,539C 450.068,537.396 451.068,536.73 452.5,537C 451.332,538.871 451.832,540.371 454,541.5C 455,541.167 456,540.833 457,540.5C 457.617,541.449 457.451,542.282 456.5,543C 458.664,543.914 460.664,545.081 462.5,546.5C 463.604,545.369 463.271,544.535 461.5,544C 462.167,543.667 462.833,543.333 463.5,543C 463.306,541.097 463.306,539.263 463.5,537.5C 465.483,536.018 467.316,534.351 469,532.5C 469.5,533 470,533.5 470.5,534C 467.693,535.397 467.193,537.231 469,539.5C 470.487,538.747 470.654,537.914 469.5,537C 470.665,535.916 471.998,535.083 473.5,534.5C 474.243,535.908 475.077,537.241 476,538.5C 476.149,535.721 476.983,535.221 478.5,537C 477.549,537.718 477.383,538.551 478,539.5C 479.512,538.743 480.846,537.743 482,536.5C 482.333,537.167 482.667,537.833 483,538.5C 483.376,535.99 484.21,533.657 485.5,531.5C 485.594,533.239 485.761,535.239 486,537.5C 487,536.5 488,535.5 489,534.5C 491.093,535.246 493.093,535.579 495,535.5C 495.423,534.044 496.256,533.544 497.5,534C 496.833,535 496.167,536 495.5,537C 497.9,537.186 500.234,537.686 502.5,538.5C 502.991,541.736 504.324,542.236 506.5,540C 503.972,539.331 503.972,538.498 506.5,537.5C 507.308,539.423 507.808,541.423 508,543.5C 509.346,540.751 510.68,540.417 512,542.5C 513.585,541.624 514.585,540.291 515,538.5C 516.268,538.616 517.602,538.949 519,539.5C 519.333,538.5 519.667,537.5 520,536.5C 520.772,537.849 521.939,538.682 523.5,539C 522.341,542.563 523.174,545.73 526,548.5C 528.096,547.285 527.929,546.451 525.5,546C 528.405,539.868 530.905,540.034 533,546.5C 535.289,544.484 535.789,542.151 534.5,539.5C 534.846,538.304 535.346,538.304 536,539.5C 536.768,535.172 538.268,534.672 540.5,538C 539.67,539.465 539.504,540.965 540,542.5C 540.436,539.716 541.936,538.55 544.5,539C 542.119,540.247 542.453,540.58 545.5,540C 546.227,538.601 546.727,537.101 547,535.5C 550.55,536.236 553.717,537.736 556.5,540C 555.269,541.183 555.269,542.349 556.5,543.5C 557.308,543.192 557.975,542.692 558.5,542C 557.167,540.16 557.334,539.66 559,540.5C 559.604,538.314 560.77,538.148 562.5,540C 561.346,540.914 561.513,541.747 563,542.5C 563.935,537.998 565.269,537.665 567,541.5C 568.258,538.945 570.091,538.278 572.5,539.5C 571.355,540.891 571.355,542.224 572.5,543.5C 574.481,542.895 574.815,541.895 573.5,540.5C 575.005,537.869 575.671,538.203 575.5,541.5C 576.552,541.649 577.552,541.483 578.5,541C 577.044,540.577 576.544,539.744 577,538.5C 579.222,541.044 581.389,541.044 583.5,538.5C 584.167,538.833 584.833,539.167 585.5,539.5C 587.303,537.795 587.969,535.962 587.5,534C 592.143,533.939 595.976,535.773 599,539.5C 600,539.167 601,538.833 602,538.5C 602.667,542.5 603.333,542.5 604,538.5C 605,537.833 606,537.167 607,536.5C 608.667,540.5 610.333,540.5 612,536.5C 612.333,537.167 612.667,537.833 613,538.5C 614.861,536.701 616.861,535.035 619,533.5C 619.456,534.744 618.956,535.577 617.5,536C 619.678,538.228 622.345,539.395 625.5,539.5C 624.386,536.006 625.386,533.006 628.5,530.5C 629.308,530.808 629.975,531.308 630.5,532C 627.307,533.026 625.974,535.192 626.5,538.5C 629.05,538.439 630.55,537.106 631,534.5C 631.333,534.833 631.667,535.167 632,535.5C 630.705,531.619 632.205,529.952 636.5,530.5C 636.413,533.598 636.913,533.932 638,531.5C 639.073,532.28 640.24,532.113 641.5,531C 642.738,530.31 642.738,529.81 641.5,529.5C 654.358,528.653 667.358,527.653 680.5,526.5C 683.5,526.667 686.5,526.833 689.5,527C 688.748,527.671 688.414,528.504 688.5,529.5 Z"/></g>
<g><path style="opacity:1" fill="#d0ce82" d="M 375.5,443.5 C 376.498,469.328 376.831,495.328 376.5,521.5C 407.495,522.213 438.495,522.546 469.5,522.5C 509.861,524.092 550.194,526.092 590.5,528.5C 607.505,528.634 624.505,528.967 641.5,529.5C 642.738,529.81 642.738,530.31 641.5,531C 640.24,532.113 639.073,532.28 638,531.5C 636.913,533.932 636.413,533.598 636.5,530.5C 632.205,529.952 630.705,531.619 632,535.5C 631.667,535.167 631.333,534.833 631,534.5C 630.55,537.106 629.05,538.439 626.5,538.5C 625.974,535.192 627.307,533.026 630.5,532C 629.975,531.308 629.308,530.808 628.5,530.5C 625.386,533.006 624.386,536.006 625.5,539.5C 622.345,539.395 619.678,538.228 617.5,536C 618.956,535.577 619.456,534.744 619,533.5C 616.861,535.035 614.861,536.701 613,538.5C 612.667,537.833 612.333,537.167 612,536.5C 610.333,540.5 608.667,540.5 607,536.5C 606,537.167 605,537.833 604,538.5C 603.333,542.5 602.667,542.5 602,538.5C 601,538.833 600,539.167 599,539.5C 595.976,535.773 592.143,533.939 587.5,534C 587.969,535.962 587.303,537.795 585.5,539.5C 584.833,539.167 584.167,538.833 583.5,538.5C 581.389,541.044 579.222,541.044 577,538.5C 576.544,539.744 577.044,540.577 578.5,541C 577.552,541.483 576.552,541.649 575.5,541.5C 575.671,538.203 575.005,537.869 573.5,540.5C 574.815,541.895 574.481,542.895 572.5,543.5C 571.355,542.224 571.355,540.891 572.5,539.5C 570.091,538.278 568.258,538.945 567,541.5C 565.269,537.665 563.935,537.998 563,542.5C 561.513,541.747 561.346,540.914 562.5,540C 560.77,538.148 559.604,538.314 559,540.5C 557.334,539.66 557.167,540.16 558.5,542C 557.975,542.692 557.308,543.192 556.5,543.5C 555.269,542.349 555.269,541.183 556.5,540C 553.717,537.736 550.55,536.236 547,535.5C 546.727,537.101 546.227,538.601 545.5,540C 542.453,540.58 542.119,540.247 544.5,539C 541.936,538.55 540.436,539.716 540,542.5C 539.504,540.965 539.67,539.465 540.5,538C 538.268,534.672 536.768,535.172 536,539.5C 535.346,538.304 534.846,538.304 534.5,539.5C 535.789,542.151 535.289,544.484 533,546.5C 530.905,540.034 528.405,539.868 525.5,546C 527.929,546.451 528.096,547.285 526,548.5C 523.174,545.73 522.341,542.563 523.5,539C 521.939,538.682 520.772,537.849 520,536.5C 519.667,537.5 519.333,538.5 519,539.5C 517.602,538.949 516.268,538.616 515,538.5C 514.585,540.291 513.585,541.624 512,542.5C 510.68,540.417 509.346,540.751 508,543.5C 507.808,541.423 507.308,539.423 506.5,537.5C 503.972,538.498 503.972,539.331 506.5,540C 504.324,542.236 502.991,541.736 502.5,538.5C 500.234,537.686 497.9,537.186 495.5,537C 496.167,536 496.833,535 497.5,534C 496.256,533.544 495.423,534.044 495,535.5C 493.093,535.579 491.093,535.246 489,534.5C 488,535.5 487,536.5 486,537.5C 485.761,535.239 485.594,533.239 485.5,531.5C 484.21,533.657 483.376,535.99 483,538.5C 482.667,537.833 482.333,537.167 482,536.5C 480.846,537.743 479.512,538.743 478,539.5C 477.383,538.551 477.549,537.718 478.5,537C 476.983,535.221 476.149,535.721 476,538.5C 475.077,537.241 474.243,535.908 473.5,534.5C 471.998,535.083 470.665,535.916 469.5,537C 470.654,537.914 470.487,538.747 469,539.5C 467.193,537.231 467.693,535.397 470.5,534C 470,533.5 469.5,533 469,532.5C 467.316,534.351 465.483,536.018 463.5,537.5C 463.306,539.263 463.306,541.097 463.5,543C 462.833,543.333 462.167,543.667 461.5,544C 463.271,544.535 463.604,545.369 462.5,546.5C 460.664,545.081 458.664,543.914 456.5,543C 457.451,542.282 457.617,541.449 457,540.5C 456,540.833 455,541.167 454,541.5C 451.832,540.371 451.332,538.871 452.5,537C 451.068,536.73 450.068,537.396 449.5,539C 450.517,540.049 450.684,541.216 450,542.5C 449.077,541.241 448.243,539.908 447.5,538.5C 446.742,539.811 445.742,540.311 444.5,540C 445.424,539.15 445.424,538.15 444.5,537C 442.572,534.14 440.239,533.807 437.5,536C 440.038,537.171 440.538,538.671 439,540.5C 437.951,539.483 436.784,539.316 435.5,540C 436.711,540.893 436.711,541.726 435.5,542.5C 434.033,542.277 432.533,541.944 431,541.5C 430.383,542.449 430.549,543.282 431.5,544C 430.5,544.667 429.5,544.667 428.5,544C 429.381,542.207 428.714,541.54 426.5,542C 427.696,542.654 427.696,543.154 426.5,543.5C 425.378,541.956 425.711,540.623 427.5,539.5C 424.868,538.743 422.368,538.41 420,538.5C 419.581,539.672 418.915,540.672 418,541.5C 417.417,539.998 416.584,538.665 415.5,537.5C 414.914,537.709 414.414,538.043 414,538.5C 413.581,537.328 412.915,536.328 412,535.5C 412.453,537.454 412.62,539.287 412.5,541C 412,541.5 411.5,542 411,542.5C 410.309,540.109 409.309,540.109 408,542.5C 407.813,540.109 406.98,538.942 405.5,539C 406.701,536.766 408.035,534.599 409.5,532.5C 409.167,532.167 408.833,531.833 408.5,531.5C 407.029,532.381 406.196,533.714 406,535.5C 404.094,533.539 402.261,533.206 400.5,534.5C 405.122,536.926 405.455,539.259 401.5,541.5C 399.263,539.353 397.263,537.02 395.5,534.5C 394.77,535.934 393.77,537.1 392.5,538C 395.228,538.639 395.728,539.806 394,541.5C 391.779,538.288 388.946,537.288 385.5,538.5C 385.33,537.178 385.663,536.011 386.5,535C 385.551,534.383 384.718,534.549 384,535.5C 383.667,534.833 383.333,534.167 383,533.5C 382.657,536.193 381.324,538.193 379,539.5C 377.956,538.377 377.29,537.044 377,535.5C 374.88,539.682 373.547,539.348 373,534.5C 370.111,538.965 366.945,539.298 363.5,535.5C 357.917,535.36 357.25,537.36 361.5,541.5C 361.167,541.833 360.833,542.167 360.5,542.5C 358.77,541.108 357.436,539.441 356.5,537.5C 358.575,534.354 360.408,531.021 362,527.5C 362.168,499.664 362.668,471.997 363.5,444.5C 363.5,470.5 363.5,496.5 363.5,522.5C 365.833,522.5 368.167,522.5 370.5,522.5C 372.167,522.5 373.833,522.5 375.5,522.5C 375.5,496.167 375.5,469.833 375.5,443.5 Z"/></g>
<g><path style="opacity:1" fill="#5f291d" d="M 1043.5,660.5 C 1041.8,677.613 1037.14,693.947 1029.5,709.5C 1018.63,729.521 1001.97,741.688 979.5,746C 926.034,753.98 872.367,760.313 818.5,765C 741.531,770.146 664.531,774.813 587.5,779C 546.895,781.554 506.561,785.387 466.5,790.5C 452.792,790.862 439.126,790.362 425.5,789C 418.921,787.041 412.588,784.541 406.5,781.5C 398.02,775.738 390.02,769.238 382.5,762C 373.084,761.881 363.751,761.714 354.5,761.5C 350.552,758.078 350.552,754.578 354.5,751C 361.843,750.796 369.176,750.796 376.5,751C 366.415,733.162 360.748,713.996 359.5,693.5C 357.841,669.772 360.007,646.439 366,623.5C 371.535,600.57 383.035,581.403 400.5,566C 408.057,559.87 416.723,557.037 426.5,557.5C 485.472,561.457 544.472,564.957 603.5,568C 639.175,568.741 674.842,568.574 710.5,567.5C 741.545,565.553 772.545,563.053 803.5,560C 810.733,559.548 816.733,556.715 821.5,551.5C 845.814,532.516 869.814,513.182 893.5,493.5C 896.523,491.467 899.523,489.467 902.5,487.5C 909.421,485.509 915.754,486.676 921.5,491C 931.951,498.634 933.784,507.8 927,518.5C 918.667,528.833 910.333,539.167 902,549.5C 901.333,550.167 901.333,550.833 902,551.5C 924.322,547.526 946.822,544.526 969.5,542.5C 976.34,542.695 983.006,543.862 989.5,546C 1001.76,551.924 1011.93,560.424 1020,571.5C 1037.66,598.475 1045.49,628.142 1043.5,660.5 Z"/></g>
<g><path style="opacity:1" fill="#b0b768" d="M 257.5,580.5 C 259.199,580.34 260.866,580.506 262.5,581C 269.819,587.957 272.985,596.457 272,606.5C 267.557,609.806 264.557,608.806 263,603.5C 260.503,597.172 258.003,590.838 255.5,584.5C 255.752,582.927 256.418,581.594 257.5,580.5 Z"/></g>
<g><path style="opacity:1" fill="#b0b868" d="M 289.5,582.5 C 295.204,582.146 297.037,584.813 295,590.5C 292.607,595.678 290.607,601.012 289,606.5C 287.089,611.832 284.422,612.499 281,608.5C 279.629,598.289 282.462,589.622 289.5,582.5 Z"/></g>
<g><path style="opacity:1" fill="#b0b868" d="M 222.5,587.5 C 234.254,588.761 244.087,593.761 252,602.5C 253.185,607.132 251.519,610.132 247,611.5C 239.344,604.923 230.844,599.756 221.5,596C 220.041,592.929 220.374,590.096 222.5,587.5 Z"/></g>
<g><path style="opacity:1" fill="#aeb666" d="M 1154.5,591.5 C 1157.24,590.965 1159.07,591.965 1160,594.5C 1160.46,597.558 1160.12,600.558 1159,603.5C 1156.6,609.363 1154.6,615.363 1153,621.5C 1147.98,623.826 1145.14,622.326 1144.5,617C 1145.01,607.294 1148.34,598.794 1154.5,591.5 Z"/></g>
<g><path style="opacity:1" fill="#aeb666" d="M 1252.5,599.5 C 1258.34,598.518 1261.17,600.851 1261,606.5C 1254.28,610.112 1247.44,613.612 1240.5,617C 1236.77,621.531 1232.11,623.864 1226.5,624C 1224.56,621.847 1224.06,619.347 1225,616.5C 1232.56,608.083 1241.73,602.417 1252.5,599.5 Z"/></g>
<g><path style="opacity:1" fill="#d36038" d="M 1032.5,666.5 C 965.695,679.387 898.362,688.887 830.5,695C 775.875,699.257 721.208,702.924 666.5,706C 608.797,707.989 551.13,710.489 493.5,713.5C 496.954,694.339 498.287,675.005 497.5,655.5C 555.113,659.079 612.78,660.246 670.5,659C 676.231,658.79 681.897,658.124 687.5,657C 694.043,654.225 694.043,651.225 687.5,648C 625.29,649.416 563.123,648.249 501,644.5C 496.752,644.53 492.586,644.864 488.5,645.5C 487.346,640.27 486.68,634.936 486.5,629.5C 488.481,625.817 488.981,621.817 488,617.5C 481.866,598.408 470.699,582.908 454.5,571C 499.813,573.332 545.147,575.665 590.5,578C 661.674,581.055 732.674,578.722 803.5,571C 811.576,570.309 818.909,567.642 825.5,563C 850.5,542.667 875.5,522.333 900.5,502C 910.844,494.59 917.344,497.09 920,509.5C 907.427,526.744 894.093,543.411 880,559.5C 877.003,562.939 876.837,566.439 879.5,570C 884.749,571.376 888.416,569.542 890.5,564.5C 910.395,560.919 930.395,557.753 950.5,555C 978.308,548.2 999.308,557.033 1013.5,581.5C 958.558,588.728 903.558,595.561 848.5,602C 842.511,603.461 840.178,607.294 841.5,613.5C 900.962,607.484 960.296,600.484 1019.5,592.5C 1028.36,608.282 1032.7,625.282 1032.5,643.5C 996.173,648.249 959.84,653.083 923.5,658C 918.009,659.148 916.343,662.314 918.5,667.5C 919.688,668.84 921.188,669.507 923,669.5C 959.395,663.943 995.895,659.277 1032.5,655.5C 1032.5,659.167 1032.5,662.833 1032.5,666.5 Z"/></g>
<g><path style="opacity:1" fill="#adb565" d="M 1223.5,585.5 C 1229.75,587.433 1230.92,591.099 1227,596.5C 1222.5,602.156 1218.5,608.156 1215,614.5C 1206.52,616.129 1204.19,612.796 1208,604.5C 1212.3,597.372 1217.47,591.039 1223.5,585.5 Z"/></g>
<g><path style="opacity:1" fill="#b1b868" d="M 305.5,606.5 C 310.393,605.314 313.727,606.981 315.5,611.5C 310.737,616.765 305.737,621.932 300.5,627C 293.6,630.098 290.766,627.931 292,620.5C 293.333,618.5 294.667,616.5 296,614.5C 299.358,611.969 302.524,609.302 305.5,606.5 Z"/></g>
<g><path style="opacity:1" fill="#92331b" d="M 765.5,597.5 C 770.369,598.562 772.202,601.562 771,606.5C 770.167,607.333 769.333,608.167 768.5,609C 714.539,617.878 660.205,621.878 605.5,621C 601.5,617.667 601.5,614.333 605.5,611C 655.768,610.793 705.768,607.127 755.5,600C 758.991,599.262 762.325,598.429 765.5,597.5 Z"/></g>
<g><path style="opacity:1" fill="#afb666" d="M 1092.5,608.5 C 1101.79,610.066 1109.63,614.399 1116,621.5C 1116.84,624.14 1116.34,626.473 1114.5,628.5C 1112.81,630.256 1110.81,630.756 1108.5,630C 1103.5,626.333 1098.5,622.667 1093.5,619C 1089.84,615.803 1089.51,612.303 1092.5,608.5 Z"/></g>
<g><path style="opacity:1" fill="#aeb565" d="M 1118.5,586.5 C 1124.22,587.549 1128.05,590.882 1130,596.5C 1133.85,604.077 1135.52,612.077 1135,620.5C 1133.06,623.608 1130.39,624.275 1127,622.5C 1123.67,613.167 1120.33,603.833 1117,594.5C 1116.11,591.502 1116.61,588.836 1118.5,586.5 Z"/></g>
<g><path style="opacity:1" fill="#93331b" d="M 934.5,625.5 C 941.849,624.188 944.683,627.188 943,634.5C 941.829,635.893 940.329,636.727 938.5,637C 889.888,642.38 841.221,647.213 792.5,651.5C 788.644,651.141 786.644,648.974 786.5,645C 786.643,642.849 787.643,641.182 789.5,640C 838.079,636.138 886.413,631.304 934.5,625.5 Z"/></g>
<g><path style="opacity:1" fill="#fecf98" d="M 1037.5,926.5 C 827.086,952.919 618.086,945.252 410.5,903.5C 422.609,893.231 434.609,882.731 446.5,872C 467.302,856.096 488.969,841.429 511.5,828C 528.757,819.55 544.757,811.384 559.5,803.5C 572.633,801.541 585.967,800.041 599.5,799C 739.656,800.28 877.656,783.946 1013.5,750C 1023.44,746.798 1033.44,743.798 1043.5,741C 1051.34,738.28 1058.68,734.613 1065.5,730C 1069.88,724.879 1069.21,720.545 1063.5,717C 1059.64,715.268 1055.64,713.934 1051.5,713C 1043.97,712.147 1036.64,710.981 1029.5,709.5C 1037.14,693.947 1041.8,677.613 1043.5,660.5C 1043.34,661.873 1043.51,663.207 1044,664.5C 1044.5,661.518 1044.66,658.518 1044.5,655.5C 1065.46,660.813 1084.79,669.646 1102.5,682C 1120.33,697.495 1124.5,715.995 1115,737.5C 1107.08,748.757 1097.24,757.923 1085.5,765C 1057.75,781.545 1029.08,796.545 999.5,810C 986.47,817.361 975.637,827.194 967,839.5C 960.877,848.611 959.877,858.278 964,868.5C 968.655,877.163 974.822,884.663 982.5,891C 999.932,904.273 1018.27,916.106 1037.5,926.5 Z"/></g>
<g><path style="opacity:1" fill="#93331b" d="M 804.5,671.5 C 807.85,671.335 811.183,671.502 814.5,672C 817.29,674.21 818.123,677.044 817,680.5C 815.509,682.004 813.676,682.837 811.5,683C 775.026,685.908 738.526,688.408 702,690.5C 697.833,690.333 693.667,690.167 689.5,690C 686.657,686.381 686.99,683.048 690.5,680C 728.733,678.237 766.733,675.404 804.5,671.5 Z"/></g>
<g><path style="opacity:1" fill="#fd864b" d="M 486.5,629.5 C 486.68,634.936 487.346,640.27 488.5,645.5C 488.217,646.289 487.717,646.956 487,647.5C 486.667,662.833 486.333,678.167 486,693.5C 484.626,701.371 483.126,709.204 481.5,717C 481.081,719.981 482.081,722.314 484.5,724C 488.688,724.176 492.688,724.676 496.5,725.5C 495.249,729.418 494.249,733.418 493.5,737.5C 488.094,739.025 482.761,740.858 477.5,743C 473.458,749.585 469.291,756.085 465,762.5C 453.008,778.166 437.841,782.333 419.5,775C 394.467,761.792 378.967,741.292 373,713.5C 367.15,679.589 369.483,646.256 380,613.5C 386.795,594.381 398.962,579.881 416.5,570C 420.5,569.333 424.5,569.333 428.5,570C 455.463,580.301 472.63,599.468 480,627.5C 481.789,629.229 483.956,629.896 486.5,629.5 Z"/></g>
<g><path style="opacity:1" fill="#cd572c" d="M 422.5,615.5 C 431.355,614.512 438.522,617.512 444,624.5C 452.618,636.412 457.284,649.745 458,664.5C 459.35,679.351 458.35,694.018 455,708.5C 454.023,711.102 452.856,713.602 451.5,716C 446.626,717.23 443.626,715.396 442.5,710.5C 444.441,704.964 445.941,699.297 447,693.5C 450.368,671.995 447.035,651.662 437,632.5C 431.236,625.049 425.236,624.716 419,631.5C 413.848,640.096 410.848,649.429 410,659.5C 406.27,684.133 410.603,707.133 423,728.5C 424.833,730.333 426.667,732.167 428.5,734C 436.133,732.965 439.3,736.132 438,743.5C 432.304,746.314 426.804,745.814 421.5,742C 408.495,728.485 400.995,712.318 399,693.5C 397.651,676.667 398.651,660.001 402,643.5C 404.743,630.954 411.576,621.621 422.5,615.5 Z"/></g>
<g><path style="opacity:1" fill="#a44323" d="M 1032.5,666.5 C 1030.24,689.193 1020.9,708.359 1004.5,724C 1000.43,727.063 996.098,729.73 991.5,732C 971.646,736.198 951.646,739.531 931.5,742C 890.612,747.326 849.612,751.659 808.5,755C 717.503,760.666 626.503,766.333 535.5,772C 511.47,774.446 487.47,776.78 463.5,779C 471.927,771.164 478.927,762.164 484.5,752C 504.241,745.531 523.908,738.864 543.5,732C 549.626,725.686 548.293,721.353 539.5,719C 523.929,717.879 508.596,716.046 493.5,713.5C 551.13,710.489 608.797,707.989 666.5,706C 721.208,702.924 775.875,699.257 830.5,695C 898.362,688.887 965.695,679.387 1032.5,666.5 Z"/></g>
<g><path style="opacity:1" fill="#5d2719" d="M 963.5,700.5 C 970.163,699.333 972.997,701.999 972,708.5C 971.5,710.333 970.333,711.5 968.5,712C 922.291,720.304 875.791,726.471 829,730.5C 822.903,730.471 820.903,727.471 823,721.5C 824.826,719.926 826.993,719.093 829.5,719C 874.708,715.739 919.375,709.572 963.5,700.5 Z"/></g>
<g><path style="opacity:1" fill="#8b974a" d="M 359.5,693.5 C 360.748,713.996 366.415,733.162 376.5,751C 369.176,750.796 361.843,750.796 354.5,751C 350.552,754.578 350.552,758.078 354.5,761.5C 331.543,762.646 308.543,762.813 285.5,762C 280.482,760.773 275.815,758.773 271.5,756C 263.632,749.082 263.632,742.415 271.5,736C 277.833,735.333 284.167,735.333 290.5,736C 293.82,737.116 297.153,737.783 300.5,738C 288.964,729.097 279.131,718.597 271,706.5C 265.344,690.299 270.844,684.132 287.5,688C 302.507,694.755 314.674,704.922 324,718.5C 320.889,708.392 318.222,698.059 316,687.5C 311.453,670.373 317.286,664.873 333.5,671C 344.041,676.422 352.708,683.922 359.5,693.5 Z"/></g>
<g><path style="opacity:1" fill="#db673c" d="M 496.5,725.5 C 504.86,726.003 513.193,726.836 521.5,728C 512.148,731.17 502.815,734.336 493.5,737.5C 494.249,733.418 495.249,729.418 496.5,725.5 Z"/></g>
<g><path style="opacity:1" fill="#5d2719" d="M 680.5,731.5 C 686.509,731.334 692.509,731.501 698.5,732C 701.29,734.21 702.123,737.044 701,740.5C 699.829,741.893 698.329,742.727 696.5,743C 657.05,744.122 617.716,746.455 578.5,750C 573.621,743.948 574.954,739.948 582.5,738C 615.311,735.6 647.977,733.433 680.5,731.5 Z"/></g>
<g><path style="opacity:1" fill="#8f9b4e" d="M 1195.5,686.5 C 1197.86,686.337 1200.19,686.503 1202.5,687C 1204.76,689.772 1206.26,692.938 1207,696.5C 1210.68,713.967 1212.35,731.633 1212,749.5C 1216.4,731.473 1225.9,716.973 1240.5,706C 1245.14,704.349 1247.81,705.849 1248.5,710.5C 1245.67,721.825 1242.17,732.825 1238,743.5C 1246.02,738.405 1254.52,734.238 1263.5,731C 1270.33,728.614 1273.99,730.947 1274.5,738C 1270.81,752.708 1262.15,763.375 1248.5,770C 1215.73,770.948 1183.07,769.614 1150.5,766C 1142.58,761.87 1142.58,757.537 1150.5,753C 1157.55,751.544 1164.55,751.044 1171.5,751.5C 1164.98,743.135 1159.48,734.135 1155,724.5C 1153.51,719.474 1154.67,715.308 1158.5,712C 1161.68,711.612 1164.68,712.279 1167.5,714C 1174.09,720.587 1179.92,727.753 1185,735.5C 1184.94,723.724 1185.94,712.058 1188,700.5C 1189.73,695.361 1192.23,690.694 1195.5,686.5 Z"/></g>
<g><path style="opacity:1" fill="#e99f5a" d="M 1029.5,709.5 C 1036.64,710.981 1043.97,712.147 1051.5,713C 1055.64,713.934 1059.64,715.268 1063.5,717C 1069.21,720.545 1069.88,724.879 1065.5,730C 1058.68,734.613 1051.34,738.28 1043.5,741C 1033.44,743.798 1023.44,746.798 1013.5,750C 877.656,783.946 739.656,800.28 599.5,799C 585.967,800.041 572.633,801.541 559.5,803.5C 543.208,805.314 526.875,806.648 510.5,807.5C 509.448,807.649 508.448,807.483 507.5,807C 511.486,806.969 515.152,805.969 518.5,804C 516.092,800.678 514.092,801.011 512.5,805C 509.421,806.09 507.088,805.257 505.5,802.5C 504.325,803.855 503.325,803.688 502.5,802C 504.93,799.695 504.597,797.528 501.5,795.5C 498.614,795.29 495.614,795.123 492.5,795C 491.019,794.02 489.685,792.853 488.5,791.5C 486.618,792.093 484.785,792.76 483,793.5C 482.692,792.692 482.192,792.025 481.5,791.5C 481.002,792.603 480.669,793.603 480.5,794.5C 479.808,793.975 479.308,793.308 479,792.5C 478.167,794 477,795.167 475.5,796C 475.952,797.612 477.285,798.612 479.5,799C 478.234,799.309 477.067,799.809 476,800.5C 474.951,798.893 473.451,798.227 471.5,798.5C 471.657,799.873 471.49,801.207 471,802.5C 469.788,799.238 467.955,796.404 465.5,794C 471.175,793.536 471.508,792.869 466.5,792C 469.097,791.221 469.097,790.721 466.5,790.5C 506.561,785.387 546.895,781.554 587.5,779C 664.531,774.813 741.531,770.146 818.5,765C 872.367,760.313 926.034,753.98 979.5,746C 1001.97,741.688 1018.63,729.521 1029.5,709.5 Z"/></g>
<g><path style="opacity:1" fill="#efad69" d="M 942.5,787.5 C 947.267,787.191 951.934,787.691 956.5,789C 959.394,789.869 960.561,791.702 960,794.5C 958.307,796.604 956.14,798.104 953.5,799C 947.747,799.851 942.08,799.517 936.5,798C 934.675,796.534 934.175,794.701 935,792.5C 937.17,790.177 939.67,788.51 942.5,787.5 Z"/></g>
<g><path style="opacity:1" fill="#e49e58" d="M 406.5,781.5 C 412.588,784.541 418.921,787.041 425.5,789C 439.126,790.362 452.792,790.862 466.5,790.5C 469.097,790.721 469.097,791.221 466.5,792C 471.508,792.869 471.175,793.536 465.5,794C 467.955,796.404 469.788,799.238 471,802.5C 471.49,801.207 471.657,799.873 471.5,798.5C 473.451,798.227 474.951,798.893 476,800.5C 477.067,799.809 478.234,799.309 479.5,799C 477.285,798.612 475.952,797.612 475.5,796C 477,795.167 478.167,794 479,792.5C 479.308,793.308 479.808,793.975 480.5,794.5C 480.669,793.603 481.002,792.603 481.5,791.5C 482.192,792.025 482.692,792.692 483,793.5C 484.785,792.76 486.618,792.093 488.5,791.5C 489.685,792.853 491.019,794.02 492.5,795C 495.614,795.123 498.614,795.29 501.5,795.5C 504.597,797.528 504.93,799.695 502.5,802C 503.325,803.688 504.325,803.855 505.5,802.5C 507.088,805.257 509.421,806.09 512.5,805C 514.092,801.011 516.092,800.678 518.5,804C 515.152,805.969 511.486,806.969 507.5,807C 508.448,807.483 509.448,807.649 510.5,807.5C 505.684,808.326 500.684,808.826 495.5,809C 474.833,809.667 454.167,809.667 433.5,809C 421.035,808.886 408.702,807.553 396.5,805C 391.508,804.004 386.841,802.171 382.5,799.5C 379.614,797.486 378.447,794.82 379,791.5C 386.848,784.716 396.014,781.382 406.5,781.5 Z"/></g>
<g><path style="opacity:1" fill="#9faa59" d="M 306.5,795.5 C 312.674,794.173 314.841,796.506 313,802.5C 310.865,810.57 308.532,818.57 306,826.5C 302.475,828.19 299.475,827.524 297,824.5C 295.87,813.39 299.037,803.723 306.5,795.5 Z"/></g>
<g><path style="opacity:1" fill="#9da858" d="M 251.5,799.5 C 265.8,799.625 276.966,805.625 285,817.5C 286.608,824.169 284.108,827.336 277.5,827C 276.072,824.815 274.405,822.815 272.5,821C 264.949,816.557 256.949,813.223 248.5,811C 244.261,805.944 245.261,802.11 251.5,799.5 Z"/></g>
<g><path style="opacity:1" fill="#edaa66" d="M 880.5,809.5 C 887.257,809.123 893.924,809.623 900.5,811C 904.95,811.776 906.45,814.276 905,818.5C 902.293,820.936 899.127,822.436 895.5,823C 889.083,823.87 882.749,823.536 876.5,822C 872.896,820.666 871.729,818.166 873,814.5C 875.17,812.177 877.67,810.51 880.5,809.5 Z"/></g>
<g><path style="opacity:1" fill="#a3ad5d" d="M 1137.5,796.5 C 1144.16,795.997 1146.66,798.997 1145,805.5C 1138.12,815.925 1133.45,827.258 1131,839.5C 1124.62,843.397 1121.45,841.563 1121.5,834C 1123.7,820.109 1129.03,807.609 1137.5,796.5 Z"/></g>
<g><path style="opacity:1" fill="#a2ad5c" d="M 336.5,809.5 C 339.85,809.335 343.183,809.502 346.5,810C 347.797,812.545 347.631,815.045 346,817.5C 339.567,821.633 333.401,826.133 327.5,831C 322.046,833.955 318.713,832.455 317.5,826.5C 317.622,824.209 318.455,822.209 320,820.5C 325.133,816.186 330.633,812.519 336.5,809.5 Z"/></g>
<g><path style="opacity:1" fill="#a4ae5d" d="M 1093.5,813.5 C 1096.56,813.144 1099.23,813.977 1101.5,816C 1108.15,822.152 1112.48,829.652 1114.5,838.5C 1112.64,845.107 1109.14,846.107 1104,841.5C 1101.17,835.83 1097.83,830.497 1094,825.5C 1093.02,823.04 1092.19,820.54 1091.5,818C 1091.52,816.167 1092.19,814.667 1093.5,813.5 Z"/></g>
<g><path style="opacity:1" fill="#a4ae5e" d="M 1164.5,820.5 C 1167.91,820.249 1171.24,820.583 1174.5,821.5C 1175.65,823.765 1175.81,826.098 1175,828.5C 1166.5,833.667 1158,838.833 1149.5,844C 1142.46,844.306 1140.63,841.139 1144,834.5C 1149.66,827.985 1156.5,823.319 1164.5,820.5 Z"/></g>
<g><path style="opacity:1" fill="#eca964" d="M 755.5,828.5 C 763.119,827.726 770.286,829.06 777,832.5C 777.604,836.588 775.77,839.088 771.5,840C 765.431,840.804 759.431,840.471 753.5,839C 750.125,837.971 748.958,835.804 750,832.5C 751.812,831.023 753.645,829.69 755.5,828.5 Z"/></g>
<g><path style="opacity:1" fill="#eba15c" d="M 564.5,846.5 C 574.224,846.141 583.891,846.641 593.5,848C 599.126,850.487 599.792,853.82 595.5,858C 584.512,862.056 573.179,863.39 561.5,862C 558.624,861.562 555.957,860.562 553.5,859C 550.689,855.706 551.022,852.706 554.5,850C 557.776,848.308 561.109,847.141 564.5,846.5 Z"/></g>
<g><path style="opacity:1" fill="#eba864" d="M 833.5,892.5 C 839.925,892.13 846.258,892.63 852.5,894C 859.247,897.741 858.913,901.074 851.5,904C 845.5,904.667 839.5,904.667 833.5,904C 825.598,900.123 825.598,896.29 833.5,892.5 Z"/></g>
</svg>
