<?xml version="1.0" encoding="UTF-8"?>
<!DOCTYPE svg PUBLIC "-//W3C//DTD SVG 1.1//EN" "http://www.w3.org/Graphics/SVG/1.1/DTD/svg11.dtd">
<svg xmlns="http://www.w3.org/2000/svg" version="1.1" width="1024px" height="1024px" style="shape-rendering:geometricPrecision; text-rendering:geometricPrecision; image-rendering:optimizeQuality; fill-rule:evenodd; clip-rule:evenodd" xmlns:xlink="http://www.w3.org/1999/xlink">
<g><path style="opacity:1" fill="#f5e9d8" d="M -0.5,-0.5 C 340.833,-0.5 682.167,-0.5 1023.5,-0.5C 1023.5,340.833 1023.5,682.167 1023.5,1023.5C 682.167,1023.5 340.833,1023.5 -0.5,1023.5C -0.5,682.167 -0.5,340.833 -0.5,-0.5 Z"/></g>
<g><path style="opacity:1" fill="#232320" d="M 341.5,99.5 C 341.611,100.117 341.944,100.617 342.5,101C 454.167,101.667 565.833,101.667 677.5,101C 678.416,100.722 679.082,100.222 679.5,99.5C 689.32,99.9549 698.653,102.288 707.5,106.5C 707.44,107.043 707.107,107.376 706.5,107.5C 700.119,104.571 693.453,102.571 686.5,101.5C 683.406,103.211 679.406,104.211 674.5,104.5C 669.613,104.572 664.613,104.238 659.5,103.5C 659.5,104.5 659.5,105.5 659.5,106.5C 657.278,106.822 655.444,106.155 654,104.5C 652.615,105.551 651.615,106.884 651,108.5C 650.389,104.728 649.389,104.728 648,108.5C 646.853,107.542 645.853,107.875 645,109.5C 642.904,108.285 643.071,107.451 645.5,107C 640.382,107.681 635.549,106.514 631,103.5C 629.5,104 628,104.5 626.5,105C 627.696,105.654 627.696,106.154 626.5,106.5C 625.167,105.167 623.833,105.167 622.5,106.5C 621.627,103.878 619.794,103.878 617,106.5C 613.117,103.993 609.117,103.993 605,106.5C 603.278,106.389 603.112,105.889 604.5,105C 602.444,104.689 600.444,104.189 598.5,103.5C 597.702,105.078 597.202,106.744 597,108.5C 596.552,106.776 595.718,106.109 594.5,106.5C 594.709,105.914 595.043,105.414 595.5,105C 594.207,104.51 592.873,104.343 591.5,104.5C 591.688,106.103 591.188,107.437 590,108.5C 589.667,107.833 589.333,107.167 589,106.5C 587.823,107.318 586.49,108.318 585,109.5C 584.05,108.978 583.216,108.311 582.5,107.5C 580.166,108.841 578.499,108.174 577.5,105.5C 576.552,108.715 575.219,109.048 573.5,106.5C 573.346,107.909 573.179,109.576 573,111.5C 571.943,109.781 571.11,107.947 570.5,106C 568.536,105.376 566.869,105.876 565.5,107.5C 564.029,106.619 563.196,105.286 563,103.5C 562.935,105.883 562.102,106.55 560.5,105.5C 558.118,107.071 555.451,107.904 552.5,108C 553.654,108.914 553.487,109.747 552,110.5C 551.529,108.754 550.862,107.087 550,105.5C 549.019,108.655 547.685,108.988 546,106.5C 543.768,107.187 541.602,107.521 539.5,107.5C 538.522,107.023 537.689,106.357 537,105.5C 534.838,107.647 532.504,107.647 530,105.5C 527.872,106.837 525.706,106.504 523.5,104.5C 522.914,104.709 522.414,105.043 522,105.5C 519.379,104.009 516.545,103.342 513.5,103.5C 512.324,107.517 509.824,110.517 506,112.5C 505.517,111.552 505.351,110.552 505.5,109.5C 501.967,108.966 498.467,108.966 495,109.5C 492.112,107.014 489.279,107.014 486.5,109.5C 484.799,108.198 483.632,106.531 483,104.5C 482.586,104.957 482.086,105.291 481.5,105.5C 478.074,102.585 475.574,103.252 474,107.5C 472.527,107.868 471.027,107.368 469.5,106C 470.696,105.346 470.696,104.846 469.5,104.5C 465.5,105.5 465.5,106.5 469.5,107.5C 470.429,108.689 470.762,110.022 470.5,111.5C 468.302,112.014 466.302,113.014 464.5,114.5C 463.646,113.478 462.646,112.645 461.5,112C 464.612,111.149 464.946,109.983 462.5,108.5C 462.833,107.833 463.167,107.167 463.5,106.5C 461.871,106.628 460.538,105.628 459.5,103.5C 459.167,104 458.833,104.5 458.5,105C 461.308,108.831 460.974,109.664 457.5,107.5C 456.449,108.885 455.116,109.885 453.5,110.5C 452.936,108.982 451.769,107.316 450,105.5C 447.047,110.139 443.713,110.139 440,105.5C 439.667,106.167 439.333,106.833 439,107.5C 437.488,106.743 436.154,105.743 435,104.5C 434.935,106.883 434.102,107.55 432.5,106.5C 430.259,107.032 428.759,108.365 428,110.5C 426.148,108.77 426.314,107.604 428.5,107C 427.953,106.075 427.287,105.242 426.5,104.5C 424.571,105.38 422.737,106.38 421,107.5C 419.333,106.167 417.667,106.167 416,107.5C 414.103,107.104 412.603,106.104 411.5,104.5C 410.5,105.833 409.5,105.833 408.5,104.5C 407.269,105.651 407.269,106.817 408.5,108C 407.258,108.311 406.258,107.811 405.5,106.5C 404.269,107.651 404.269,108.817 405.5,110C 400.789,110.262 400.123,109.429 403.5,107.5C 403.167,107.167 402.833,106.833 402.5,106.5C 400.958,107.747 399.458,107.747 398,106.5C 397.667,107.167 397.333,107.833 397,108.5C 395.667,108.5 394.333,108.5 393,108.5C 391.667,112.5 390.333,112.5 389,108.5C 388.667,109.167 388.333,109.833 388,110.5C 386.762,106.39 384.595,105.724 381.5,108.5C 378.515,107.887 375.515,108.22 372.5,109.5C 371.685,107.724 370.518,107.057 369,107.5C 368.641,104.456 367.974,104.122 367,106.5C 364.827,103.723 364.327,103.89 365.5,107C 363.693,108.236 361.693,108.57 359.5,108C 360.328,108.915 361.328,109.581 362.5,110C 362.167,110.333 361.833,110.667 361.5,111C 360.175,110.852 359.008,111.018 358,111.5C 357,107.5 356,107.5 355,111.5C 354.667,109.833 354.333,108.167 354,106.5C 352.667,107.833 351.333,109.167 350,110.5C 349.683,108.699 349.016,108.366 348,109.5C 346.164,107.292 343.831,105.958 341,105.5C 340.667,106.167 340.333,106.833 340,107.5C 339.915,105.915 339.749,104.582 339.5,103.5C 338.472,105.361 336.972,106.695 335,107.5C 333.723,105.186 333.223,102.853 333.5,100.5C 336.096,99.7347 338.763,99.4013 341.5,99.5 Z"/></g>
<g><path style="opacity:1" fill="#0a0b08" d="M 341.5,99.5 C 454.167,99.5 566.833,99.5 679.5,99.5C 679.082,100.222 678.416,100.722 677.5,101C 565.833,101.667 454.167,101.667 342.5,101C 341.944,100.617 341.611,100.117 341.5,99.5 Z"/></g>
<g><path style="opacity:1" fill="#292825" d="M 330.5,101.5 C 331.209,100.596 332.209,100.263 333.5,100.5C 333.223,102.853 333.723,105.186 335,107.5C 336.972,106.695 338.472,105.361 339.5,103.5C 339.749,104.582 339.915,105.915 340,107.5C 340.333,106.833 340.667,106.167 341,105.5C 343.831,105.958 346.164,107.292 348,109.5C 349.016,108.366 349.683,108.699 350,110.5C 351.333,109.167 352.667,107.833 354,106.5C 354.333,108.167 354.667,109.833 355,111.5C 356,107.5 357,107.5 358,111.5C 359.008,111.018 360.175,110.852 361.5,111C 361.833,110.667 362.167,110.333 362.5,110C 361.328,109.581 360.328,108.915 359.5,108C 361.693,108.57 363.693,108.236 365.5,107C 364.327,103.89 364.827,103.723 367,106.5C 367.974,104.122 368.641,104.456 369,107.5C 370.518,107.057 371.685,107.724 372.5,109.5C 375.515,108.22 378.515,107.887 381.5,108.5C 384.595,105.724 386.762,106.39 388,110.5C 388.333,109.833 388.667,109.167 389,108.5C 390.333,112.5 391.667,112.5 393,108.5C 394.333,108.5 395.667,108.5 397,108.5C 397.333,107.833 397.667,107.167 398,106.5C 399.458,107.747 400.958,107.747 402.5,106.5C 402.833,106.833 403.167,107.167 403.5,107.5C 400.123,109.429 400.789,110.262 405.5,110C 404.269,108.817 404.269,107.651 405.5,106.5C 406.258,107.811 407.258,108.311 408.5,108C 407.269,106.817 407.269,105.651 408.5,104.5C 409.5,105.833 410.5,105.833 411.5,104.5C 412.603,106.104 414.103,107.104 416,107.5C 417.667,106.167 419.333,106.167 421,107.5C 422.737,106.38 424.571,105.38 426.5,104.5C 427.287,105.242 427.953,106.075 428.5,107C 426.314,107.604 426.148,108.77 428,110.5C 428.759,108.365 430.259,107.032 432.5,106.5C 434.102,107.55 434.935,106.883 435,104.5C 436.154,105.743 437.488,106.743 439,107.5C 439.333,106.833 439.667,106.167 440,105.5C 443.713,110.139 447.047,110.139 450,105.5C 451.769,107.316 452.936,108.982 453.5,110.5C 455.116,109.885 456.449,108.885 457.5,107.5C 460.974,109.664 461.308,108.831 458.5,105C 458.833,104.5 459.167,104 459.5,103.5C 460.538,105.628 461.871,106.628 463.5,106.5C 463.167,107.167 462.833,107.833 462.5,108.5C 464.946,109.983 464.612,111.149 461.5,112C 462.646,112.645 463.646,113.478 464.5,114.5C 466.302,113.014 468.302,112.014 470.5,111.5C 470.762,110.022 470.429,108.689 469.5,107.5C 465.5,106.5 465.5,105.5 469.5,104.5C 470.696,104.846 470.696,105.346 469.5,106C 471.027,107.368 472.527,107.868 474,107.5C 475.574,103.252 478.074,102.585 481.5,105.5C 482.086,105.291 482.586,104.957 483,104.5C 483.632,106.531 484.799,108.198 486.5,109.5C 489.279,107.014 492.112,107.014 495,109.5C 498.467,108.966 501.967,108.966 505.5,109.5C 505.351,110.552 505.517,111.552 506,112.5C 509.824,110.517 512.324,107.517 513.5,103.5C 516.545,103.342 519.379,104.009 522,105.5C 522.414,105.043 522.914,104.709 523.5,104.5C 525.706,106.504 527.872,106.837 530,105.5C 532.504,107.647 534.838,107.647 537,105.5C 537.689,106.357 538.522,107.023 539.5,107.5C 541.602,107.521 543.768,107.187 546,106.5C 547.685,108.988 549.019,108.655 550,105.5C 550.862,107.087 551.529,108.754 552,110.5C 553.487,109.747 553.654,108.914 552.5,108C 555.451,107.904 558.118,107.071 560.5,105.5C 562.102,106.55 562.935,105.883 563,103.5C 563.196,105.286 564.029,106.619 565.5,107.5C 566.869,105.876 568.536,105.376 570.5,106C 571.11,107.947 571.943,109.781 573,111.5C 573.179,109.576 573.346,107.909 573.5,106.5C 575.219,109.048 576.552,108.715 577.5,105.5C 578.499,108.174 580.166,108.841 582.5,107.5C 583.216,108.311 584.05,108.978 585,109.5C 586.49,108.318 587.823,107.318 589,106.5C 589.333,107.167 589.667,107.833 590,108.5C 591.188,107.437 591.688,106.103 591.5,104.5C 592.873,104.343 594.207,104.51 595.5,105C 595.043,105.414 594.709,105.914 594.5,106.5C 595.718,106.109 596.552,106.776 597,108.5C 597.202,106.744 597.702,105.078 598.5,103.5C 600.444,104.189 602.444,104.689 604.5,105C 603.112,105.889 603.278,106.389 605,106.5C 609.117,103.993 613.117,103.993 617,106.5C 619.794,103.878 621.627,103.878 622.5,106.5C 623.833,105.167 625.167,105.167 626.5,106.5C 627.696,106.154 627.696,105.654 626.5,105C 628,104.5 629.5,104 631,103.5C 635.549,106.514 640.382,107.681 645.5,107C 643.071,107.451 642.904,108.285 645,109.5C 645.853,107.875 646.853,107.542 648,108.5C 649.389,104.728 650.389,104.728 651,108.5C 651.615,106.884 652.615,105.551 654,104.5C 655.444,106.155 657.278,106.822 659.5,106.5C 659.5,105.5 659.5,104.5 659.5,103.5C 664.613,104.238 669.613,104.572 674.5,104.5C 673.636,104.702 672.636,105.036 671.5,105.5C 672.806,106.912 673.64,108.579 674,110.5C 674.741,109.359 675.575,109.359 676.5,110.5C 677.814,109.687 678.981,108.687 680,107.5C 680.928,110.035 682.762,111.035 685.5,110.5C 685.5,111.5 685.5,112.5 685.5,113.5C 683.007,113.329 681.174,114.329 680,116.5C 679.531,114.892 678.865,113.225 678,111.5C 676.039,113.853 673.873,116.02 671.5,118C 666.042,117.663 660.708,118.163 655.5,119.5C 556.5,119.5 457.5,119.5 358.5,119.5C 358.631,118.761 358.464,118.094 358,117.5C 351.733,118.443 345.233,118.609 338.5,118C 336.853,116.267 335.353,114.434 334,112.5C 334.046,114.313 333.88,115.979 333.5,117.5C 330.45,117.003 329.45,115.503 330.5,113C 329.874,112.25 329.374,111.416 329,110.5C 328.667,110.833 328.333,111.167 328,111.5C 327.581,107.148 326.914,106.815 326,110.5C 325.667,109.833 325.333,109.167 325,108.5C 324.5,109.667 323.667,110.5 322.5,111C 323.654,111.914 323.487,112.747 322,113.5C 322.131,110.905 321.964,108.405 321.5,106C 325.09,104.47 328.757,103.136 332.5,102C 331.906,101.536 331.239,101.369 330.5,101.5 Z"/></g>
<g><path style="opacity:1" fill="#060504" d="M 358.5,119.5 C 457.5,119.5 556.5,119.5 655.5,119.5C 664.839,119.334 674.173,119.5 683.5,120C 697.113,121.962 707.946,128.462 716,139.5C 716.483,140.448 716.649,141.448 716.5,142.5C 715.527,140.861 714.194,139.527 712.5,138.5C 705.284,128.218 695.284,122.551 682.5,121.5C 567.863,120.168 453.196,120.168 338.5,121.5C 335.461,122.01 332.461,122.677 329.5,123.5C 329.062,123.565 328.728,123.399 328.5,123C 331.648,121.395 334.981,120.395 338.5,120C 345.158,119.5 351.825,119.334 358.5,119.5 Z"/></g>
<g><path style="opacity:1" fill="#f2efe8" d="M 682.5,121.5 C 567.833,122.833 453.167,122.833 338.5,121.5C 453.196,120.168 567.863,120.168 682.5,121.5 Z"/></g>
<g><path style="opacity:1" fill="#020201" d="M 288.5,133.5 C 289.043,133.56 289.376,133.893 289.5,134.5C 285.485,142.378 282.985,150.712 282,159.5C 281.167,383.667 281.334,607.667 282.5,831.5C 282.806,834.385 282.473,837.052 281.5,839.5C 280.338,611.517 280.172,383.517 281,155.5C 281.943,151.504 282.776,147.504 283.5,143.5C 285.134,140.232 286.801,136.899 288.5,133.5 Z"/></g>
<g><path style="opacity:1" fill="#000000" d="M 307.5,141.5 C 304.211,147.42 302.044,153.753 301,160.5C 300.5,382.833 300.333,605.166 300.5,827.5C 299.5,793.21 299.167,757.543 299.5,720.5C 299.5,720.167 299.5,719.833 299.5,719.5C 299.5,532.5 299.5,345.5 299.5,158.5C 300.943,152.686 303.11,147.02 306,141.5C 306.69,140.262 307.19,140.262 307.5,141.5 Z"/></g>
<g><path style="opacity:1" fill="#242421" d="M 330.5,101.5 C 331.239,101.369 331.906,101.536 332.5,102C 328.757,103.136 325.09,104.47 321.5,106C 321.964,108.405 322.131,110.905 322,113.5C 323.487,112.747 323.654,111.914 322.5,111C 323.667,110.5 324.5,109.667 325,108.5C 325.333,109.167 325.667,109.833 326,110.5C 326.914,106.815 327.581,107.148 328,111.5C 328.333,111.167 328.667,110.833 329,110.5C 329.374,111.416 329.874,112.25 330.5,113C 329.45,115.503 330.45,117.003 333.5,117.5C 333.88,115.979 334.046,114.313 334,112.5C 335.353,114.434 336.853,116.267 338.5,118C 345.233,118.609 351.733,118.443 358,117.5C 358.464,118.094 358.631,118.761 358.5,119.5C 351.825,119.334 345.158,119.5 338.5,120C 334.981,120.395 331.648,121.395 328.5,123C 328.728,123.399 329.062,123.565 329.5,123.5C 320.662,127.672 313.329,133.672 307.5,141.5C 307.19,140.262 306.69,140.262 306,141.5C 303.11,147.02 300.943,152.686 299.5,158.5C 297.573,345.638 297.573,532.638 299.5,719.5C 299.5,719.833 299.5,720.167 299.5,720.5C 298.833,758.002 298.167,795.669 297.5,833.5C 296.289,832.726 296.289,831.893 297.5,831C 295.109,830.309 295.109,829.309 297.5,828C 297,827.5 296.5,827 296,826.5C 294.992,828.259 293.492,829.426 291.5,830C 288.135,830.561 285.135,831.061 282.5,831.5C 281.334,607.667 281.167,383.667 282,159.5C 282.985,150.712 285.485,142.378 289.5,134.5C 289.376,133.893 289.043,133.56 288.5,133.5C 298.062,117.048 312.062,106.381 330.5,101.5 Z"/></g>
<g><path style="opacity:1" fill="#2f2f2d" d="M 299.5,158.5 C 299.5,345.5 299.5,532.5 299.5,719.5C 297.573,532.638 297.573,345.638 299.5,158.5 Z"/></g>
<g><path style="opacity:1" fill="#2d2c28" d="M 707.5,106.5 C 718.761,112.429 727.761,120.762 734.5,131.5C 739.188,139.897 741.855,148.897 742.5,158.5C 742.667,384.5 742.5,610.5 742,836.5C 741.802,838.382 741.302,840.048 740.5,841.5C 739.019,843.835 737.519,846.835 736,850.5C 734.181,848.464 732.347,848.297 730.5,850C 731.624,850.249 732.624,850.749 733.5,851.5C 732.147,852.685 730.98,854.019 730,855.5C 727.689,855.394 725.189,854.894 722.5,854C 721.572,852.024 720.405,850.191 719,848.5C 718.667,848.833 718.333,849.167 718,849.5C 718.203,847.063 719.037,844.729 720.5,842.5C 720.376,841.893 720.043,841.56 719.5,841.5C 719.328,840.508 719.662,839.842 720.5,839.5C 722.043,838.918 722.876,837.251 723,834.5C 723.667,608.833 723.667,383.167 723,157.5C 722.96,154.445 722.127,152.445 720.5,151.5C 718.93,148.686 717.597,145.686 716.5,142.5C 716.649,141.448 716.483,140.448 716,139.5C 707.946,128.462 697.113,121.962 683.5,120C 674.173,119.5 664.839,119.334 655.5,119.5C 660.708,118.163 666.042,117.663 671.5,118C 673.873,116.02 676.039,113.853 678,111.5C 678.865,113.225 679.531,114.892 680,116.5C 681.174,114.329 683.007,113.329 685.5,113.5C 685.5,112.5 685.5,111.5 685.5,110.5C 682.762,111.035 680.928,110.035 680,107.5C 678.981,108.687 677.814,109.687 676.5,110.5C 675.575,109.359 674.741,109.359 674,110.5C 673.64,108.579 672.806,106.912 671.5,105.5C 672.636,105.036 673.636,104.702 674.5,104.5C 679.406,104.211 683.406,103.211 686.5,101.5C 693.453,102.571 700.119,104.571 706.5,107.5C 707.107,107.376 707.44,107.043 707.5,106.5 Z"/></g>
<g><path style="opacity:1" fill="#020203" d="M 720.5,839.5 C 720.5,838.833 720.5,838.167 720.5,837.5C 720.995,835.518 721.495,833.518 722,831.5C 722.667,607.5 722.667,383.5 722,159.5C 721.433,156.832 720.933,154.166 720.5,151.5C 722.127,152.445 722.96,154.445 723,157.5C 723.667,383.167 723.667,608.833 723,834.5C 722.876,837.251 722.043,838.918 720.5,839.5 Z"/></g>
<g><path style="opacity:1" fill="#f9f0e2" d="M 338.5,121.5 C 453.167,122.833 567.833,122.833 682.5,121.5C 695.284,122.551 705.284,128.218 712.5,138.5C 716.379,144.601 718.879,151.268 720,158.5C 720.492,385.024 720.659,611.357 720.5,837.5C 720.5,838.167 720.5,838.833 720.5,839.5C 719.662,839.842 719.328,840.508 719.5,841.5C 713.235,855.951 702.568,865.285 687.5,869.5C 682.213,870.342 676.88,870.676 671.5,870.5C 672.263,869.732 673.263,869.232 674.5,869C 564.833,868.333 455.167,868.333 345.5,869C 344.944,869.383 344.611,869.883 344.5,870.5C 324.57,868.884 310.903,858.884 303.5,840.5C 302.401,836.07 301.401,831.736 300.5,827.5C 300.333,605.166 300.5,382.833 301,160.5C 302.044,153.753 304.211,147.42 307.5,141.5C 313.329,133.672 320.662,127.672 329.5,123.5C 332.461,122.677 335.461,122.01 338.5,121.5 Z"/></g>
<g><path style="opacity:1" fill="#f15e42" d="M 617.5,436.5 C 642.846,434.412 659.346,445.412 667,469.5C 669.542,494.944 658.708,511.444 634.5,519C 607.904,521.731 591.07,510.231 584,484.5C 582.613,459.573 593.78,443.573 617.5,436.5 Z"/></g>
<g><path style="opacity:1" fill="#faede4" d="M 610.5,487.5 C 613.563,489.051 616.229,491.218 618.5,494C 622.833,494.667 627.167,494.667 631.5,494C 634.387,491.931 637.054,489.764 639.5,487.5C 641.266,487.434 642.266,488.268 642.5,490C 637.605,500.121 629.605,503.454 618.5,500C 612.355,497.846 609.688,493.679 610.5,487.5 Z"/></g>
<g><path style="opacity:1" fill="#fae7dd" d="M 612.5,463.5 C 615.775,464.019 617.108,466.019 616.5,469.5C 616.918,472.271 615.918,474.271 613.5,475.5C 611.082,474.271 610.082,472.271 610.5,469.5C 610.363,467.159 611.03,465.159 612.5,463.5 Z"/></g>
<g><path style="opacity:1" fill="#fbf0e8" d="M 637.5,463.5 C 640.766,464.114 642.099,466.114 641.5,469.5C 641.918,472.271 640.918,474.271 638.5,475.5C 636.082,474.271 635.082,472.271 635.5,469.5C 635.363,467.159 636.03,465.159 637.5,463.5 Z"/></g>
<g><path style="opacity:1" fill="#dfccb5" d="M 495.5,436.5 C 520.256,435.625 536.423,446.958 544,470.5C 544.996,505.837 527.83,522.67 492.5,521C 469.096,513.381 458.263,497.215 460,472.5C 464.05,452.618 475.883,440.618 495.5,436.5 Z"/></g>
<g><path style="opacity:1" fill="#f9f0e3" d="M 494.5,443.5 C 515.369,441.894 529.202,450.894 536,470.5C 539.137,492.351 530.304,506.851 509.5,514C 488.185,516.004 474.351,506.837 468,486.5C 465.659,465.166 474.493,450.833 494.5,443.5 Z"/></g>
<g><path style="opacity:1" fill="#decbb2" d="M 485.5,489.5 C 496.505,489.333 507.505,489.5 518.5,490C 519.833,492 519.833,494 518.5,496C 507.5,496.667 496.5,496.667 485.5,496C 484.232,493.837 484.232,491.67 485.5,489.5 Z"/></g>
<g><path style="opacity:1" fill="#decbb3" d="M 510.5,464.5 C 512.262,464.357 513.929,464.691 515.5,465.5C 516.791,469.045 516.791,472.545 515.5,476C 512.975,476.896 510.808,476.396 509,474.5C 508.037,470.851 508.537,467.518 510.5,464.5 Z"/></g>
<g><path style="opacity:1" fill="#dfccb4" d="M 488.5,464.5 C 491.044,464.104 493.211,464.771 495,466.5C 496.004,469.993 495.504,473.159 493.5,476C 490.692,476.92 488.525,476.087 487,473.5C 486.207,470.259 486.707,467.259 488.5,464.5 Z"/></g>
<g><path style="opacity:1" fill="#dfccb4" d="M 375.5,436.5 C 400.198,435.247 416.365,446.247 424,469.5C 427.36,495.64 416.527,512.473 391.5,520C 365.798,522.901 348.964,512.068 341,487.5C 338.62,460.885 350.12,443.885 375.5,436.5 Z"/></g>
<g><path style="opacity:1" fill="#f9f0e3" d="M 375.5,443.5 C 404.029,443.194 417.862,457.194 417,485.5C 409.087,509.376 392.92,517.876 368.5,511C 353.145,502.794 346.312,489.961 348,472.5C 351.662,457.456 360.829,447.789 375.5,443.5 Z"/></g>
<g><path style="opacity:1" fill="#dfccb4" d="M 377.5,486.5 C 385.954,485.149 392.787,487.816 398,494.5C 398.667,495.5 398.667,496.5 398,497.5C 396.274,498.576 394.441,498.743 392.5,498C 385.833,492 379.167,492 372.5,498C 367.522,498.769 366.355,496.936 369,492.5C 371.671,490.098 374.505,488.098 377.5,486.5 Z"/></g>
<g><path style="opacity:1" fill="#e0ceb6" d="M 391.5,463.5 C 393.467,463.261 395.301,463.594 397,464.5C 398.023,468.317 397.523,471.817 395.5,475C 393.299,475.825 391.466,475.325 390,473.5C 389.037,469.851 389.537,466.518 391.5,463.5 Z"/></g>
<g><path style="opacity:1" fill="#e0cdb6" d="M 370.5,461.5 C 374.824,461.158 376.824,463.158 376.5,467.5C 376.541,473.674 374.041,475.34 369,472.5C 368.013,468.525 368.513,464.859 370.5,461.5 Z"/></g>
<g><path style="opacity:1" fill="#e0cdb5" d="M 344.5,323.5 C 365.169,323.333 385.836,323.5 406.5,324C 408.519,324.45 410.352,325.283 412,326.5C 413.644,348.078 413.977,369.745 413,391.5C 411.833,392.667 410.667,393.833 409.5,395C 387.5,395.667 365.5,395.667 343.5,395C 343,394.5 342.5,394 342,393.5C 340.356,371.922 340.023,350.255 341,328.5C 341.997,326.677 343.164,325.01 344.5,323.5 Z"/></g>
<g><path style="opacity:1" fill="#e0ceb7" d="M 446.5,367.5 C 496.168,367.333 545.834,367.5 595.5,368C 600.738,372.184 600.738,376.184 595.5,380C 545.5,380.667 495.5,380.667 445.5,380C 441.379,375.537 441.713,371.37 446.5,367.5 Z"/></g>
<g><path style="opacity:1" fill="#e0ceb7" d="M 446.5,335.5 C 523.834,335.333 601.167,335.5 678.5,336C 683.833,340 683.833,344 678.5,348C 601.167,348.667 523.833,348.667 446.5,348C 442.787,346.309 441.621,343.475 443,339.5C 444.376,338.295 445.542,336.962 446.5,335.5 Z"/></g>
<g><path style="opacity:1" fill="#f9f0e4" d="M 348.5,331.5 C 367.833,331.5 387.167,331.5 406.5,331.5C 406.5,350.5 406.5,369.5 406.5,388.5C 387.167,388.5 367.833,388.5 348.5,388.5C 348.5,369.5 348.5,350.5 348.5,331.5 Z"/></g>
<g><path style="opacity:1" fill="#f1583c" d="M 392.5,345.5 C 397.068,345.083 398.568,347.083 397,351.5C 389.531,359.97 381.698,368.137 373.5,376C 372.5,376.667 371.5,376.667 370.5,376C 366.701,371.199 362.534,366.699 358,362.5C 356.684,358.872 357.851,356.539 361.5,355.5C 364.806,359.473 368.473,363.14 372.5,366.5C 379.891,360.111 386.557,353.111 392.5,345.5 Z"/></g>
<g><path style="opacity:1" fill="#f15b3f" d="M 583.5,226.5 C 586.448,226.223 589.281,226.556 592,227.5C 594.407,235.303 597.074,242.969 600,250.5C 602.575,242.361 605.409,234.361 608.5,226.5C 611.167,226.5 613.833,226.5 616.5,226.5C 615.512,231.965 614.012,237.298 612,242.5C 607.723,252.722 603.723,263.056 600,273.5C 596.87,276.122 593.703,276.122 590.5,273.5C 593.443,268.517 594.609,263.184 594,257.5C 589.399,247.529 585.899,237.196 583.5,226.5 Z"/></g>
<g><path style="opacity:1" fill="#f15b3f" d="M 513.5,226.5 C 516.685,226.02 519.519,226.686 522,228.5C 524.084,235.757 526.751,242.757 530,249.5C 532.667,242.167 535.333,234.833 538,227.5C 540.381,226.565 542.881,226.232 545.5,226.5C 541.978,237.899 538.145,249.232 534,260.5C 528.454,262.947 524.787,261.281 523,255.5C 519.323,245.971 516.157,236.304 513.5,226.5 Z"/></g>
<g><path style="opacity:1" fill="#f15b3f" d="M 559.5,225.5 C 574.855,224.188 581.855,231.188 580.5,246.5C 572.833,246.5 565.167,246.5 557.5,246.5C 558.392,252.952 562.059,255.452 568.5,254C 572.184,251.423 576.184,250.923 580.5,252.5C 575.59,261.062 568.256,263.896 558.5,261C 553.162,258.993 549.996,255.159 549,249.5C 546.05,238.476 549.55,230.476 559.5,225.5 Z"/></g>
<g><path style="opacity:1" fill="#f16043" d="M 497.5,261.5 C 497.663,259.143 497.497,256.81 497,254.5C 496.505,256.473 496.338,258.473 496.5,260.5C 494.533,260.739 492.699,260.406 491,259.5C 490.333,249.167 490.333,238.833 491,228.5C 493.277,227.883 495.444,227.216 497.5,226.5C 498.29,227.609 498.79,228.942 499,230.5C 501.477,226.846 504.977,225.18 509.5,225.5C 509.813,228.247 509.48,230.914 508.5,233.5C 504.448,234.043 501.282,236.043 499,239.5C 498.829,247.011 498.329,254.345 497.5,261.5 Z"/></g>
<g><path style="opacity:1" fill="#ef3214" d="M 497.5,226.5 C 495.444,227.216 493.277,227.883 491,228.5C 490.333,238.833 490.333,249.167 491,259.5C 492.699,260.406 494.533,260.739 496.5,260.5C 496.338,258.473 496.505,256.473 497,254.5C 497.497,256.81 497.663,259.143 497.5,261.5C 494.881,261.768 492.381,261.435 490,260.5C 489.333,249.5 489.333,238.5 490,227.5C 492.381,226.565 494.881,226.232 497.5,226.5 Z"/></g>
<g><path style="opacity:1" fill="#ef4729" d="M 474.5,260.5 C 474.833,255.167 475.167,255.167 475.5,260.5C 477.167,260.5 478.833,260.5 480.5,260.5C 480.5,249.5 480.5,238.5 480.5,227.5C 478.533,227.261 476.699,227.594 475,228.5C 474.667,235.5 474.333,242.5 474,249.5C 473.252,251.751 471.752,253.084 469.5,253.5C 470.836,251.99 472.003,250.323 473,248.5C 473.333,241.5 473.667,234.5 474,227.5C 476.667,226.167 479.333,226.167 482,227.5C 482.667,238.5 482.667,249.5 482,260.5C 479.395,261.814 476.895,261.814 474.5,260.5 Z"/></g>
<g><path style="opacity:1" fill="#faf1e7" d="M 561.5,232.5 C 567.941,231.54 571.607,234.207 572.5,240.5C 567.125,240.828 561.792,240.495 556.5,239.5C 557.804,236.87 559.47,234.537 561.5,232.5 Z"/></g>
<g><path style="opacity:1" fill="#f15f43" d="M 469.5,253.5 C 471.752,253.084 473.252,251.751 474,249.5C 474.333,242.5 474.667,235.5 475,228.5C 476.699,227.594 478.533,227.261 480.5,227.5C 480.5,238.5 480.5,249.5 480.5,260.5C 478.833,260.5 477.167,260.5 475.5,260.5C 475.167,255.167 474.833,255.167 474.5,260.5C 473.732,259.737 473.232,258.737 473,257.5C 462.798,265.514 455.131,263.514 450,251.5C 449.185,243.254 449.352,235.088 450.5,227C 453.099,226.231 455.599,226.398 458,227.5C 458.103,235.244 458.769,242.911 460,250.5C 462.546,253.186 465.713,254.186 469.5,253.5 Z"/></g>
<g><path style="opacity:1" fill="#f15d41" d="M 419.5,212.5 C 425.678,212.107 431.678,212.94 437.5,215C 441.227,217.955 443.227,221.788 443.5,226.5C 440.813,226.664 438.146,226.497 435.5,226C 434.5,223.667 432.833,222 430.5,221C 426.1,220.022 421.933,220.522 418,222.5C 416.877,225.956 417.71,228.79 420.5,231C 425.363,232.799 430.363,234.133 435.5,235C 445.192,240.508 447.025,248.008 441,257.5C 429.467,265.07 418.8,264.07 409,254.5C 407.872,252.655 407.372,250.655 407.5,248.5C 412.538,247.448 416.538,248.948 419.5,253C 424.98,255.279 430.147,254.779 435,251.5C 436.123,248.044 435.29,245.21 432.5,243C 424.921,242.356 417.921,240.023 411.5,236C 404.896,224.978 407.563,217.144 419.5,212.5 Z"/></g>
<g><path style="opacity:1" fill="#e0cdb6" d="M 350.5,565.5 C 459.167,565.333 567.834,565.5 676.5,566C 678.624,567.122 680.457,568.622 682,570.5C 682.667,605.833 682.667,641.167 682,676.5C 680.833,679 679,680.833 676.5,682C 566.833,682.667 457.167,682.667 347.5,682C 345,680.833 343.167,679 342,676.5C 341.333,641.167 341.333,605.833 342,570.5C 344.398,567.892 347.231,566.225 350.5,565.5 Z"/></g>
<g><path style="opacity:1" fill="#f9f0e2" d="M 348.5,573.5 C 457.167,573.5 565.833,573.5 674.5,573.5C 674.5,607.167 674.5,640.833 674.5,674.5C 565.833,674.5 457.167,674.5 348.5,674.5C 348.5,640.833 348.5,607.167 348.5,573.5 Z"/></g>
<g><path style="opacity:1" fill="#dfcdb5" d="M 377.5,602.5 C 419.168,602.333 460.835,602.5 502.5,603C 506.5,606.667 506.5,610.333 502.5,614C 460.167,614.667 417.833,614.667 375.5,614C 371.42,609.464 372.087,605.631 377.5,602.5 Z"/></g>
<g><path style="opacity:1" fill="#faf6ec" d="M 283.5,143.5 C 282.776,147.504 281.943,151.504 281,155.5C 280.172,383.517 280.338,611.517 281.5,839.5C 287.166,862.856 301.166,878.856 323.5,887.5C 325.5,888.167 327.5,888.833 329.5,889.5C 329.265,890.097 328.765,890.43 328,890.5C 302.6,882.941 286.766,866.607 280.5,841.5C 279.746,838.223 279.246,834.89 279,831.5C 278.333,607.167 278.333,382.833 279,158.5C 279.333,155.833 279.667,153.167 280,150.5C 280.616,147.182 281.782,144.848 283.5,143.5 Z"/></g>
<g><path style="opacity:1" fill="#fdfdfa" d="M 742.5,158.5 C 741.855,148.897 739.188,139.897 734.5,131.5C 734.435,131.062 734.601,130.728 735,130.5C 739.374,137.951 742.374,145.951 744,154.5C 744.667,380.5 744.667,606.5 744,832.5C 743.833,607.666 743.333,383 742.5,158.5 Z"/></g>
<g><path style="opacity:1" fill="#faf3ec" d="M 656.5,717.5 C 626.167,717.5 595.833,717.5 565.5,717.5C 498.83,717.355 432.163,717.688 365.5,718.5C 363.5,718.833 361.5,719.167 359.5,719.5C 360.082,717.957 361.749,717.124 364.5,717C 412.33,716.207 460.164,715.707 508,715.5C 559.532,715.599 609.032,716.266 656.5,717.5 Z"/></g>
<g><path style="opacity:1" fill="#ef4d31" d="M 565.5,717.5 C 565.389,718.117 565.056,718.617 564.5,719C 497.999,719.832 431.665,719.665 365.5,718.5C 432.163,717.688 498.83,717.355 565.5,717.5 Z"/></g>
<g><path style="opacity:1" fill="#f8f5ef" d="M 712.5,138.5 C 714.194,139.527 715.527,140.861 716.5,142.5C 717.597,145.686 718.93,148.686 720.5,151.5C 720.933,154.166 721.433,156.832 722,159.5C 722.667,383.5 722.667,607.5 722,831.5C 721.495,833.518 720.995,835.518 720.5,837.5C 720.659,611.357 720.492,385.024 720,158.5C 718.879,151.268 716.379,144.601 712.5,138.5 Z"/></g>
<g><path style="opacity:1" fill="#f05f43" d="M 565.5,717.5 C 595.833,717.5 626.167,717.5 656.5,717.5C 668.23,719.128 676.397,725.461 681,736.5C 682.591,749.777 682.924,763.11 682,776.5C 678.644,788.522 670.81,795.688 658.5,798C 580.84,799.516 503.173,799.849 425.5,799C 404.116,798.955 382.783,798.288 361.5,797C 350.817,793.649 344.317,786.483 342,775.5C 341.333,763.5 341.333,751.5 342,739.5C 344.525,729.816 350.358,723.15 359.5,719.5C 361.5,719.167 363.5,718.833 365.5,718.5C 431.665,719.665 497.999,719.832 564.5,719C 565.056,718.617 565.389,718.117 565.5,717.5 Z"/></g>
<g><path style="opacity:1" fill="#faf1e8" d="M 454.5,743.5 C 459.121,742.993 463.454,743.826 467.5,746C 469.219,747.87 470.219,750.037 470.5,752.5C 468.396,752.799 466.396,752.466 464.5,751.5C 461.624,748.089 458.457,747.756 455,750.5C 454.316,751.784 454.483,752.951 455.5,754C 461.115,754.46 465.949,756.627 470,760.5C 471.654,766.693 469.487,770.86 463.5,773C 454.171,775.188 448.838,771.688 447.5,762.5C 449.288,762.215 450.955,762.548 452.5,763.5C 455.294,768.713 459.128,769.713 464,766.5C 464.781,765.056 464.614,763.723 463.5,762.5C 459.78,761.487 456.114,760.32 452.5,759C 446.859,753.036 447.526,747.869 454.5,743.5 Z"/></g>
<g><path style="opacity:1" fill="#faede3" d="M 502.5,744.5 C 502.183,747.572 502.516,750.572 503.5,753.5C 513.855,750.682 518.689,754.682 518,765.5C 517.262,768.648 515.762,771.315 513.5,773.5C 510.482,773.665 507.482,773.498 504.5,773C 504,772.5 503.5,772 503,771.5C 501.33,773.698 499.33,774.032 497,772.5C 496.5,763.506 496.334,754.506 496.5,745.5C 498.379,744.659 500.379,744.325 502.5,744.5 Z"/></g>
<g><path style="opacity:1" fill="#f15638" d="M 504.5,757.5 C 512.629,757.294 514.629,760.794 510.5,768C 502.48,768.135 500.48,764.635 504.5,757.5 Z"/></g>
<g><path style="opacity:1" fill="#f9f0e6" d="M 479.5,754.5 C 479.174,758.884 479.508,763.217 480.5,767.5C 482.644,768.953 484.477,768.62 486,766.5C 486.499,762.179 486.666,757.846 486.5,753.5C 488.379,752.659 490.379,752.325 492.5,752.5C 492.5,759.5 492.5,766.5 492.5,773.5C 490.179,773.771 488.179,773.104 486.5,771.5C 485.482,772.193 484.482,772.859 483.5,773.5C 479.406,774.295 476.239,772.962 474,769.5C 473.501,763.843 473.334,758.176 473.5,752.5C 475.886,752.259 477.886,752.925 479.5,754.5 Z"/></g>
<g><path style="opacity:1" fill="#f04b2f" d="M 486.5,753.5 C 486.666,757.846 486.499,762.179 486,766.5C 484.477,768.62 482.644,768.953 480.5,767.5C 479.508,763.217 479.174,758.884 479.5,754.5C 480.502,757.722 480.835,761.722 480.5,766.5C 484.838,766.378 485.172,766.045 481.5,765.5C 481.336,762.813 481.503,760.146 482,757.5C 483.63,758.72 484.63,760.72 485,763.5C 485.13,759.393 485.63,756.06 486.5,753.5 Z"/></g>
<g><path style="opacity:1" fill="#f9efe5" d="M 571.5,768.5 C 572.209,769.404 573.209,769.737 574.5,769.5C 574.5,770.833 574.5,772.167 574.5,773.5C 572.833,773.5 571.167,773.5 569.5,773.5C 567.248,773.084 565.748,771.751 565,769.5C 564.867,764.534 564.033,759.7 562.5,755C 563.513,752.645 564.513,750.311 565.5,748C 567.134,747.506 568.801,747.34 570.5,747.5C 570.5,749.167 570.5,750.833 570.5,752.5C 571.833,752.5 573.167,752.5 574.5,752.5C 574.5,754.167 574.5,755.833 574.5,757.5C 573.167,757.5 571.833,757.5 570.5,757.5C 570.185,761.371 570.518,765.038 571.5,768.5 Z"/></g>
<g><path style="opacity:1" fill="#f05b3f" d="M 554.5,750.5 C 559.986,752.51 561.653,750.677 559.5,745C 557.866,744.506 556.199,744.34 554.5,744.5C 556.56,743.189 558.726,743.189 561,744.5C 562.333,743.833 563.333,742.833 564,741.5C 566.522,744.326 568.522,743.993 570,740.5C 570.669,743.267 571.836,743.767 573.5,742C 573.241,740.739 572.574,739.739 571.5,739C 572.833,738.333 574.167,738.333 575.5,739C 574.007,740.156 574.174,740.99 576,741.5C 576.5,741.167 577,740.833 577.5,740.5C 576.902,739.205 576.402,737.872 576,736.5C 574.605,737.815 573.605,737.481 573,735.5C 572.309,737.891 571.309,737.891 570,735.5C 569.667,736.5 569.333,737.5 569,738.5C 568.73,735.776 568.23,733.109 567.5,730.5C 568.85,729.05 570.516,728.383 572.5,728.5C 572.247,726.173 572.914,724.173 574.5,722.5C 575.59,723.391 575.59,724.391 574.5,725.5C 576.365,726.666 578.032,726.333 579.5,724.5C 579.833,724.833 580.167,725.167 580.5,725.5C 578.093,730.062 574.426,731.895 569.5,731C 570.701,731.903 571.535,733.069 572,734.5C 573.818,732.355 575.318,732.355 576.5,734.5C 577.891,733.355 579.224,733.355 580.5,734.5C 579.91,735.799 578.91,736.632 577.5,737C 579.228,738.973 581.061,740.806 583,742.5C 582.574,749.097 583.574,749.097 586,742.5C 587.617,743.536 587.784,744.703 586.5,746C 590.357,745.924 590.357,747.258 586.5,750C 589.993,751.417 590.16,752.917 587,754.5C 586.667,753.5 586.333,752.5 586,751.5C 582.682,751.441 579.182,751.774 575.5,752.5C 575.662,754.527 575.495,756.527 575,758.5C 573.989,759.337 572.822,759.67 571.5,759.5C 571.012,762.711 571.679,765.544 573.5,768C 572.906,768.464 572.239,768.631 571.5,768.5C 570.518,765.038 570.185,761.371 570.5,757.5C 571.833,757.5 573.167,757.5 574.5,757.5C 574.5,755.833 574.5,754.167 574.5,752.5C 573.167,752.5 571.833,752.5 570.5,752.5C 570.5,750.833 570.5,749.167 570.5,747.5C 568.801,747.34 567.134,747.506 565.5,748C 564.513,750.311 563.513,752.645 562.5,755C 564.033,759.7 564.867,764.534 565,769.5C 565.748,771.751 567.248,773.084 569.5,773.5C 570.952,774.302 572.618,774.802 574.5,775C 571.289,775.798 568.289,775.298 565.5,773.5C 564.494,773.938 564.494,774.604 565.5,775.5C 567.766,776.314 570.1,776.814 572.5,777C 571,777.167 569.5,777.333 568,777.5C 564.008,776.211 559.842,775.378 555.5,775C 554.333,774.5 553.5,773.667 553,772.5C 550.544,774.321 547.711,774.988 544.5,774.5C 544.666,769.821 544.499,765.155 544,760.5C 543,759.167 542,759.167 541,760.5C 540.168,776.486 539.668,776.486 539.5,760.5C 540.932,758.353 542.765,758.02 545,759.5C 545.499,764.155 545.666,768.821 545.5,773.5C 547.167,773.5 548.833,773.5 550.5,773.5C 550.666,767.491 550.499,761.491 550,755.5C 546.205,751.545 542.372,751.545 538.5,755.5C 534.901,752.008 531.068,751.675 527,754.5C 525.246,752.75 523.079,752.083 520.5,752.5C 520.5,759.5 520.5,766.5 520.5,773.5C 522.5,773.5 524.5,773.5 526.5,773.5C 526.334,768.821 526.501,764.155 527,759.5C 528.943,758.193 530.777,758.193 532.5,759.5C 532.167,776.833 531.833,776.833 531.5,759.5C 530.5,759.5 529.5,759.5 528.5,759.5C 528.334,763.514 528.501,767.514 529,771.5C 529.556,769.405 530.056,769.238 530.5,771C 530.095,771.945 529.428,772.612 528.5,773C 529.641,773.741 529.641,774.575 528.5,775.5C 529.365,776.583 530.365,776.749 531.5,776C 530.346,775.086 530.513,774.253 532,773.5C 533.739,775.283 535.572,776.95 537.5,778.5C 535.626,782.092 534.793,785.759 535,789.5C 533.415,788.624 532.415,787.291 532,785.5C 530.334,786.34 530.167,785.84 531.5,784C 530.833,783.667 530.167,783.333 529.5,783C 530.711,782.107 530.711,781.274 529.5,780.5C 528.808,781.025 528.308,781.692 528,782.5C 526.053,781.89 524.219,781.057 522.5,780C 523.833,780 525.167,780 526.5,780C 527.517,778.951 527.684,777.784 527,776.5C 525.16,777.833 524.66,777.666 525.5,776C 523.527,775.505 521.527,775.338 519.5,775.5C 519.664,772.813 519.497,770.146 519,767.5C 518.285,770.641 516.452,772.641 513.5,773.5C 515.762,771.315 517.262,768.648 518,765.5C 518.689,754.682 513.855,750.682 503.5,753.5C 502.516,750.572 502.183,747.572 502.5,744.5C 502.56,743.957 502.893,743.624 503.5,743.5C 504.167,746.167 504.833,748.833 505.5,751.5C 512.748,749.424 517.248,752.09 519,759.5C 519.667,756.833 519.667,754.167 519,751.5C 518.683,753.301 518.016,753.634 517,752.5C 516.316,751.216 516.483,750.049 517.5,749C 515.699,748.683 515.366,748.016 516.5,747C 514.388,746.094 513.555,744.594 514,742.5C 515.53,743.636 516.863,744.636 518,745.5C 519.333,744.167 520.667,744.167 522,745.5C 523.571,744.796 525.238,743.463 527,741.5C 527.779,743.807 527.279,745.807 525.5,747.5C 526.242,748.287 527.075,748.953 528,749.5C 529.84,748.167 530.34,748.334 529.5,750C 531.134,750.494 532.801,750.66 534.5,750.5C 533.765,747.728 533.599,745.061 534,742.5C 532.748,744.001 531.748,745.668 531,747.5C 528.535,745.945 528.035,743.945 529.5,741.5C 528.263,740.719 527.263,739.719 526.5,738.5C 526.846,737.304 527.346,737.304 528,738.5C 528.531,734.594 527.365,731.261 524.5,728.5C 525.355,727.707 526.189,728.04 527,729.5C 529.375,726.409 532.208,723.909 535.5,722C 534.256,721.544 533.423,722.044 533,723.5C 532.517,722.552 532.351,721.552 532.5,720.5C 537.667,720.773 542.667,720.773 547.5,720.5C 547.67,721.822 547.337,722.989 546.5,724C 548.135,724.54 549.468,724.04 550.5,722.5C 551.382,723.76 552.382,724.926 553.5,726C 553.167,726.333 552.833,726.667 552.5,727C 558.03,730.758 557.696,731.925 551.5,730.5C 551.649,729.448 551.483,728.448 551,727.5C 549.493,728.505 548.327,729.838 547.5,731.5C 546.845,727.293 545.011,726.96 542,730.5C 541.505,732.473 541.338,734.473 541.5,736.5C 539.408,736.561 537.908,737.561 537,739.5C 536.568,736.921 537.735,735.421 540.5,735C 539.354,734.355 538.354,733.522 537.5,732.5C 535.364,735.599 535.03,738.932 536.5,742.5C 537.5,741.167 538.5,741.167 539.5,742.5C 540.298,740.922 540.798,739.256 541,737.5C 543.543,738.207 545.709,739.54 547.5,741.5C 549.931,740.194 549.597,739.194 546.5,738.5C 548.542,737.497 548.875,736.163 547.5,734.5C 548.002,733.479 548.668,733.312 549.5,734C 550.071,735.205 550.738,736.372 551.5,737.5C 551.694,735.93 551.694,734.43 551.5,733C 553.017,731.221 553.851,731.721 554,734.5C 554.333,734.167 554.667,733.833 555,733.5C 554.626,736.275 553.626,738.942 552,741.5C 551.086,740.346 550.253,740.513 549.5,742C 550.872,745.29 550.538,748.456 548.5,751.5C 550.297,753.131 551.464,755.131 552,757.5C 552.779,755.193 552.279,753.193 550.5,751.5C 550.846,750.304 551.346,750.304 552,751.5C 552.333,749.5 552.667,747.5 553,745.5C 553.198,747.382 553.698,749.048 554.5,750.5 Z"/></g>
<g><path style="opacity:1" fill="#f9f3ea" d="M 554.5,752.5 C 556.167,752.5 557.833,752.5 559.5,752.5C 559.5,759.5 559.5,766.5 559.5,773.5C 557.833,773.5 556.167,773.5 554.5,773.5C 554.5,766.5 554.5,759.5 554.5,752.5 Z"/></g>
<g><path style="opacity:1" fill="#f9f2e9" d="M 539.5,760.5 C 538.515,764.634 538.182,768.968 538.5,773.5C 536.833,773.5 535.167,773.5 533.5,773.5C 533.819,768.637 533.486,763.97 532.5,759.5C 530.777,758.193 528.943,758.193 527,759.5C 526.501,764.155 526.334,768.821 526.5,773.5C 524.5,773.5 522.5,773.5 520.5,773.5C 520.5,766.5 520.5,759.5 520.5,752.5C 523.079,752.083 525.246,752.75 527,754.5C 531.068,751.675 534.901,752.008 538.5,755.5C 542.372,751.545 546.205,751.545 550,755.5C 550.499,761.491 550.666,767.491 550.5,773.5C 548.833,773.5 547.167,773.5 545.5,773.5C 545.666,768.821 545.499,764.155 545,759.5C 542.765,758.02 540.932,758.353 539.5,760.5 Z"/></g>
<g><path style="opacity:1" fill="#f9e4d9" d="M 554.5,744.5 C 556.199,744.34 557.866,744.506 559.5,745C 561.653,750.677 559.986,752.51 554.5,750.5C 554.5,748.5 554.5,746.5 554.5,744.5 Z"/></g>
<g><path style="opacity:1" fill="#ef4a2d" d="M 496.5,745.5 C 496.334,754.506 496.5,763.506 497,772.5C 499.33,774.032 501.33,773.698 503,771.5C 503.5,772 504,772.5 504.5,773C 507.482,773.498 510.482,773.665 513.5,773.5C 512.223,774.898 510.557,775.564 508.5,775.5C 502.675,773.957 497.341,774.957 492.5,778.5C 491.494,778.062 491.494,777.396 492.5,776.5C 490.516,775.294 488.516,775.294 486.5,776.5C 486.089,775.738 485.923,774.738 486,773.5C 485.023,774.774 484.189,774.774 483.5,773.5C 484.482,772.859 485.482,772.193 486.5,771.5C 488.179,773.104 490.179,773.771 492.5,773.5C 493.328,767.013 493.828,760.346 494,753.5C 494.333,760.167 494.667,766.833 495,773.5C 495.155,763.421 495.655,754.087 496.5,745.5 Z"/></g>
<g><path style="opacity:1" fill="#282824" d="M 299.5,720.5 C 299.167,757.543 299.5,793.21 300.5,827.5C 301.401,831.736 302.401,836.07 303.5,840.5C 302.903,840.735 302.57,841.235 302.5,842C 310.192,860.009 323.859,870.009 343.5,872C 455.5,872.667 567.5,872.667 679.5,872C 682.914,871.703 686.247,871.036 689.5,870C 688.906,869.536 688.239,869.369 687.5,869.5C 702.568,865.285 713.235,855.951 719.5,841.5C 720.043,841.56 720.376,841.893 720.5,842.5C 719.037,844.729 718.203,847.063 718,849.5C 718.333,849.167 718.667,848.833 719,848.5C 720.405,850.191 721.572,852.024 722.5,854C 725.189,854.894 727.689,855.394 730,855.5C 730.98,854.019 732.147,852.685 733.5,851.5C 732.624,850.749 731.624,850.249 730.5,850C 732.347,848.297 734.181,848.464 736,850.5C 737.519,846.835 739.019,843.835 740.5,841.5C 736.121,860.242 725.455,874.242 708.5,883.5C 708.44,882.957 708.107,882.624 707.5,882.5C 701.756,885.359 695.756,887.526 689.5,889C 571.167,889.667 452.833,889.667 334.5,889C 331.233,888.547 328.066,887.713 325,886.5C 324.235,886.57 323.735,886.903 323.5,887.5C 301.166,878.856 287.166,862.856 281.5,839.5C 282.473,837.052 282.806,834.385 282.5,831.5C 285.135,831.061 288.135,830.561 291.5,830C 293.492,829.426 294.992,828.259 296,826.5C 296.5,827 297,827.5 297.5,828C 295.109,829.309 295.109,830.309 297.5,831C 296.289,831.893 296.289,832.726 297.5,833.5C 298.167,795.669 298.833,758.002 299.5,720.5 Z"/></g>
<g><path style="opacity:1" fill="#0f0f0d" d="M 303.5,840.5 C 310.903,858.884 324.57,868.884 344.5,870.5C 453.5,870.5 562.5,870.5 671.5,870.5C 676.88,870.676 682.213,870.342 687.5,869.5C 688.239,869.369 688.906,869.536 689.5,870C 686.247,871.036 682.914,871.703 679.5,872C 567.5,872.667 455.5,872.667 343.5,872C 323.859,870.009 310.192,860.009 302.5,842C 302.57,841.235 302.903,840.735 303.5,840.5 Z"/></g>
<g><path style="opacity:1" fill="#fdfbf5" d="M 671.5,870.5 C 562.5,870.5 453.5,870.5 344.5,870.5C 344.611,869.883 344.944,869.383 345.5,869C 455.167,868.333 564.833,868.333 674.5,869C 673.263,869.232 672.263,869.732 671.5,870.5 Z"/></g>
<g><path style="opacity:1" fill="#11110d" d="M 708.5,883.5 C 701.026,886.99 693.359,889.657 685.5,891.5C 567.805,891.828 450.138,891.494 332.5,890.5C 331.791,889.596 330.791,889.263 329.5,889.5C 327.5,888.833 325.5,888.167 323.5,887.5C 323.735,886.903 324.235,886.57 325,886.5C 328.066,887.713 331.233,888.547 334.5,889C 452.833,889.667 571.167,889.667 689.5,889C 695.756,887.526 701.756,885.359 707.5,882.5C 708.107,882.624 708.44,882.957 708.5,883.5 Z"/></g>
<g><path style="opacity:1" fill="#fbfbf9" d="M 332.5,890.5 C 450.138,891.494 567.805,891.828 685.5,891.5C 569.54,892.665 452.207,892.831 333.5,892C 332.5,891.667 331.5,891.333 330.5,891C 331.094,890.536 331.761,890.369 332.5,890.5 Z"/></g>
<g><path style="opacity:1" fill="#e1cfb9" d="M 461.5,928.5 C 521.873,927.774 582.207,928.941 642.5,932C 663.238,933.294 683.905,935.294 704.5,938C 709.817,939.321 715.151,940.654 720.5,942C 723.73,943.724 724.064,945.724 721.5,948C 710.12,951.627 698.454,953.961 686.5,955C 658.558,957.83 630.558,959.83 602.5,961C 523.45,963.693 444.45,962.693 365.5,958C 349.47,956.663 333.47,954.996 317.5,953C 312.087,951.98 306.754,950.647 301.5,949C 298.353,944.952 299.353,942.285 304.5,941C 324.354,937.376 344.354,934.709 364.5,933C 396.986,931.325 429.319,929.825 461.5,928.5 Z"/></g>
</svg>
