<?xml version="1.0" encoding="UTF-8"?>
<!DOCTYPE svg PUBLIC "-//W3C//DTD SVG 1.1//EN" "http://www.w3.org/Graphics/SVG/1.1/DTD/svg11.dtd">
<svg xmlns="http://www.w3.org/2000/svg" version="1.1" width="1024px" height="1024px" style="shape-rendering:geometricPrecision; text-rendering:geometricPrecision; image-rendering:optimizeQuality; fill-rule:evenodd; clip-rule:evenodd" xmlns:xlink="http://www.w3.org/1999/xlink">
<g><path style="opacity:1" fill="#faefdd" d="M -0.5,-0.5 C 340.833,-0.5 682.167,-0.5 1023.5,-0.5C 1023.5,340.833 1023.5,682.167 1023.5,1023.5C 904.167,1023.5 784.833,1023.5 665.5,1023.5C 665.5,1023.17 665.5,1022.83 665.5,1022.5C 665.5,965.167 665.5,907.833 665.5,850.5C 665.5,850.167 665.5,849.833 665.5,849.5C 688.812,848.363 712.145,847.697 735.5,847.5C 738.85,847.665 742.183,847.498 745.5,847C 748.229,846.434 750.229,844.934 751.5,842.5C 752.79,841.942 753.623,840.942 754,839.5C 754.5,814.836 754.667,790.169 754.5,765.5C 754.5,759.833 754.5,754.167 754.5,748.5C 754.667,734.829 754.5,721.163 754,707.5C 752.974,703.278 750.807,699.778 747.5,697C 720.255,695.517 692.922,695.017 665.5,695.5C 665.5,678.5 665.5,661.5 665.5,644.5C 664.962,642.883 664.629,641.216 664.5,639.5C 672.465,636.228 674.632,630.561 671,622.5C 669.622,620.787 667.955,619.453 666,618.5C 665.5,583.835 665.333,549.168 665.5,514.5C 669.463,513.87 671.796,511.537 672.5,507.5C 762.189,517.586 851.856,527.919 941.5,538.5C 947.699,537.895 953.366,535.895 958.5,532.5C 972.596,520.575 986.263,508.075 999.5,495C 997.753,490.469 996.92,485.635 997,480.5C 995.539,479.117 994.706,479.451 994.5,481.5C 993.517,485.298 993.183,489.298 993.5,493.5C 992.5,493.5 991.5,493.5 990.5,493.5C 990.827,488.786 990.493,484.12 989.5,479.5C 988.914,479.709 988.414,480.043 988,480.5C 987.501,484.821 987.334,489.154 987.5,493.5C 986.167,493.5 984.833,493.5 983.5,493.5C 983.5,487.167 983.5,480.833 983.5,474.5C 985.451,474.227 986.951,474.893 988,476.5C 990.276,473.936 992.276,474.27 994,477.5C 995.396,475.473 997.062,475.14 999,476.5C 1000.08,482.088 1000.91,487.755 1001.5,493.5C 1003.86,490.978 1006.02,488.312 1008,485.5C 1008.67,482.833 1008.67,480.167 1008,477.5C 990.958,458.127 974.291,438.46 958,418.5C 956.062,415.894 953.562,414.061 950.5,413C 857.549,400.078 764.549,387.578 671.5,375.5C 671.167,375.5 670.833,375.5 670.5,375.5C 669.081,374.549 667.415,374.216 665.5,374.5C 665.334,367.159 665.5,359.826 666,352.5C 675.529,348.487 677.363,342.32 671.5,334C 669.783,332.441 667.783,331.608 665.5,331.5C 665.5,317.5 665.5,303.5 665.5,289.5C 665.5,289.167 665.5,288.833 665.5,288.5C 696.168,288.667 726.835,288.5 757.5,288C 768.318,285.852 772.818,279.352 771,268.5C 730.366,195.187 689.7,121.853 649,48.5C 641.453,39.2621 633.786,39.2621 626,48.5C 586,119.167 546,189.833 506,260.5C 499.384,275.102 503.884,284.269 519.5,288C 549.498,288.5 579.498,288.667 609.5,288.5C 609.5,288.833 609.5,289.167 609.5,289.5C 609.5,303.5 609.5,317.5 609.5,331.5C 603.595,332.462 600.595,335.962 600.5,342C 600.774,347.778 603.774,351.278 609.5,352.5C 609.5,355.5 609.5,358.5 609.5,361.5C 610.153,406.385 609.487,451.052 607.5,495.5C 606.5,497.167 605.167,498.5 603.5,499.5C 593.408,500.155 583.241,500.488 573,500.5C 423.837,497.557 274.67,494.89 125.5,492.5C 120.319,492.291 115.319,492.957 110.5,494.5C 86.9,515.931 63.7333,537.931 41,560.5C 41.0988,564.372 42.5988,567.705 45.5,570.5C 64.7345,589.57 84.0678,608.403 103.5,627C 105.67,628.586 108.004,629.92 110.5,631C 151.841,630.759 193.174,629.926 234.5,628.5C 359.529,624.779 484.529,621.112 609.5,617.5C 602.346,621.156 600.179,626.823 603,634.5C 604.397,636.07 605.897,637.404 607.5,638.5C 607.062,638.435 606.728,638.601 606.5,639C 607.894,639.956 608.561,641.289 608.5,643C 607.338,769.483 607.171,895.983 608,1022.5C 608.168,995.997 608.668,969.663 609.5,943.5C 609.5,970.167 609.5,996.833 609.5,1023.5C 406.167,1023.5 202.833,1023.5 -0.5,1023.5C -0.5,682.167 -0.5,340.833 -0.5,-0.5 Z"/></g>
<g><path style="opacity:1" fill="#fcbc2c" d="M 665.5,288.5 C 646.833,288.5 628.167,288.5 609.5,288.5C 579.498,288.667 549.498,288.5 519.5,288C 503.884,284.269 499.384,275.102 506,260.5C 546,189.833 586,119.167 626,48.5C 633.786,39.2621 641.453,39.2621 649,48.5C 689.7,121.853 730.366,195.187 771,268.5C 772.818,279.352 768.318,285.852 757.5,288C 726.835,288.5 696.168,288.667 665.5,288.5 Z"/></g>
<g><path style="opacity:1" fill="#2a2c29" d="M 639.5,169.5 C 638.671,168.668 637.838,169.001 637,170.5C 635.57,168.433 634.403,168.933 633.5,172C 633.645,172.772 633.978,173.439 634.5,174C 632.974,175.887 630.974,176.887 628.5,177C 627.809,178.067 627.309,179.234 627,180.5C 625.082,181.542 623.249,182.708 621.5,184C 619.433,184.536 617.599,184.036 616,182.5C 613.645,185.628 614.145,186.795 617.5,186C 616.343,187.621 615.51,189.455 615,191.5C 613.757,189.167 612.091,188.5 610,189.5C 609.683,187.699 609.016,187.366 608,188.5C 606.491,186.081 604.325,185.081 601.5,185.5C 601.007,183.194 600.674,180.861 600.5,178.5C 601.242,176.574 602.242,174.741 603.5,173C 610.337,168.747 617.337,164.747 624.5,161C 628.663,158.179 630.163,154.345 629,149.5C 620.981,140.037 619.481,129.704 624.5,118.5C 627.788,119.538 628.121,118.872 625.5,116.5C 628.426,110.74 632.593,106.073 638,102.5C 638.333,100.833 638.667,99.1667 639,97.5C 640.333,96.1667 641.667,96.1667 643,97.5C 643.192,99.5767 643.692,101.577 644.5,103.5C 655.986,114.118 659.152,126.784 654,141.5C 652.431,145.072 650.098,148.072 647,150.5C 645.849,157.509 643.349,163.843 639.5,169.5 Z"/></g>
<g><path style="opacity:1" fill="#e2d43e" d="M 637.5,125.5 C 639.527,125.338 641.527,125.505 643.5,126C 641.782,126.346 640.115,126.846 638.5,127.5C 637.702,127.043 637.369,126.376 637.5,125.5 Z"/></g>
<g><path style="opacity:1" fill="#212129" d="M 639.5,169.5 C 637.408,172.681 635.075,175.681 632.5,178.5C 631.448,178.351 630.448,178.517 629.5,179C 629.833,179.333 630.167,179.667 630.5,180C 627.073,181.796 623.906,183.963 621,186.5C 620.289,188.367 620.789,189.867 622.5,191C 635.458,192.353 648.458,192.853 661.5,192.5C 648.628,193.823 635.628,193.823 622.5,192.5C 621.304,192.846 621.304,193.346 622.5,194C 624.433,194.251 626.266,194.751 628,195.5C 628.667,196.5 628.667,197.5 628,198.5C 625.609,200.526 623.443,200.526 621.5,198.5C 621.167,198.833 620.833,199.167 620.5,199.5C 623.923,202.031 624.257,204.865 621.5,208C 618.86,208.839 616.527,208.339 614.5,206.5C 612.634,207.563 612.134,206.896 613,204.5C 613.333,204.833 613.667,205.167 614,205.5C 614.333,204.5 614.667,203.5 615,202.5C 615.232,203.737 615.732,204.737 616.5,205.5C 618.777,208.205 620.777,207.872 622.5,204.5C 621.579,202.244 619.912,201.244 617.5,201.5C 617.062,201.565 616.728,201.399 616.5,201C 619.406,199.685 620.573,197.518 620,194.5C 618.605,195.815 617.605,195.481 617,193.5C 616.289,195.367 616.789,196.867 618.5,198C 618.167,198.167 617.833,198.333 617.5,198.5C 615.744,197.593 613.911,197.593 612,198.5C 610.624,198.316 609.791,197.649 609.5,196.5C 608.732,195.737 608.232,194.737 608,193.5C 607.517,194.448 607.351,195.448 607.5,196.5C 605.248,197.333 603.081,197.333 601,196.5C 600.383,195.551 600.549,194.718 601.5,194C 602.833,193.667 604.167,193.333 605.5,193C 604.833,192.667 604.167,192.333 603.5,192C 604.833,191.333 604.833,190.667 603.5,190C 607.338,190.42 607.504,189.253 604,186.5C 601.443,187.646 600.11,186.646 600,183.5C 597.033,188.597 596.7,193.93 599,199.5C 599.561,200.022 600.228,200.355 601,200.5C 604.226,197.599 606.726,198.099 608.5,202C 606.579,205.148 604.413,205.314 602,202.5C 601.517,203.448 601.351,204.448 601.5,205.5C 599.684,203.882 598.351,201.882 597.5,199.5C 596.504,194.537 596.337,189.537 597,184.5C 597.716,182.121 598.883,180.121 600.5,178.5C 600.674,180.861 601.007,183.194 601.5,185.5C 604.325,185.081 606.491,186.081 608,188.5C 609.016,187.366 609.683,187.699 610,189.5C 612.091,188.5 613.757,189.167 615,191.5C 615.51,189.455 616.343,187.621 617.5,186C 614.145,186.795 613.645,185.628 616,182.5C 617.599,184.036 619.433,184.536 621.5,184C 623.249,182.708 625.082,181.542 627,180.5C 627.309,179.234 627.809,178.067 628.5,177C 630.974,176.887 632.974,175.887 634.5,174C 633.978,173.439 633.645,172.772 633.5,172C 634.403,168.933 635.57,168.433 637,170.5C 637.838,169.001 638.671,168.668 639.5,169.5 Z"/></g>
<g><path style="opacity:1" fill="#f4d530" d="M 632.5,178.5 C 631.972,179.721 631.305,180.887 630.5,182C 627.751,183.123 625.251,184.623 623,186.5C 622.316,187.784 622.483,188.951 623.5,190C 640.182,190.314 656.848,190.981 673.5,192C 689.537,197.909 695.037,209.075 690,225.5C 689.623,226.942 688.79,227.942 687.5,228.5C 687.833,227.167 688.167,225.833 688.5,224.5C 689.338,224.158 689.672,223.492 689.5,222.5C 692.729,210.129 688.729,200.962 677.5,195C 674.274,193.801 670.941,193.301 667.5,193.5C 665.735,192.539 663.735,192.205 661.5,192.5C 648.458,192.853 635.458,192.353 622.5,191C 620.789,189.867 620.289,188.367 621,186.5C 623.906,183.963 627.073,181.796 630.5,180C 630.167,179.667 629.833,179.333 629.5,179C 630.448,178.517 631.448,178.351 632.5,178.5 Z"/></g>
<g><path style="opacity:1" fill="#2e302a" d="M 609.5,196.5 C 609.791,197.649 610.624,198.316 612,198.5C 613.911,197.593 615.744,197.593 617.5,198.5C 617.833,198.333 618.167,198.167 618.5,198C 616.789,196.867 616.289,195.367 617,193.5C 617.605,195.481 618.605,195.815 620,194.5C 620.573,197.518 619.406,199.685 616.5,201C 616.728,201.399 617.062,201.565 617.5,201.5C 616.766,202.708 616.433,204.041 616.5,205.5C 615.732,204.737 615.232,203.737 615,202.5C 614.667,203.5 614.333,204.5 614,205.5C 613.667,205.167 613.333,204.833 613,204.5C 612.134,206.896 612.634,207.563 614.5,206.5C 616.527,208.339 618.86,208.839 621.5,208C 624.257,204.865 623.923,202.031 620.5,199.5C 620.833,199.167 621.167,198.833 621.5,198.5C 623.443,200.526 625.609,200.526 628,198.5C 628.667,197.5 628.667,196.5 628,195.5C 626.266,194.751 624.433,194.251 622.5,194C 621.304,193.346 621.304,192.846 622.5,192.5C 635.628,193.823 648.628,193.823 661.5,192.5C 663.735,192.205 665.735,192.539 667.5,193.5C 665.801,193.34 664.134,193.506 662.5,194C 667.251,194.189 671.917,194.855 676.5,196C 677.939,196.991 678.939,198.324 679.5,200C 680.449,200.617 681.282,200.451 682,199.5C 688.069,206.146 690.569,213.812 689.5,222.5C 689.672,223.492 689.338,224.158 688.5,224.5C 688.19,223.262 687.69,223.262 687,224.5C 686.349,222.765 686.515,221.098 687.5,219.5C 686.397,219.002 685.397,218.669 684.5,218.5C 685.5,217.833 686.5,217.167 687.5,216.5C 686.289,215.28 686.289,214.113 687.5,213C 685.321,210.489 682.821,208.322 680,206.5C 679.421,202.614 678.588,202.614 677.5,206.5C 673.542,206.852 670.375,208.518 668,211.5C 667.493,210.004 667.993,208.837 669.5,208C 666.557,206.541 666.224,204.874 668.5,203C 668.012,200.824 667.012,198.991 665.5,197.5C 664.738,198.628 664.071,199.795 663.5,201C 664.738,200.923 665.738,201.089 666.5,201.5C 664.187,202.273 661.854,202.94 659.5,203.5C 658.808,202.975 658.308,202.308 658,201.5C 657.725,204.058 658.225,206.392 659.5,208.5C 660.492,208.328 661.158,208.662 661.5,209.5C 654.49,210.491 647.157,210.658 639.5,210C 641.282,207.757 641.782,205.257 641,202.5C 639.387,203.622 638.22,203.122 637.5,201C 635.288,200.211 633.288,200.378 631.5,201.5C 631.5,202.833 631.5,204.167 631.5,205.5C 630.732,204.737 630.232,203.737 630,202.5C 629.175,204.701 629.675,206.534 631.5,208C 633.9,208.186 636.234,208.686 638.5,209.5C 629.184,210.665 619.851,210.832 610.5,210C 607.168,209.001 604.168,207.501 601.5,205.5C 601.351,204.448 601.517,203.448 602,202.5C 604.413,205.314 606.579,205.148 608.5,202C 606.726,198.099 604.226,197.599 601,200.5C 600.228,200.355 599.561,200.022 599,199.5C 596.7,193.93 597.033,188.597 600,183.5C 600.11,186.646 601.443,187.646 604,186.5C 607.504,189.253 607.338,190.42 603.5,190C 604.833,190.667 604.833,191.333 603.5,192C 604.167,192.333 604.833,192.667 605.5,193C 604.167,193.333 602.833,193.667 601.5,194C 600.549,194.718 600.383,195.551 601,196.5C 603.081,197.333 605.248,197.333 607.5,196.5C 607.351,195.448 607.517,194.448 608,193.5C 608.232,194.737 608.732,195.737 609.5,196.5 Z"/></g>
<g><path style="opacity:1" fill="#faf03c" d="M 653.5,197.5 C 654.675,197.281 655.675,197.614 656.5,198.5C 654.948,199.798 653.948,199.465 653.5,197.5 Z"/></g>
<g><path style="opacity:1" fill="#f0dc36" d="M 638.5,195.5 C 639.5,195.5 640.5,195.5 641.5,195.5C 641.5,196.5 641.5,197.5 641.5,198.5C 640.5,198.5 639.5,198.5 638.5,198.5C 638.5,197.5 638.5,196.5 638.5,195.5 Z"/></g>
<g><path style="opacity:1" fill="#f5dd31" d="M 623.5,195.5 C 628.796,196.688 628.796,197.522 623.5,198C 622.402,197.23 622.402,196.397 623.5,195.5 Z"/></g>
<g><path style="opacity:1" fill="#ecd033" d="M 609.5,196.5 C 609.408,192.929 611.074,191.762 614.5,193C 615.582,195.306 614.748,196.806 612,197.5C 611.098,197.257 610.265,196.923 609.5,196.5 Z"/></g>
<g><path style="opacity:1" fill="#f6ea36" d="M 603.5,200.5 C 604.5,200.5 605.5,200.5 606.5,200.5C 605.754,204.31 604.754,204.31 603.5,200.5 Z"/></g>
<g><path style="opacity:1" fill="#f6d42f" d="M 631.5,201.5 C 636.123,200.408 637.956,202.075 637,206.5C 634.765,207.98 632.932,207.647 631.5,205.5C 631.5,204.167 631.5,202.833 631.5,201.5 Z"/></g>
<g><path style="opacity:1" fill="#1b1928" d="M 667.5,193.5 C 670.941,193.301 674.274,193.801 677.5,195C 688.729,200.962 692.729,210.129 689.5,222.5C 690.569,213.812 688.069,206.146 682,199.5C 681.282,200.451 680.449,200.617 679.5,200C 678.939,198.324 677.939,196.991 676.5,196C 671.917,194.855 667.251,194.189 662.5,194C 664.134,193.506 665.801,193.34 667.5,193.5 Z"/></g>
<g><path style="opacity:1" fill="#efcf31" d="M 617.5,201.5 C 619.912,201.244 621.579,202.244 622.5,204.5C 620.777,207.872 618.777,208.205 616.5,205.5C 616.433,204.041 616.766,202.708 617.5,201.5 Z"/></g>
<g><path style="opacity:1" fill="#f8b72f" d="M 663.5,212.5 C 664.167,212.5 664.5,212.833 664.5,213.5C 664.953,214.458 665.619,215.292 666.5,216C 665.833,216.333 665.167,216.667 664.5,217C 644.17,217.017 623.836,216.683 603.5,216C 614.412,214.349 625.412,213.515 636.5,213.5C 645.409,213.507 654.242,213.84 663,214.5C 663.464,213.906 663.631,213.239 663.5,212.5 Z"/></g>
<g><path style="opacity:1" fill="#f7d631" d="M 597.5,199.5 C 598.351,201.882 599.684,203.882 601.5,205.5C 602.673,207.504 604.34,209.004 606.5,210C 610.084,211.073 613.75,211.74 617.5,212C 632.83,212.5 648.163,212.667 663.5,212.5C 663.631,213.239 663.464,213.906 663,214.5C 654.242,213.84 645.409,213.507 636.5,213.5C 625.412,213.515 614.412,214.349 603.5,216C 623.836,216.683 644.17,217.017 664.5,217C 665.167,216.667 665.833,216.333 666.5,216C 665.619,215.292 664.953,214.458 664.5,213.5C 667.389,213.999 668.056,215.499 666.5,218C 641.167,218.333 615.833,218.667 590.5,219C 575.55,223.72 569.383,233.886 572,249.5C 574.119,258.785 579.619,265.118 588.5,268.5C 586.911,269.621 585.244,269.454 583.5,268C 570.66,259.147 566.827,247.313 572,232.5C 574.106,226.728 577.939,222.562 583.5,220C 591.083,218.249 598.417,215.916 605.5,213C 604.07,210.517 601.903,208.017 599,205.5C 598.167,203.833 597.333,202.167 596.5,200.5C 596.624,199.893 596.957,199.56 597.5,199.5 Z"/></g>
<g><path style="opacity:1" fill="#222329" d="M 688.5,224.5 C 688.167,225.833 687.833,227.167 687.5,228.5C 684.701,231.637 681.368,233.971 677.5,235.5C 676.041,235.433 674.708,235.766 673.5,236.5C 673.607,234.621 673.107,234.288 672,235.5C 671.167,234 670,232.833 668.5,232C 670.135,231.46 671.468,231.96 672.5,233.5C 680.468,230.179 680.468,227.512 672.5,225.5C 676.485,225.371 677.818,223.537 676.5,220C 675.207,219.51 673.873,219.343 672.5,219.5C 673.952,218.698 675.618,218.198 677.5,218C 675.642,216.018 673.309,214.852 670.5,214.5C 669.833,215.833 669.167,217.167 668.5,218.5C 665.026,220.062 661.36,220.895 657.5,221C 658.451,221.718 658.617,222.551 658,223.5C 657,222.167 656,222.167 655,223.5C 654.517,222.552 654.351,221.552 654.5,220.5C 634.174,219.551 613.841,219.384 593.5,220C 589.074,220.685 585.741,222.351 583.5,225C 584.993,226.368 586.493,226.535 588,225.5C 588.333,226.167 588.667,226.833 589,227.5C 589.333,226.167 589.667,224.833 590,223.5C 590.772,224.849 591.939,225.682 593.5,226C 591.996,227.337 590.996,229.004 590.5,231C 591.591,233.064 591.758,235.231 591,237.5C 587.587,240.256 584.42,239.923 581.5,236.5C 580.817,236.863 580.15,237.196 579.5,237.5C 577.293,238.87 575.626,238.203 574.5,235.5C 570.295,249.924 574.962,260.424 588.5,267C 609.6,268.831 630.6,269.998 651.5,270.5C 630.442,270.939 609.442,270.272 588.5,268.5C 579.619,265.118 574.119,258.785 572,249.5C 569.383,233.886 575.55,223.72 590.5,219C 615.833,218.667 641.167,218.333 666.5,218C 668.056,215.499 667.389,213.999 664.5,213.5C 664.5,212.833 664.167,212.5 663.5,212.5C 648.163,212.667 632.83,212.5 617.5,212C 613.75,211.74 610.084,211.073 606.5,210C 604.34,209.004 602.673,207.504 601.5,205.5C 604.168,207.501 607.168,209.001 610.5,210C 619.851,210.832 629.184,210.665 638.5,209.5C 636.234,208.686 633.9,208.186 631.5,208C 629.675,206.534 629.175,204.701 630,202.5C 630.232,203.737 630.732,204.737 631.5,205.5C 632.932,207.647 634.765,207.98 637,206.5C 637.956,202.075 636.123,200.408 631.5,201.5C 633.288,200.378 635.288,200.211 637.5,201C 638.22,203.122 639.387,203.622 641,202.5C 641.782,205.257 641.282,207.757 639.5,210C 647.157,210.658 654.49,210.491 661.5,209.5C 665.35,209.299 666.35,207.466 664.5,204C 661.162,203.5 659.495,205 659.5,208.5C 658.225,206.392 657.725,204.058 658,201.5C 658.308,202.308 658.808,202.975 659.5,203.5C 661.854,202.94 664.187,202.273 666.5,201.5C 665.738,201.089 664.738,200.923 663.5,201C 664.071,199.795 664.738,198.628 665.5,197.5C 667.012,198.991 668.012,200.824 668.5,203C 666.224,204.874 666.557,206.541 669.5,208C 667.993,208.837 667.493,210.004 668,211.5C 670.375,208.518 673.542,206.852 677.5,206.5C 678.588,202.614 679.421,202.614 680,206.5C 682.821,208.322 685.321,210.489 687.5,213C 686.289,214.113 686.289,215.28 687.5,216.5C 686.5,217.167 685.5,217.833 684.5,218.5C 685.397,218.669 686.397,219.002 687.5,219.5C 686.515,221.098 686.349,222.765 687,224.5C 687.69,223.262 688.19,223.262 688.5,224.5 Z"/></g>
<g><path style="opacity:1" fill="#f2e438" d="M 683.5,211.5 C 685.973,211.947 686.14,212.947 684,214.5C 682.272,213.648 682.105,212.648 683.5,211.5 Z"/></g>
<g><path style="opacity:1" fill="#f3d631" d="M 672.5,208.5 C 676.692,208.403 678.025,210.236 676.5,214C 671.728,214.81 670.395,212.977 672.5,208.5 Z"/></g>
<g><path style="opacity:1" fill="#f2cd31" d="M 661.5,209.5 C 661.158,208.662 660.492,208.328 659.5,208.5C 659.495,205 661.162,203.5 664.5,204C 666.35,207.466 665.35,209.299 661.5,209.5 Z"/></g>
<g><path style="opacity:1" fill="#f7d833" d="M 646.5,202.5 C 650.5,201.833 652.167,203.5 651.5,207.5C 646.58,208.585 644.913,206.918 646.5,202.5 Z"/></g>
<g><path style="opacity:1" fill="#f6d732" d="M 672.5,219.5 C 673.873,219.343 675.207,219.51 676.5,220C 677.818,223.537 676.485,225.371 672.5,225.5C 671.167,223.5 671.167,221.5 672.5,219.5 Z"/></g>
<g><path style="opacity:1" fill="#d7b738" d="M 576.5,229.5 C 578.337,229.639 578.67,230.306 577.5,231.5C 576.702,231.043 576.369,230.376 576.5,229.5 Z"/></g>
<g><path style="opacity:1" fill="#f0c62e" d="M 584.5,231.5 C 590.148,231.311 591.482,233.478 588.5,238C 586.097,238.63 584.263,237.797 583,235.5C 582.7,233.934 583.2,232.601 584.5,231.5 Z"/></g>
<g><path style="opacity:1" fill="#dfd234" d="M 579.5,237.5 C 576.326,237.048 575.993,236.048 578.5,234.5C 579.386,235.325 579.719,236.325 579.5,237.5 Z"/></g>
<g><path style="opacity:1" fill="#081025" d="M 677.5,235.5 C 674.916,237.472 671.916,238.472 668.5,238.5C 644.498,238.667 620.498,238.5 596.5,238C 622.197,237.806 647.863,237.306 673.5,236.5C 674.708,235.766 676.041,235.433 677.5,235.5 Z"/></g>
<g><path style="opacity:1" fill="#fbe92e" d="M 687.5,228.5 C 683.862,234.504 678.528,238.337 671.5,240C 646.33,240.83 621.33,240.663 596.5,239.5C 620.672,239.831 644.672,239.498 668.5,238.5C 671.916,238.472 674.916,237.472 677.5,235.5C 681.368,233.971 684.701,231.637 687.5,228.5 Z"/></g>
<g><path style="opacity:1" fill="#f7df2f" d="M 712.5,259.5 C 714.857,259.663 717.19,259.497 719.5,259C 722.016,256.146 721.683,253.479 718.5,251C 711.293,246.031 703.293,243.864 694.5,244.5C 685.938,244.767 677.605,245.767 669.5,247.5C 646.167,247.5 622.833,247.5 599.5,247.5C 620.329,246.668 641.329,246.168 662.5,246C 670.583,245.655 678.583,244.655 686.5,243C 699.417,240.604 710.917,243.438 721,251.5C 724.061,257.194 722.394,260.527 716,261.5C 713.854,261.212 712.687,260.545 712.5,259.5 Z"/></g>
<g><path style="opacity:1" fill="#1d1e29" d="M 595.5,239.5 C 592.861,240.706 592.028,242.706 593,245.5C 594.897,247.016 597.064,247.683 599.5,247.5C 622.833,247.5 646.167,247.5 669.5,247.5C 670.492,247.328 671.158,247.662 671.5,248.5C 657.169,248.976 642.835,249.476 628.5,250C 630.736,250.079 632.07,250.579 632.5,251.5C 629.044,252.536 628.71,254.203 631.5,256.5C 632.522,256.145 633.189,255.478 633.5,254.5C 634.222,254.082 634.722,253.416 635,252.5C 635.339,256.487 633.506,257.987 629.5,257C 628.458,255.082 627.292,253.249 626,251.5C 625.082,253.632 623.749,254.299 622,253.5C 622,254.833 622,256.167 622,257.5C 620.457,256.715 618.79,256.715 617,257.5C 615.624,257.316 614.791,256.649 614.5,255.5C 613.71,254.391 613.21,253.058 613,251.5C 612.833,252.333 612.667,253.167 612.5,254C 613.405,257.506 613.905,261.006 614,264.5C 611.333,267.167 608.667,267.167 606,264.5C 605.149,261.947 605.482,259.614 607,257.5C 613.424,259.115 613.924,258.282 608.5,255C 611.022,253.314 610.689,251.981 607.5,251C 607.833,250.667 608.167,250.333 608.5,250C 603.417,249.574 598.417,248.74 593.5,247.5C 593.448,249.57 593.281,251.903 593,254.5C 591.708,255.791 590.542,255.791 589.5,254.5C 591.484,254.516 592.484,253.516 592.5,251.5C 590.167,246.167 587.833,246.167 585.5,251.5C 585.516,253.516 586.516,254.516 588.5,254.5C 586.593,256.021 585.593,257.688 585.5,259.5C 584.201,258.91 583.368,257.91 583,256.5C 579.359,258.367 577.692,257.367 578,253.5C 581.408,251.777 583.741,252.777 585,256.5C 584.578,253.902 584.578,251.236 585,248.5C 586.826,246.926 588.993,246.093 591.5,246C 589.83,242.549 590.83,240.049 594.5,238.5C 595.107,238.624 595.44,238.957 595.5,239.5 Z"/></g>
<g><path style="opacity:1" fill="#282a2a" d="M 712.5,259.5 C 709.36,258.359 706.027,258.192 702.5,259C 699.443,261.723 696.11,264.056 692.5,266C 682.615,268.155 672.615,269.322 662.5,269.5C 649.232,269.49 649.232,268.823 662.5,267.5C 659.766,267.501 656.766,267.334 653.5,267C 651.167,266 648.833,265 646.5,264C 647.736,262.612 649.069,261.446 650.5,260.5C 649.831,264.676 651.331,266.009 655,264.5C 655.765,262.934 655.598,261.601 654.5,260.5C 652.369,259.686 650.036,259.186 647.5,259C 650.898,256.829 651.565,254.329 649.5,251.5C 650.631,250.396 651.465,250.729 652,252.5C 652.333,251.833 652.667,251.167 653,250.5C 653.839,253.14 653.339,255.473 651.5,257.5C 653.007,258.739 654.174,258.405 655,256.5C 655.333,256.833 655.667,257.167 656,257.5C 656.232,256.263 656.732,255.263 657.5,254.5C 659.093,255.867 660.426,255.534 661.5,253.5C 660.426,251.466 659.093,251.133 657.5,252.5C 656.957,252.44 656.624,252.107 656.5,251.5C 661.602,249.439 663.269,250.939 661.5,256C 660.062,256.219 658.729,256.719 657.5,257.5C 657.667,257.833 657.833,258.167 658,258.5C 658.725,257.941 659.558,257.608 660.5,257.5C 663.988,259.331 667.655,259.831 671.5,259C 671.167,258.667 670.833,258.333 670.5,258C 672.686,256.691 674.853,256.524 677,257.5C 677.667,255.833 677.667,254.167 677,252.5C 676.433,254.983 675.267,255.65 673.5,254.5C 674.478,254.189 675.145,253.522 675.5,252.5C 674.311,251.571 672.978,251.238 671.5,251.5C 671.263,252.791 671.596,253.791 672.5,254.5C 671.811,255.774 670.977,255.774 670,254.5C 669.259,251.888 670.259,250.222 673,249.5C 674.183,250.731 675.349,250.731 676.5,249.5C 674.955,248.548 673.288,248.215 671.5,248.5C 671.158,247.662 670.492,247.328 669.5,247.5C 677.605,245.767 685.938,244.767 694.5,244.5C 703.293,243.864 711.293,246.031 718.5,251C 721.683,253.479 722.016,256.146 719.5,259C 717.19,259.497 714.857,259.663 712.5,259.5 Z"/></g>
<g><path style="opacity:1" fill="#f8e735" d="M 673.5,254.5 C 673.167,254.5 672.833,254.5 672.5,254.5C 671.596,253.791 671.263,252.791 671.5,251.5C 672.978,251.238 674.311,251.571 675.5,252.5C 675.145,253.522 674.478,254.189 673.5,254.5 Z"/></g>
<g><path style="opacity:1" fill="#ead033" d="M 665.5,260.5 C 666.873,260.343 668.207,260.51 669.5,261C 670.474,263.702 669.474,265.035 666.5,265C 664.452,263.774 664.119,262.274 665.5,260.5 Z"/></g>
<g><path style="opacity:1" fill="#f3d432" d="M 679.5,259.5 C 681.199,259.34 682.866,259.506 684.5,260C 685.833,261.333 685.833,262.667 684.5,264C 682.527,264.495 680.527,264.662 678.5,264.5C 678.366,262.708 678.699,261.042 679.5,259.5 Z"/></g>
<g><path style="opacity:1" fill="#f4d334" d="M 650.5,260.5 C 651.833,260.5 653.167,260.5 654.5,260.5C 655.598,261.601 655.765,262.934 655,264.5C 651.331,266.009 649.831,264.676 650.5,260.5 Z"/></g>
<g><path style="opacity:1" fill="#2f302b" d="M 672.5,219.5 C 671.167,221.5 671.167,223.5 672.5,225.5C 680.468,227.512 680.468,230.179 672.5,233.5C 671.468,231.96 670.135,231.46 668.5,232C 670,232.833 671.167,234 672,235.5C 673.107,234.288 673.607,234.621 673.5,236.5C 647.863,237.306 622.197,237.806 596.5,238C 620.498,238.5 644.498,238.667 668.5,238.5C 644.672,239.498 620.672,239.831 596.5,239.5C 596.167,239.5 595.833,239.5 595.5,239.5C 595.44,238.957 595.107,238.624 594.5,238.5C 590.83,240.049 589.83,242.549 591.5,246C 588.993,246.093 586.826,246.926 585,248.5C 584.578,251.236 584.578,253.902 585,256.5C 583.741,252.777 581.408,251.777 578,253.5C 577.692,257.367 579.359,258.367 583,256.5C 583.368,257.91 584.201,258.91 585.5,259.5C 585.593,257.688 586.593,256.021 588.5,254.5C 588.833,254.5 589.167,254.5 589.5,254.5C 590.542,255.791 591.708,255.791 593,254.5C 593.281,251.903 593.448,249.57 593.5,247.5C 598.417,248.74 603.417,249.574 608.5,250C 608.167,250.333 607.833,250.667 607.5,251C 610.689,251.981 611.022,253.314 608.5,255C 613.924,258.282 613.424,259.115 607,257.5C 605.482,259.614 605.149,261.947 606,264.5C 608.667,267.167 611.333,267.167 614,264.5C 613.905,261.006 613.405,257.506 612.5,254C 612.667,253.167 612.833,252.333 613,251.5C 613.21,253.058 613.71,254.391 614.5,255.5C 614.791,256.649 615.624,257.316 617,257.5C 618.79,256.715 620.457,256.715 622,257.5C 622,256.167 622,254.833 622,253.5C 623.749,254.299 625.082,253.632 626,251.5C 627.292,253.249 628.458,255.082 629.5,257C 633.506,257.987 635.339,256.487 635,252.5C 634.722,253.416 634.222,254.082 633.5,254.5C 633.443,253.391 633.11,252.391 632.5,251.5C 632.07,250.579 630.736,250.079 628.5,250C 642.835,249.476 657.169,248.976 671.5,248.5C 673.288,248.215 674.955,248.548 676.5,249.5C 675.349,250.731 674.183,250.731 673,249.5C 670.259,250.222 669.259,251.888 670,254.5C 670.977,255.774 671.811,255.774 672.5,254.5C 672.833,254.5 673.167,254.5 673.5,254.5C 675.267,255.65 676.433,254.983 677,252.5C 677.667,254.167 677.667,255.833 677,257.5C 674.853,256.524 672.686,256.691 670.5,258C 670.833,258.333 671.167,258.667 671.5,259C 667.655,259.831 663.988,259.331 660.5,257.5C 659.558,257.608 658.725,257.941 658,258.5C 657.833,258.167 657.667,257.833 657.5,257.5C 658.729,256.719 660.062,256.219 661.5,256C 663.269,250.939 661.602,249.439 656.5,251.5C 656.624,252.107 656.957,252.44 657.5,252.5C 657.5,253.167 657.5,253.833 657.5,254.5C 656.732,255.263 656.232,256.263 656,257.5C 655.667,257.167 655.333,256.833 655,256.5C 654.174,258.405 653.007,258.739 651.5,257.5C 653.339,255.473 653.839,253.14 653,250.5C 652.667,251.167 652.333,251.833 652,252.5C 651.465,250.729 650.631,250.396 649.5,251.5C 651.565,254.329 650.898,256.829 647.5,259C 650.036,259.186 652.369,259.686 654.5,260.5C 653.167,260.5 651.833,260.5 650.5,260.5C 649.069,261.446 647.736,262.612 646.5,264C 648.833,265 651.167,266 653.5,267C 656.766,267.334 659.766,267.501 662.5,267.5C 649.232,268.823 649.232,269.49 662.5,269.5C 659.038,270.482 655.371,270.815 651.5,270.5C 630.6,269.998 609.6,268.831 588.5,267C 574.962,260.424 570.295,249.924 574.5,235.5C 575.626,238.203 577.293,238.87 579.5,237.5C 580.15,237.196 580.817,236.863 581.5,236.5C 584.42,239.923 587.587,240.256 591,237.5C 591.758,235.231 591.591,233.064 590.5,231C 590.996,229.004 591.996,227.337 593.5,226C 591.939,225.682 590.772,224.849 590,223.5C 589.667,224.833 589.333,226.167 589,227.5C 588.667,226.833 588.333,226.167 588,225.5C 586.493,226.535 584.993,226.368 583.5,225C 585.741,222.351 589.074,220.685 593.5,220C 613.841,219.384 634.174,219.551 654.5,220.5C 654.351,221.552 654.517,222.552 655,223.5C 656,222.167 657,222.167 658,223.5C 658.617,222.551 658.451,221.718 657.5,221C 661.36,220.895 665.026,220.062 668.5,218.5C 669.167,217.167 669.833,215.833 670.5,214.5C 673.309,214.852 675.642,216.018 677.5,218C 675.618,218.198 673.952,218.698 672.5,219.5 Z"/></g>
<g><path style="opacity:1" fill="#f0d435" d="M 636.5,260.5 C 640.138,259.737 641.638,261.07 641,264.5C 638.507,265.946 636.673,265.279 635.5,262.5C 635.863,261.817 636.196,261.15 636.5,260.5 Z"/></g>
<g><path style="opacity:1" fill="#f0d632" d="M 622.5,259.5 C 626.35,259.701 627.35,261.534 625.5,265C 621.537,265.118 620.537,263.284 622.5,259.5 Z"/></g>
<g><path style="opacity:1" fill="#f7d931" d="M 593.5,258.5 C 598.159,258.015 599.492,259.848 597.5,264C 592.728,264.81 591.395,262.977 593.5,258.5 Z"/></g>
<g><path style="opacity:1" fill="#f3d530" d="M 608.5,259.5 C 612.35,259.701 613.35,261.534 611.5,265C 606.722,265.073 605.722,263.24 608.5,259.5 Z"/></g>
<g><path style="opacity:1" fill="#f0d132" d="M 614.5,255.5 C 614.35,251.839 615.85,250.839 619,252.5C 619.487,256.293 617.987,257.293 614.5,255.5 Z"/></g>
<g><path style="opacity:1" fill="#f9e631" d="M 644.5,251.5 C 646.912,251.694 647.912,253.027 647.5,255.5C 646.167,255.5 644.833,255.5 643.5,255.5C 643.433,254.041 643.766,252.708 644.5,251.5 Z"/></g>
<g><path style="opacity:1" fill="#e7d431" d="M 579.5,253.5 C 581.465,253.948 581.798,254.948 580.5,256.5C 578.481,255.867 578.147,254.867 579.5,253.5 Z"/></g>
<g><path style="opacity:1" fill="#f3dd35" d="M 657.5,254.5 C 657.5,253.833 657.5,253.167 657.5,252.5C 659.093,251.133 660.426,251.466 661.5,253.5C 660.426,255.534 659.093,255.867 657.5,254.5 Z"/></g>
<g><path style="opacity:1" fill="#f2d935" d="M 632.5,251.5 C 633.11,252.391 633.443,253.391 633.5,254.5C 633.189,255.478 632.522,256.145 631.5,256.5C 628.71,254.203 629.044,252.536 632.5,251.5 Z"/></g>
<g><path style="opacity:1" fill="#fbe434" d="M 601.5,251.5 C 604.166,251.066 605.333,252.066 605,254.5C 601.403,256.066 600.237,255.066 601.5,251.5 Z"/></g>
<g><path style="opacity:1" fill="#f5d22f" d="M 589.5,254.5 C 589.167,254.5 588.833,254.5 588.5,254.5C 586.516,254.516 585.516,253.516 585.5,251.5C 587.833,246.167 590.167,246.167 592.5,251.5C 592.484,253.516 591.484,254.516 589.5,254.5 Z"/></g>
<g><path style="opacity:1" fill="#ebd334" d="M 579.5,242.5 C 582.041,243.623 582.041,244.956 579.5,246.5C 576.875,245.135 576.875,243.802 579.5,242.5 Z"/></g>
<g><path style="opacity:1" fill="#f3d834" d="M 622.5,227.5 C 627.041,227.815 628.041,229.649 625.5,233C 621.537,233.118 620.537,231.284 622.5,227.5 Z"/></g>
<g><path style="opacity:1" fill="#f1d330" d="M 608.5,227.5 C 613.159,227.015 614.492,228.848 612.5,233C 607.728,233.81 606.395,231.977 608.5,227.5 Z"/></g>
<g><path style="opacity:1" fill="#f6da32" d="M 647.5,228.5 C 649.199,228.34 650.866,228.506 652.5,229C 653.995,232.841 652.661,234.174 648.5,233C 647.62,231.644 647.286,230.144 647.5,228.5 Z"/></g>
<g><path style="opacity:1" fill="#f1d330" d="M 636.5,227.5 C 640.35,227.701 641.35,229.534 639.5,233C 634.289,233.546 633.289,231.713 636.5,227.5 Z"/></g>
<g><path style="opacity:1" fill="#f5db33" d="M 595.5,227.5 C 596.873,227.343 598.207,227.51 599.5,228C 600.451,228.718 600.617,229.551 600,230.5C 595.652,233.558 594.152,232.558 595.5,227.5 Z"/></g>
<g><path style="opacity:1" fill="#f9de31" d="M 662.5,225.5 C 666.161,225.35 667.161,226.85 665.5,230C 664.207,230.49 662.873,230.657 661.5,230.5C 661.366,228.708 661.699,227.042 662.5,225.5 Z"/></g>
<g><path style="opacity:1" fill="#c5ab30" d="M 630.5,222.5 C 632.337,222.639 632.67,223.306 631.5,224.5C 630.702,224.043 630.369,223.376 630.5,222.5 Z"/></g>
<g><path style="opacity:1" fill="#ece032" d="M 615.5,221.5 C 617.048,221.821 617.715,222.821 617.5,224.5C 614.752,224.598 614.086,223.598 615.5,221.5 Z"/></g>
<g><path style="opacity:1" fill="#d03620" d="M 609.5,289.5 C 609.5,289.167 609.5,288.833 609.5,288.5C 628.167,288.5 646.833,288.5 665.5,288.5C 665.5,288.833 665.5,289.167 665.5,289.5C 664.971,298.152 664.138,306.819 663,315.5C 656.488,308.825 648.655,304.492 639.5,302.5C 628.726,303.823 619.226,308.156 611,315.5C 610.184,306.921 610.351,298.421 611.5,290C 610.906,289.536 610.239,289.369 609.5,289.5 Z"/></g>
<g><path style="opacity:1" fill="#ca321e" d="M 637.5,361.5 C 628.167,361.5 618.833,361.5 609.5,361.5C 609.5,358.5 609.5,355.5 609.5,352.5C 627.799,351.37 646.132,351.37 664.5,352.5C 664.5,355.5 664.5,358.5 664.5,361.5C 655.5,361.5 646.5,361.5 637.5,361.5 Z"/></g>
<g><path style="opacity:1" fill="#ee4c26" d="M 609.5,361.5 C 618.833,361.5 628.167,361.5 637.5,361.5C 636.889,369.278 637.556,376.778 639.5,384C 637.847,391.475 636.847,399.142 636.5,407C 636.215,436.269 636.548,465.769 637.5,495.5C 628.356,495.024 619.356,495.024 610.5,495.5C 609.5,495.5 608.5,495.5 607.5,495.5C 609.487,451.052 610.153,406.385 609.5,361.5 Z"/></g>
<g><path style="opacity:1" fill="#cc341f" d="M 670.5,375.5 C 670.833,375.5 671.167,375.5 671.5,375.5C 674.589,376.785 677.922,377.451 681.5,377.5C 680.399,417.501 680.399,457.501 681.5,497.5C 770.479,508.089 859.479,518.589 948.5,529C 952.245,529.302 955.578,530.469 958.5,532.5C 953.366,535.895 947.699,537.895 941.5,538.5C 851.856,527.919 762.189,517.586 672.5,507.5C 673.892,501.558 671.892,497.224 666.5,494.5C 665.673,490.541 665.173,486.541 665,482.5C 664.403,446.829 664.57,411.163 665.5,375.5C 667.167,375.5 668.833,375.5 670.5,375.5 Z"/></g>
<g><path style="opacity:1" fill="#ef4b27" d="M 671.5,375.5 C 764.549,387.578 857.549,400.078 950.5,413C 953.562,414.061 956.062,415.894 958,418.5C 974.291,438.46 990.958,458.127 1008,477.5C 1008.67,480.167 1008.67,482.833 1008,485.5C 1006.02,488.312 1003.86,490.978 1001.5,493.5C 1000.91,487.755 1000.08,482.088 999,476.5C 997.062,475.14 995.396,475.473 994,477.5C 992.276,474.27 990.276,473.936 988,476.5C 986.951,474.893 985.451,474.227 983.5,474.5C 983.5,480.833 983.5,487.167 983.5,493.5C 984.833,493.5 986.167,493.5 987.5,493.5C 987.334,489.154 987.501,484.821 988,480.5C 988.414,480.043 988.914,479.709 989.5,479.5C 990.493,484.12 990.827,488.786 990.5,493.5C 991.568,494.434 992.901,494.768 994.5,494.5C 994.5,490.167 994.5,485.833 994.5,481.5C 994.706,479.451 995.539,479.117 997,480.5C 996.92,485.635 997.753,490.469 999.5,495C 986.263,508.075 972.596,520.575 958.5,532.5C 955.578,530.469 952.245,529.302 948.5,529C 859.479,518.589 770.479,508.089 681.5,497.5C 680.399,457.501 680.399,417.501 681.5,377.5C 677.922,377.451 674.589,376.785 671.5,375.5 Z"/></g>
<g><path style="opacity:1" fill="#f39b73" d="M 994.5,481.5 C 994.5,485.833 994.5,490.167 994.5,494.5C 992.901,494.768 991.568,494.434 990.5,493.5C 991.5,493.5 992.5,493.5 993.5,493.5C 993.183,489.298 993.517,485.298 994.5,481.5 Z"/></g>
<g><path style="opacity:1" fill="#f9f0e0" d="M 953.5,453.5 C 955.5,453.5 957.5,453.5 959.5,453.5C 959.5,465.833 959.5,478.167 959.5,490.5C 957.5,490.5 955.5,490.5 953.5,490.5C 953.666,480.828 953.5,471.161 953,461.5C 951.667,462.833 950.333,464.167 949,465.5C 948.167,463.833 947.333,462.167 946.5,460.5C 948.673,457.932 951.006,455.599 953.5,453.5 Z"/></g>
<g><path style="opacity:1" fill="#f8eddd" d="M 931.5,450.5 C 939.871,450.696 944.704,455.03 946,463.5C 947.687,472.247 945.854,480.08 940.5,487C 935.38,489.506 931.214,488.339 928,483.5C 923.376,473.486 923.376,463.486 928,453.5C 929.145,452.364 930.312,451.364 931.5,450.5 Z"/></g>
<g><path style="opacity:1" fill="#f8eede" d="M 863.5,443.5 C 866.254,443.784 868.92,444.451 871.5,445.5C 873.352,453.263 875.519,460.929 878,468.5C 880.142,461.304 881.975,453.971 883.5,446.5C 885.655,446.162 887.989,446.162 890.5,446.5C 887.787,460.351 884.287,474.018 880,487.5C 877.958,494.94 873.125,497.94 865.5,496.5C 865.183,493.428 865.516,490.428 866.5,487.5C 871.206,488.327 873.873,486.16 874.5,481C 870.725,468.512 867.059,456.012 863.5,443.5 Z"/></g>
<g><path style="opacity:1" fill="#f8efdf" d="M 970.5,465.5 C 971.822,465.33 972.989,465.663 974,466.5C 974.333,470.833 974.667,475.167 975,479.5C 975.941,475.008 978.441,473.342 982.5,474.5C 981.197,476.937 979.53,479.104 977.5,481C 979.167,484.667 980.833,488.333 982.5,492C 981.167,492.667 979.833,492.667 978.5,492C 977.144,489.602 975.977,487.102 975,484.5C 974.503,486.81 974.337,489.143 974.5,491.5C 973.167,491.5 971.833,491.5 970.5,491.5C 970.5,482.833 970.5,474.167 970.5,465.5 Z"/></g>
<g><path style="opacity:1" fill="#f04924" d="M 933.5,457.5 C 934.978,457.238 936.311,457.571 937.5,458.5C 940.804,464.941 941.304,471.608 939,478.5C 937.776,481.473 935.776,482.14 933,480.5C 929.53,472.646 929.696,464.979 933.5,457.5 Z"/></g>
<g><path style="opacity:1" fill="#f8ebdb" d="M 903.5,446.5 C 908.777,447.493 914.11,448.16 919.5,448.5C 919.5,450.833 919.5,453.167 919.5,455.5C 916.124,455.048 912.791,454.382 909.5,453.5C 907.429,455.93 907.096,458.597 908.5,461.5C 916.638,460.284 920.971,463.951 921.5,472.5C 919.195,485.964 912.195,489.13 900.5,482C 899.392,479.01 900.225,476.51 903,474.5C 906.18,478.672 909.847,479.338 914,476.5C 915.458,472.219 914.292,469.053 910.5,467C 907.525,466.956 904.525,467.123 901.5,467.5C 901.979,460.481 902.646,453.481 903.5,446.5 Z"/></g>
<g><path style="opacity:1" fill="#f8f0e2" d="M 752.5,415.5 C 754.833,415.5 757.167,415.5 759.5,415.5C 759.333,431.17 759.5,446.837 760,462.5C 761.11,464.037 762.61,464.703 764.5,464.5C 764.5,466.833 764.5,469.167 764.5,471.5C 759.365,472.574 755.532,470.907 753,466.5C 752.5,449.503 752.333,432.503 752.5,415.5 Z"/></g>
<g><path style="opacity:1" fill="#f8eede" d="M 809.5,437.5 C 814.777,436.931 819.777,437.765 824.5,440C 825.211,441.255 826.044,442.421 827,443.5C 828.6,454.761 828.933,466.094 828,477.5C 826.301,476.594 824.467,476.261 822.5,476.5C 822.708,470.376 821.041,469.876 817.5,475C 808.481,477.478 803.481,473.978 802.5,464.5C 802.563,460.472 804.229,457.305 807.5,455C 812.036,453.621 816.703,453.121 821.5,453.5C 820.496,444.171 816.163,442.171 808.5,447.5C 804.486,443.378 804.819,440.044 809.5,437.5 Z"/></g>
<g><path style="opacity:1" fill="#ef3c1a" d="M 812.5,458.5 C 815.5,458.5 818.5,458.5 821.5,458.5C 821.592,462.059 820.759,465.392 819,468.5C 815.949,471.374 813.282,471.041 811,467.5C 810.068,464.177 810.568,461.177 812.5,458.5 Z"/></g>
<g><path style="opacity:1" fill="#f8f0e1" d="M 836.5,440.5 C 838.5,440.5 840.5,440.5 842.5,440.5C 842.338,442.527 842.505,444.527 843,446.5C 848.253,439.923 853.586,439.923 859,446.5C 860.433,457.756 860.933,469.09 860.5,480.5C 858.167,480.5 855.833,480.5 853.5,480.5C 853.666,471.161 853.5,461.827 853,452.5C 850,448.5 847,448.5 844,452.5C 843.5,461.16 843.334,469.827 843.5,478.5C 841.167,478.5 838.833,478.5 836.5,478.5C 836.5,465.833 836.5,453.167 836.5,440.5 Z"/></g>
<g><path style="opacity:1" fill="#f8eddd" d="M 718.5,412.5 C 722.548,412.84 726.548,413.506 730.5,414.5C 735.633,432.564 740.966,450.564 746.5,468.5C 743.554,469.655 740.554,469.821 737.5,469C 736.093,465.214 734.76,461.381 733.5,457.5C 727.254,455.481 720.92,455.148 714.5,456.5C 713.346,459.452 712.346,462.452 711.5,465.5C 708.167,466.833 704.833,466.833 701.5,465.5C 707.782,447.988 713.449,430.322 718.5,412.5 Z"/></g>
<g><path style="opacity:1" fill="#ee4621" d="M 723.5,424.5 C 727.173,431.536 729.507,439.203 730.5,447.5C 726.02,447.732 721.687,447.065 717.5,445.5C 719.91,438.604 721.91,431.604 723.5,424.5 Z"/></g>
<g><path style="opacity:1" fill="#f7efde" d="M 770.5,417.5 C 773.167,417.5 775.833,417.5 778.5,417.5C 778.17,424.2 778.503,430.866 779.5,437.5C 783.085,434.155 787.085,433.655 791.5,436C 799.436,444.051 801.602,453.551 798,464.5C 795.552,471.647 790.718,474.481 783.5,473C 781,471.833 779.167,470 778,467.5C 777.506,469.134 777.34,470.801 777.5,472.5C 775.194,472.007 772.861,471.674 770.5,471.5C 770.5,453.5 770.5,435.5 770.5,417.5 Z"/></g>
<g><path style="opacity:1" fill="#ee4623" d="M 782.5,441.5 C 787.265,441.427 790.098,443.761 791,448.5C 791.81,453.257 791.476,457.924 790,462.5C 786.667,466.5 783.333,466.5 780,462.5C 775.943,454.754 776.776,447.754 782.5,441.5 Z"/></g>
<g><path style="opacity:1" fill="#f8edde" d="M 610.5,551.5 C 612.344,558.654 613.011,565.987 612.5,573.5C 610.833,573.5 609.167,573.5 607.5,573.5C 607.697,567.455 607.363,561.455 606.5,555.5C 605.167,555.5 603.833,555.5 602.5,555.5C 601.628,561.789 601.295,568.122 601.5,574.5C 600.167,574.5 598.833,574.5 597.5,574.5C 597.666,568.824 597.499,563.157 597,557.5C 596.047,555.408 594.714,555.075 593,556.5C 592.501,562.491 592.334,568.491 592.5,574.5C 590.833,574.5 589.167,574.5 587.5,574.5C 587.5,566.5 587.5,558.5 587.5,550.5C 589.492,550.328 591.158,550.995 592.5,552.5C 595.636,548.614 598.636,548.614 601.5,552.5C 604.249,549.054 607.249,548.721 610.5,551.5 Z"/></g>
<g><path style="opacity:1" fill="#d2351e" d="M 110.5,494.5 C 112.535,494.68 114.535,495.18 116.5,496C 114.333,498.833 112.167,501.667 110,504.5C 93.1479,519.793 76.6479,535.293 60.5,551C 57.3242,555.006 53.9908,558.84 50.5,562.5C 71.8854,583.221 93.552,603.555 115.5,623.5C 115.062,623.435 114.728,623.601 114.5,624C 119.051,625.215 123.718,625.881 128.5,626C 127.552,626.483 126.552,626.649 125.5,626.5C 125.649,627.552 125.483,628.552 125,629.5C 120.675,628.555 116.175,628.388 111.5,629C 115.552,630.101 119.719,630.601 124,630.5C 160.983,628.538 197.817,627.872 234.5,628.5C 193.174,629.926 151.841,630.759 110.5,631C 108.004,629.92 105.67,628.586 103.5,627C 84.0678,608.403 64.7345,589.57 45.5,570.5C 42.5988,567.705 41.0988,564.372 41,560.5C 63.7333,537.931 86.9,515.931 110.5,494.5 Z"/></g>
<g><path style="opacity:1" fill="#f04f28" d="M 633.5,523.5 C 634.209,524.404 635.209,524.737 636.5,524.5C 636.67,532.593 637.67,540.427 639.5,548C 637.314,551.054 636.314,554.554 636.5,558.5C 636.875,577.034 637.209,595.534 637.5,614C 636.833,615 636.167,616 635.5,617C 644.833,617.333 654.167,617.667 663.5,618C 662.333,618.5 661.5,619.333 661,620.5C 654.464,619.036 647.798,618.369 641,618.5C 635.067,618.626 629.4,618.959 624,619.5C 621.393,618.877 618.893,618.21 616.5,617.5C 616.5,586.167 616.5,554.833 616.5,523.5C 622.167,523.5 627.833,523.5 633.5,523.5 Z"/></g>
<g><path style="opacity:1" fill="#ef4d27" d="M 603.5,499.5 C 603.369,500.239 603.536,500.906 604,501.5C 605.707,500.862 607.54,500.862 609.5,501.5C 609.965,505.399 610.632,509.233 611.5,513C 610.833,513.333 610.167,513.667 609.5,514C 610.489,526.42 610.822,538.92 610.5,551.5C 607.249,548.721 604.249,549.054 601.5,552.5C 598.636,548.614 595.636,548.614 592.5,552.5C 591.158,550.995 589.492,550.328 587.5,550.5C 587.5,558.5 587.5,566.5 587.5,574.5C 589.167,574.5 590.833,574.5 592.5,574.5C 592.334,568.491 592.501,562.491 593,556.5C 594.714,555.075 596.047,555.408 597,557.5C 597.499,563.157 597.666,568.824 597.5,574.5C 598.833,574.5 600.167,574.5 601.5,574.5C 601.295,568.122 601.628,561.789 602.5,555.5C 603.833,555.5 605.167,555.5 606.5,555.5C 607.363,561.455 607.697,567.455 607.5,573.5C 608.952,574.302 610.618,574.802 612.5,575C 610.533,586.916 609.866,599.082 610.5,611.5C 445.5,615.553 280.5,619.553 115.5,623.5C 93.552,603.555 71.8854,583.221 50.5,562.5C 53.9908,558.84 57.3242,555.006 60.5,551C 76.6479,535.293 93.1479,519.793 110,504.5C 112.167,501.667 114.333,498.833 116.5,496C 114.535,495.18 112.535,494.68 110.5,494.5C 115.319,492.957 120.319,492.291 125.5,492.5C 274.67,494.89 423.837,497.557 573,500.5C 583.241,500.488 593.408,500.155 603.5,499.5 Z"/></g>
<g><path style="opacity:1" fill="#f9eddc" d="M 248.5,539.5 C 253.179,539.334 257.845,539.501 262.5,540C 267.336,541.819 270.169,545.319 271,550.5C 271.5,560.828 271.666,571.161 271.5,581.5C 268.833,581.5 266.167,581.5 263.5,581.5C 263.313,579.436 262.813,577.436 262,575.5C 258.155,581.667 252.655,583.834 245.5,582C 239.842,578.373 237.675,573.207 239,566.5C 241.007,561.162 244.841,557.996 250.5,557C 254.486,556.501 258.486,556.334 262.5,556.5C 262.468,548.968 258.801,546.135 251.5,548C 249.131,548.536 247.131,549.703 245.5,551.5C 244.197,549.063 242.53,546.896 240.5,545C 243.059,542.897 245.726,541.064 248.5,539.5 Z"/></g>
<g><path style="opacity:1" fill="#f8ecdc" d="M 337.5,539.5 C 340.5,539.5 343.5,539.5 346.5,539.5C 346.334,549.506 346.5,559.506 347,569.5C 351.767,572.758 355.434,571.758 358,566.5C 358.5,557.506 358.666,548.506 358.5,539.5C 361.167,539.5 363.833,539.5 366.5,539.5C 366.5,552.5 366.5,565.5 366.5,578.5C 363.833,578.5 361.167,578.5 358.5,578.5C 358.66,576.801 358.494,575.134 358,573.5C 354.723,579.109 349.89,580.942 343.5,579C 340.337,577.52 338.504,575.02 338,571.5C 337.5,560.839 337.333,550.172 337.5,539.5 Z"/></g>
<g><path style="opacity:1" fill="#f8eddd" d="M 452.5,538.5 C 459.108,537.115 464.275,539.115 468,544.5C 469.429,555.088 469.929,565.755 469.5,576.5C 467.167,576.5 464.833,576.5 462.5,576.5C 462.66,574.801 462.494,573.134 462,571.5C 457.385,578.203 451.719,579.203 445,574.5C 440.534,560.106 446.034,553.439 461.5,554.5C 462.327,547.497 459.327,544.997 452.5,547C 451.034,547.635 449.7,548.469 448.5,549.5C 447.289,547.578 445.956,545.745 444.5,544C 447.059,541.897 449.726,540.064 452.5,538.5 Z"/></g>
<g><path style="opacity:1" fill="#f8ead7" d="M 428.5,523.5 C 431.5,523.5 434.5,523.5 437.5,523.5C 437.5,541.5 437.5,559.5 437.5,577.5C 434.833,577.5 432.167,577.5 429.5,577.5C 429.657,576.127 429.49,574.793 429,573.5C 420.66,581.068 413.994,579.734 409,569.5C 407,562.5 407,555.5 409,548.5C 411.532,541.66 416.365,538.493 423.5,539C 426,540.167 427.833,542 429,544.5C 428.616,537.56 428.449,530.56 428.5,523.5 Z"/></g>
<g><path style="opacity:1" fill="#ef4c25" d="M 254.5,561.5 C 257.167,561.5 259.833,561.5 262.5,561.5C 262.498,565.511 261.332,569.178 259,572.5C 253.446,577.152 249.613,575.985 247.5,569C 248.662,565.34 250.995,562.84 254.5,561.5 Z"/></g>
<g><path style="opacity:1" fill="#f8f0e3" d="M 568.5,540.5 C 570.167,540.5 571.833,540.5 573.5,540.5C 573.334,546.509 573.501,552.509 574,558.5C 575.709,555.582 577.542,552.748 579.5,550C 581.259,549.202 582.926,549.369 584.5,550.5C 582.5,553.833 580.5,557.167 578.5,560.5C 581.088,564.674 583.421,569.007 585.5,573.5C 583.5,574.833 581.5,574.833 579.5,573.5C 577.921,570.006 576.087,566.673 574,563.5C 573.501,567.152 573.335,570.818 573.5,574.5C 571.833,574.5 570.167,574.5 568.5,574.5C 568.5,563.167 568.5,551.833 568.5,540.5 Z"/></g>
<g><path style="opacity:1" fill="#f8eedd" d="M 219.5,523.5 C 222.5,523.5 225.5,523.5 228.5,523.5C 228.17,540.342 228.503,557.008 229.5,573.5C 230.635,575.213 232.302,575.88 234.5,575.5C 234.5,577.833 234.5,580.167 234.5,582.5C 230.486,582.666 226.486,582.499 222.5,582C 221.299,581.097 220.465,579.931 220,578.5C 219.5,560.17 219.333,541.836 219.5,523.5 Z"/></g>
<g><path style="opacity:1" fill="#ee441f" d="M 453.5,559.5 C 456.167,559.5 458.833,559.5 461.5,559.5C 462.41,565.335 460.243,569.335 455,571.5C 449.614,568.175 449.114,564.175 453.5,559.5 Z"/></g>
<g><path style="opacity:1" fill="#f8eddc" d="M 187.5,539.5 C 192.599,539.175 197.599,539.675 202.5,541C 205,542.167 206.833,544 208,546.5C 209.438,558.424 209.938,570.424 209.5,582.5C 206.833,582.5 204.167,582.5 201.5,582.5C 201.313,580.436 200.813,578.436 200,576.5C 196.292,582.85 190.792,585.35 183.5,584C 176.547,580.59 174.047,575.09 176,567.5C 177.902,562.6 181.402,559.433 186.5,558C 191.155,557.501 195.821,557.334 200.5,557.5C 201.2,551.529 198.534,548.196 192.5,547.5C 188.69,547.988 185.523,549.655 183,552.5C 180.537,550.241 179.203,547.574 179,544.5C 181.682,542.415 184.516,540.748 187.5,539.5 Z"/></g>
<g><path style="opacity:1" fill="#ef4520" d="M 192.5,562.5 C 195.167,562.5 197.833,562.5 200.5,562.5C 200.242,566.44 199.076,570.107 197,573.5C 193.974,576.864 190.474,577.364 186.5,575C 183.478,568.542 185.478,564.375 192.5,562.5 Z"/></g>
<g><path style="opacity:1" fill="#f8c8af" d="M 555.5,536.5 C 555.5,549.5 555.5,562.5 555.5,575.5C 552.941,575.802 550.607,575.468 548.5,574.5C 550.5,574.5 552.5,574.5 554.5,574.5C 554.171,561.656 554.505,548.989 555.5,536.5 Z"/></g>
<g><path style="opacity:1" fill="#f8ecdb" d="M 388.5,538.5 C 393.609,537.923 397.776,539.59 401,543.5C 402.436,555.09 402.936,566.757 402.5,578.5C 399.833,578.5 397.167,578.5 394.5,578.5C 394.666,569.494 394.5,560.494 394,551.5C 390.829,546.586 387.163,546.253 383,550.5C 382.5,559.827 382.334,569.161 382.5,578.5C 379.5,578.5 376.5,578.5 373.5,578.5C 373.5,565.5 373.5,552.5 373.5,539.5C 376.167,539.5 378.833,539.5 381.5,539.5C 381.714,541.144 381.38,542.644 380.5,544C 381,544.5 381.5,545 382,545.5C 383.694,542.642 385.861,540.309 388.5,538.5 Z"/></g>
<g><path style="opacity:1" fill="#ee4a25" d="M 421.5,546.5 C 423.722,546.178 425.556,546.845 427,548.5C 429.929,554.662 430.263,560.995 428,567.5C 424.952,571.01 421.619,571.343 418,568.5C 415.085,563.012 414.752,557.345 417,551.5C 418.025,549.313 419.525,547.646 421.5,546.5 Z"/></g>
<g><path style="opacity:1" fill="#f8ebdb" d="M 489.5,534.5 C 495.5,534.5 501.5,534.5 507.5,534.5C 507.664,537.187 507.497,539.854 507,542.5C 502.934,541.536 498.767,541.203 494.5,541.5C 494.5,544.167 494.5,546.833 494.5,549.5C 504.513,547.681 509.513,551.848 509.5,562C 506.694,575.237 499.027,579.237 486.5,574C 485.643,573.311 484.977,572.478 484.5,571.5C 485.833,569.5 487.167,567.5 488.5,565.5C 491.71,568.222 495.376,569.056 499.5,568C 503.601,563.706 503.268,559.706 498.5,556C 494.766,555.86 491.099,556.36 487.5,557.5C 487.45,549.76 488.117,542.094 489.5,534.5 Z"/></g>
<g><path style="opacity:1" fill="#f9efde" d="M 555.5,536.5 C 554.505,548.989 554.171,561.656 554.5,574.5C 552.5,574.5 550.5,574.5 548.5,574.5C 548.666,564.494 548.5,554.494 548,544.5C 546.315,546.017 544.815,547.684 543.5,549.5C 542.112,547.891 541.112,546.058 540.5,544C 542.767,541.733 545.1,539.4 547.5,537C 550.227,535.364 552.893,535.198 555.5,536.5 Z"/></g>
<g><path style="opacity:1" fill="#f9ecda" d="M 127.5,523.5 C 131.5,523.5 135.5,523.5 139.5,523.5C 139.169,531.528 139.502,539.528 140.5,547.5C 146.353,539.992 151.353,531.992 155.5,523.5C 159.846,523.334 164.179,523.501 168.5,524C 161.874,532.785 155.874,541.952 150.5,551.5C 156.734,562.409 163.401,573.075 170.5,583.5C 166.205,584.661 161.871,584.828 157.5,584C 151.696,575.549 146.029,567.049 140.5,558.5C 139.502,567.141 139.169,575.808 139.5,584.5C 135.5,584.5 131.5,584.5 127.5,584.5C 127.5,564.167 127.5,543.833 127.5,523.5 Z"/></g>
<g><path style="opacity:1" fill="#f9ecdb" d="M 315.5,538.5 C 321.739,537.536 326.239,539.869 329,545.5C 330.433,556.756 330.933,568.09 330.5,579.5C 327.5,579.5 324.5,579.5 321.5,579.5C 321.666,569.828 321.5,560.161 321,550.5C 319.334,547.621 316.834,546.788 313.5,548C 312.299,548.903 311.465,550.069 311,551.5C 310.5,561.161 310.334,570.828 310.5,580.5C 307.833,580.5 305.167,580.5 302.5,580.5C 302.865,570.443 302.365,560.443 301,550.5C 296.927,546.381 293.26,546.715 290,551.5C 289.5,561.161 289.334,570.828 289.5,580.5C 286.223,580.216 283.057,580.549 280,581.5C 279.5,567.504 279.333,553.504 279.5,539.5C 282.167,539.5 284.833,539.5 287.5,539.5C 287.181,541.75 287.681,543.75 289,545.5C 295.437,538.002 302.104,537.668 309,544.5C 311.063,542.266 313.229,540.266 315.5,538.5 Z"/></g>
<g><path style="opacity:1" fill="#f8eddc" d="M 523.5,534.5 C 531.429,534.584 536.262,538.584 538,546.5C 538.884,553.582 538.551,560.582 537,567.5C 533.776,575.346 528.276,577.513 520.5,574C 515.44,568.754 513.106,562.421 513.5,555C 513.145,546.166 516.478,539.333 523.5,534.5 Z"/></g>
<g><path style="opacity:1" fill="#ee4320" d="M 524.5,542.5 C 528.251,542.082 530.418,543.749 531,547.5C 531.87,553.917 531.536,560.251 530,566.5C 525.905,569.637 523.238,568.637 522,563.5C 521.333,557.833 521.333,552.167 522,546.5C 522.662,545.016 523.496,543.683 524.5,542.5 Z"/></g>
<g><path style="opacity:1" fill="#f48c60" d="M 219.5,523.5 C 222.625,522.521 225.958,522.187 229.5,522.5C 229.5,539.5 229.5,556.5 229.5,573.5C 228.503,557.008 228.17,540.342 228.5,523.5C 225.5,523.5 222.5,523.5 219.5,523.5 Z"/></g>
<g><path style="opacity:1" fill="#c5301d" d="M 607.5,495.5 C 608.5,495.5 609.5,495.5 610.5,495.5C 611.663,502.134 612.663,508.801 613.5,515.5C 630.5,515.5 647.5,515.5 664.5,515.5C 664.5,518.5 664.5,521.5 664.5,524.5C 654.171,524.049 643.838,523.716 633.5,523.5C 627.833,523.5 622.167,523.5 616.5,523.5C 616.5,554.833 616.5,586.167 616.5,617.5C 614.167,617.5 611.833,617.5 609.5,617.5C 484.529,621.112 359.529,624.779 234.5,628.5C 197.817,627.872 160.983,628.538 124,630.5C 119.719,630.601 115.552,630.101 111.5,629C 116.175,628.388 120.675,628.555 125,629.5C 125.483,628.552 125.649,627.552 125.5,626.5C 126.552,626.649 127.552,626.483 128.5,626C 123.718,625.881 119.051,625.215 114.5,624C 114.728,623.601 115.062,623.435 115.5,623.5C 280.5,619.553 445.5,615.553 610.5,611.5C 609.866,599.082 610.533,586.916 612.5,575C 610.618,574.802 608.952,574.302 607.5,573.5C 609.167,573.5 610.833,573.5 612.5,573.5C 613.011,565.987 612.344,558.654 610.5,551.5C 610.822,538.92 610.489,526.42 609.5,514C 610.167,513.667 610.833,513.333 611.5,513C 610.632,509.233 609.965,505.399 609.5,501.5C 607.54,500.862 605.707,500.862 604,501.5C 603.536,500.906 603.369,500.239 603.5,499.5C 605.167,498.5 606.5,497.167 607.5,495.5 Z"/></g>
<g><path style="opacity:1" fill="#e43f23" d="M 609.5,289.5 C 610.239,289.369 610.906,289.536 611.5,290C 610.351,298.421 610.184,306.921 611,315.5C 619.226,308.156 628.726,303.823 639.5,302.5C 648.655,304.492 656.488,308.825 663,315.5C 664.138,306.819 664.971,298.152 665.5,289.5C 665.5,303.5 665.5,317.5 665.5,331.5C 667.783,331.608 669.783,332.441 671.5,334C 677.363,342.32 675.529,348.487 666,352.5C 665.5,359.826 665.334,367.159 665.5,374.5C 667.415,374.216 669.081,374.549 670.5,375.5C 668.833,375.5 667.167,375.5 665.5,375.5C 664.57,411.163 664.403,446.829 665,482.5C 665.173,486.541 665.673,490.541 666.5,494.5C 671.892,497.224 673.892,501.558 672.5,507.5C 671.796,511.537 669.463,513.87 665.5,514.5C 665.333,549.168 665.5,583.835 666,618.5C 667.955,619.453 669.622,620.787 671,622.5C 674.632,630.561 672.465,636.228 664.5,639.5C 646.167,639.5 627.833,639.5 609.5,639.5C 609.158,638.662 608.492,638.328 607.5,638.5C 605.897,637.404 604.397,636.07 603,634.5C 600.179,626.823 602.346,621.156 609.5,617.5C 611.833,617.5 614.167,617.5 616.5,617.5C 618.893,618.21 621.393,618.877 624,619.5C 629.4,618.959 635.067,618.626 641,618.5C 647.798,618.369 654.464,619.036 661,620.5C 661.5,619.333 662.333,618.5 663.5,618C 654.167,617.667 644.833,617.333 635.5,617C 636.167,616 636.833,615 637.5,614C 637.209,595.534 636.875,577.034 636.5,558.5C 636.314,554.554 637.314,551.054 639.5,548C 637.67,540.427 636.67,532.593 636.5,524.5C 635.209,524.737 634.209,524.404 633.5,523.5C 643.838,523.716 654.171,524.049 664.5,524.5C 664.5,521.5 664.5,518.5 664.5,515.5C 647.5,515.5 630.5,515.5 613.5,515.5C 612.663,508.801 611.663,502.134 610.5,495.5C 619.356,495.024 628.356,495.024 637.5,495.5C 636.548,465.769 636.215,436.269 636.5,407C 636.847,399.142 637.847,391.475 639.5,384C 637.556,376.778 636.889,369.278 637.5,361.5C 646.5,361.5 655.5,361.5 664.5,361.5C 664.5,358.5 664.5,355.5 664.5,352.5C 646.132,351.37 627.799,351.37 609.5,352.5C 603.774,351.278 600.774,347.778 600.5,342C 600.595,335.962 603.595,332.462 609.5,331.5C 609.5,317.5 609.5,303.5 609.5,289.5 Z"/></g>
<g><path style="opacity:1" fill="#c5301e" d="M 609.5,639.5 C 627.833,639.5 646.167,639.5 664.5,639.5C 664.629,641.216 664.962,642.883 665.5,644.5C 664.596,645.209 664.263,646.209 664.5,647.5C 654.022,647.936 643.689,647.936 633.5,647.5C 625.5,647.5 617.5,647.5 609.5,647.5C 609.5,644.833 609.5,642.167 609.5,639.5 Z"/></g>
<g><path style="opacity:1" fill="#e43e23" d="M 665.5,644.5 C 665.5,661.5 665.5,678.5 665.5,695.5C 656.167,695.5 646.833,695.5 637.5,695.5C 636.337,679.841 636.337,664.175 637.5,648.5C 635.901,648.768 634.568,648.434 633.5,647.5C 643.689,647.936 654.022,647.936 664.5,647.5C 664.263,646.209 664.596,645.209 665.5,644.5 Z"/></g>
<g><path style="opacity:1" fill="#2f3a33" d="M 754.5,748.5 C 754.5,754.167 754.5,759.833 754.5,765.5C 753.668,789.663 753.168,813.997 753,838.5C 752.209,839.745 751.709,841.078 751.5,842.5C 749.255,842.459 748.588,841.625 749.5,840C 747.038,838.15 747.538,836.983 751,836.5C 751.667,835.167 751.667,833.833 751,832.5C 750.502,834.544 749.335,835.878 747.5,836.5C 748.83,793.736 748.83,751.069 747.5,708.5C 745.833,707.5 744.5,706.167 743.5,704.5C 727.406,703.826 710.573,703.493 693,703.5C 675.079,703.346 657.245,703.846 639.5,705C 638.667,705.833 637.833,706.667 637,707.5C 636.667,737.833 636.333,768.167 636,798.5C 635.667,795.5 635.333,792.5 635,789.5C 633.887,790.76 633.72,791.927 634.5,793C 630.551,793.807 630.551,794.307 634.5,794.5C 634.799,796.604 634.466,798.604 633.5,800.5C 632.97,799.244 632.97,797.744 633.5,796C 632.551,795.383 631.718,795.549 631,796.5C 629.968,778.201 629.468,759.701 629.5,741C 629.667,727.833 629.833,714.667 630,701.5C 630.833,700 632,698.833 633.5,698C 670.44,696.352 707.44,696.019 744.5,697C 748.49,698.99 750.99,702.157 752,706.5C 752.333,721.5 752.667,736.5 753,751.5C 753.232,750.263 753.732,749.263 754.5,748.5 Z"/></g>
<g><path style="opacity:1" fill="#fbfbf2" d="M 607.5,638.5 C 608.492,638.328 609.158,638.662 609.5,639.5C 609.5,642.167 609.5,644.833 609.5,647.5C 609.5,746.167 609.5,844.833 609.5,943.5C 608.668,969.663 608.168,995.997 608,1022.5C 607.171,895.983 607.338,769.483 608.5,643C 608.561,641.289 607.894,639.956 606.5,639C 606.728,638.601 607.062,638.435 607.5,638.5 Z"/></g>
<g><path style="opacity:1" fill="#010302" d="M 747.5,708.5 C 748.83,751.069 748.83,793.736 747.5,836.5C 746.348,837.625 745.348,837.625 744.5,836.5C 745.458,836.047 746.292,835.381 747,834.5C 747.5,792.501 747.667,750.501 747.5,708.5 Z"/></g>
<g><path style="opacity:1" fill="#161b18" d="M 637.5,695.5 C 646.833,695.5 656.167,695.5 665.5,695.5C 692.922,695.017 720.255,695.517 747.5,697C 750.807,699.778 752.974,703.278 754,707.5C 754.5,721.163 754.667,734.829 754.5,748.5C 753.732,749.263 753.232,750.263 753,751.5C 752.667,736.5 752.333,721.5 752,706.5C 750.99,702.157 748.49,698.99 744.5,697C 707.44,696.019 670.44,696.352 633.5,698C 632,698.833 630.833,700 630,701.5C 629.833,714.667 629.667,727.833 629.5,741C 629.468,759.701 629.968,778.201 631,796.5C 631.718,795.549 632.551,795.383 633.5,796C 632.97,797.744 632.97,799.244 633.5,800.5C 634.466,798.604 634.799,796.604 634.5,794.5C 630.551,794.307 630.551,793.807 634.5,793C 633.72,791.927 633.887,790.76 635,789.5C 635.333,792.5 635.667,795.5 636,798.5C 636.333,768.167 636.667,737.833 637,707.5C 637.833,706.667 638.667,705.833 639.5,705C 657.245,703.846 675.079,703.346 693,703.5C 710.573,703.493 727.406,703.826 743.5,704.5C 709.832,704.333 676.165,704.5 642.5,705C 641.069,705.465 639.903,706.299 639,707.5C 638.333,750.5 638.333,793.5 639,836.5C 640.045,837.373 640.878,838.373 641.5,839.5C 639.248,839.084 637.748,837.751 637,835.5C 636.765,829.172 636.932,822.838 637.5,816.5C 637.369,810.8 636.869,805.134 636,799.5C 634.951,801.107 633.451,801.773 631.5,801.5C 631.274,796.679 630.941,796.513 630.5,801C 630.559,802.436 630.892,803.769 631.5,805C 630.188,811.26 629.522,817.76 629.5,824.5C 629.553,831.866 629.886,839.2 630.5,846.5C 665.647,847.083 700.647,847.416 735.5,847.5C 712.145,847.697 688.812,848.363 665.5,849.5C 656.983,849.174 648.65,849.507 640.5,850.5C 635.365,851.574 631.532,849.907 629,845.5C 628.467,797.829 628.133,750.163 628,702.5C 629.647,698.094 632.813,695.761 637.5,695.5 Z"/></g>
<g><path style="opacity:1" fill="#030704" d="M 754.5,765.5 C 754.667,790.169 754.5,814.836 754,839.5C 753.623,840.942 752.79,841.942 751.5,842.5C 751.709,841.078 752.209,839.745 753,838.5C 753.168,813.997 753.668,789.663 754.5,765.5 Z"/></g>
<g><path style="opacity:1" fill="#f8eddd" d="M 743.5,704.5 C 744.5,706.167 745.833,707.5 747.5,708.5C 747.667,750.501 747.5,792.501 747,834.5C 746.292,835.381 745.458,836.047 744.5,836.5C 710.233,837.628 675.9,838.628 641.5,839.5C 640.878,838.373 640.045,837.373 639,836.5C 638.333,793.5 638.333,750.5 639,707.5C 639.903,706.299 641.069,705.465 642.5,705C 676.165,704.5 709.832,704.333 743.5,704.5 Z"/></g>
<g><path style="opacity:1" fill="#0c120e" d="M 674.5,796.5 C 666.684,797.492 658.684,797.826 650.5,797.5C 650.5,806.5 650.5,815.5 650.5,824.5C 658.21,824.432 665.71,824.432 673,824.5C 673.333,815.833 673.667,807.167 674,798.5C 674.5,807.494 674.666,816.494 674.5,825.5C 665.833,825.5 657.167,825.5 648.5,825.5C 648.5,815.5 648.5,805.5 648.5,795.5C 657.349,795.174 666.016,795.507 674.5,796.5 Z"/></g>
<g><path style="opacity:1" fill="#212b26" d="M 674.5,796.5 C 675.833,806.167 675.833,815.833 674.5,825.5C 674.666,816.494 674.5,807.494 674,798.5C 673.667,807.167 673.333,815.833 673,824.5C 665.71,824.432 658.21,824.432 650.5,824.5C 650.5,815.5 650.5,806.5 650.5,797.5C 658.684,797.826 666.684,797.492 674.5,796.5 Z"/></g>
<g><path style="opacity:1" fill="#faf0e2" d="M 655.5,803.5 C 659.833,803.5 664.167,803.5 668.5,803.5C 668.5,808.167 668.5,812.833 668.5,817.5C 664.167,817.5 659.833,817.5 655.5,817.5C 655.5,812.833 655.5,808.167 655.5,803.5 Z"/></g>
<g><path style="opacity:1" fill="#202924" d="M 648.5,720.5 C 657.5,720.5 666.5,720.5 675.5,720.5C 674.945,730.491 674.612,740.491 674.5,750.5C 665.833,750.5 657.167,750.5 648.5,750.5C 648.5,740.5 648.5,730.5 648.5,720.5 Z"/></g>
<g><path style="opacity:1" fill="#1e2622" d="M 717.5,769.5 C 715.5,769.5 713.5,769.5 711.5,769.5C 711.5,774.5 711.5,779.5 711.5,784.5C 715.833,784.5 720.167,784.5 724.5,784.5C 724.5,782.167 724.5,779.833 724.5,777.5C 726.833,777.5 729.167,777.5 731.5,777.5C 731.5,774.833 731.5,772.167 731.5,769.5C 729.167,769.5 726.833,769.5 724.5,769.5C 724.5,766.5 724.5,763.5 724.5,760.5C 729.167,760.5 733.833,760.5 738.5,760.5C 738.5,768.833 738.5,777.167 738.5,785.5C 736.5,785.5 734.5,785.5 732.5,785.5C 732.425,788.206 732.092,790.873 731.5,793.5C 733.5,793.5 735.5,793.5 737.5,793.5C 737.5,796.167 737.5,798.833 737.5,801.5C 735.5,801.5 733.5,801.5 731.5,801.5C 731.5,804.167 731.5,806.833 731.5,809.5C 733.5,809.5 735.5,809.5 737.5,809.5C 737.5,814.5 737.5,819.5 737.5,824.5C 731.167,824.5 724.833,824.5 718.5,824.5C 718.5,822.167 718.5,819.833 718.5,817.5C 720.5,817.5 722.5,817.5 724.5,817.5C 724.804,809.738 724.804,802.071 724.5,794.5C 722.5,794.5 720.5,794.5 718.5,794.5C 718.5,799.833 718.5,805.167 718.5,810.5C 713.833,810.5 709.167,810.5 704.5,810.5C 704.5,815.5 704.5,820.5 704.5,825.5C 701.833,825.5 699.167,825.5 696.5,825.5C 696.5,822.833 696.5,820.167 696.5,817.5C 694.5,817.5 692.5,817.5 690.5,817.5C 690.5,820.167 690.5,822.833 690.5,825.5C 688.167,825.5 685.833,825.5 683.5,825.5C 683.5,817.833 683.5,810.167 683.5,802.5C 685.833,802.5 688.167,802.5 690.5,802.5C 690.5,800.167 690.5,797.833 690.5,795.5C 688.167,795.5 685.833,795.5 683.5,795.5C 683.905,791.952 683.405,788.619 682,785.5C 677.599,786.467 673.099,786.8 668.5,786.5C 668.5,783.833 668.5,781.167 668.5,778.5C 666.5,778.5 664.5,778.5 662.5,778.5C 662.5,781.167 662.5,783.833 662.5,786.5C 657.833,786.5 653.167,786.5 648.5,786.5C 648.5,780.833 648.5,775.167 648.5,769.5C 650.833,769.5 653.167,769.5 655.5,769.5C 655.5,766.833 655.5,764.167 655.5,761.5C 657.833,761.5 660.167,761.5 662.5,761.5C 662.5,764.167 662.5,766.833 662.5,769.5C 664.833,769.5 667.167,769.5 669.5,769.5C 669.5,766.833 669.5,764.167 669.5,761.5C 674.167,761.5 678.833,761.5 683.5,761.5C 683.335,758.15 683.502,754.817 684,751.5C 685.699,750.594 687.533,750.261 689.5,750.5C 689.5,748.5 689.5,746.5 689.5,744.5C 687.5,744.5 685.5,744.5 683.5,744.5C 682.712,736.191 682.379,727.858 682.5,719.5C 684.833,719.5 687.167,719.5 689.5,719.5C 689.5,722.5 689.5,725.5 689.5,728.5C 691.792,728.756 693.959,728.423 696,727.5C 696.497,724.854 696.664,722.187 696.5,719.5C 699.119,719.232 701.619,719.565 704,720.5C 704.497,723.146 704.664,725.813 704.5,728.5C 701.833,728.5 699.167,728.5 696.5,728.5C 696.669,733.181 697.002,737.848 697.5,742.5C 699.5,742.5 701.5,742.5 703.5,742.5C 703.5,748.5 703.5,754.5 703.5,760.5C 708.167,760.5 712.833,760.5 717.5,760.5C 717.5,763.5 717.5,766.5 717.5,769.5 Z"/></g>
<g><path style="opacity:1" fill="#f8f3eb" d="M 702.5,801.5 C 703.473,803.948 703.806,806.615 703.5,809.5C 701.5,809.5 699.5,809.5 697.5,809.5C 697.5,807.167 697.5,804.833 697.5,802.5C 699.415,802.784 701.081,802.451 702.5,801.5 Z"/></g>
<g><path style="opacity:1" fill="#f6eee0" d="M 697.5,770.5 C 699.5,770.5 701.5,770.5 703.5,770.5C 703.5,776.167 703.5,781.833 703.5,787.5C 705.792,787.756 707.959,787.423 710,786.5C 712.147,794.356 712.314,797.356 710.5,795.5C 706.167,794.833 701.833,794.167 697.5,793.5C 697.5,790.833 697.5,788.167 697.5,785.5C 694.833,785.5 692.167,785.5 689.5,785.5C 689.5,783.167 689.5,780.833 689.5,778.5C 692.167,778.5 694.833,778.5 697.5,778.5C 697.5,775.833 697.5,773.167 697.5,770.5 Z"/></g>
<g><path style="opacity:1" fill="#f6eddf" d="M 717.5,769.5 C 717.335,772.518 717.502,775.518 718,778.5C 720.041,777.577 722.208,777.244 724.5,777.5C 724.5,779.833 724.5,782.167 724.5,784.5C 720.167,784.5 715.833,784.5 711.5,784.5C 711.5,779.5 711.5,774.5 711.5,769.5C 713.5,769.5 715.5,769.5 717.5,769.5 Z"/></g>
<g><path style="opacity:1" fill="#f8f3e7" d="M 724.5,769.5 C 726.833,769.5 729.167,769.5 731.5,769.5C 731.5,772.167 731.5,774.833 731.5,777.5C 729.167,777.5 726.833,777.5 724.5,777.5C 724.5,774.833 724.5,772.167 724.5,769.5 Z"/></g>
<g><path style="opacity:1" fill="#f7eee0" d="M 669.5,770.5 C 671.833,770.5 674.167,770.5 676.5,770.5C 676.5,773.167 676.5,775.833 676.5,778.5C 674.167,778.5 671.833,778.5 669.5,778.5C 669.5,775.833 669.5,773.167 669.5,770.5 Z"/></g>
<g><path style="opacity:1" fill="#1f2621" d="M 717.5,769.5 C 719.833,769.5 722.167,769.5 724.5,769.5C 724.5,772.167 724.5,774.833 724.5,777.5C 722.208,777.244 720.041,777.577 718,778.5C 717.502,775.518 717.335,772.518 717.5,769.5 Z"/></g>
<g><path style="opacity:1" fill="#f4ebdc" d="M 683.5,761.5 C 688.167,761.5 692.833,761.5 697.5,761.5C 697.5,764.167 697.5,766.833 697.5,769.5C 692.833,769.5 688.167,769.5 683.5,769.5C 683.5,766.833 683.5,764.167 683.5,761.5 Z"/></g>
<g><path style="opacity:1" fill="#f9f0e1" d="M 655.5,728.5 C 659.833,728.5 664.167,728.5 668.5,728.5C 668.5,733.167 668.5,737.833 668.5,742.5C 664.167,742.5 659.833,742.5 655.5,742.5C 655.5,737.833 655.5,733.167 655.5,728.5 Z"/></g>
<g><path style="opacity:1" fill="#1f2823" d="M 711.5,719.5 C 720.138,720.34 728.805,720.673 737.5,720.5C 737.5,730.5 737.5,740.5 737.5,750.5C 728.833,750.5 720.167,750.5 711.5,750.5C 711.5,740.167 711.5,729.833 711.5,719.5 Z"/></g>
<g><path style="opacity:1" fill="#f7f2e7" d="M 718.5,727.5 C 722.833,727.5 727.167,727.5 731.5,727.5C 731.5,732.5 731.5,737.5 731.5,742.5C 727.167,742.5 722.833,742.5 718.5,742.5C 718.5,737.5 718.5,732.5 718.5,727.5 Z"/></g>
<g><path style="opacity:1" fill="#26312b" d="M 641.5,839.5 C 675.9,838.628 710.233,837.628 744.5,836.5C 745.348,837.625 746.348,837.625 747.5,836.5C 749.335,835.878 750.502,834.544 751,832.5C 751.667,833.833 751.667,835.167 751,836.5C 747.538,836.983 747.038,838.15 749.5,840C 748.588,841.625 749.255,842.459 751.5,842.5C 750.229,844.934 748.229,846.434 745.5,847C 742.183,847.498 738.85,847.665 735.5,847.5C 700.647,847.416 665.647,847.083 630.5,846.5C 629.886,839.2 629.553,831.866 629.5,824.5C 629.522,817.76 630.188,811.26 631.5,805C 630.892,803.769 630.559,802.436 630.5,801C 630.941,796.513 631.274,796.679 631.5,801.5C 633.451,801.773 634.951,801.107 636,799.5C 636.869,805.134 637.369,810.8 637.5,816.5C 636.932,822.838 636.765,829.172 637,835.5C 637.748,837.751 639.248,839.084 641.5,839.5 Z"/></g>
<g><path style="opacity:1" fill="#e43f24" d="M 640.5,850.5 C 648.65,849.507 656.983,849.174 665.5,849.5C 665.5,849.833 665.5,850.167 665.5,850.5C 664.83,884.236 664.163,918.069 663.5,952C 664.162,975.598 664.829,999.098 665.5,1022.5C 665.5,1022.83 665.5,1023.17 665.5,1023.5C 655.833,1023.5 646.167,1023.5 636.5,1023.5C 636.963,984.91 636.963,946.91 636.5,909.5C 632.5,909.167 632.5,908.833 636.5,908.5C 636.998,889.827 637.165,871.161 637,852.5C 645.088,851.683 653.255,851.183 661.5,851C 654.508,850.5 647.508,850.334 640.5,850.5 Z"/></g>
<g><path style="opacity:1" fill="#f05027" d="M 609.5,647.5 C 617.5,647.5 625.5,647.5 633.5,647.5C 634.568,648.434 635.901,648.768 637.5,648.5C 636.337,664.175 636.337,679.841 637.5,695.5C 632.813,695.761 629.647,698.094 628,702.5C 628.133,750.163 628.467,797.829 629,845.5C 631.532,849.907 635.365,851.574 640.5,850.5C 647.508,850.334 654.508,850.5 661.5,851C 653.255,851.183 645.088,851.683 637,852.5C 637.165,871.161 636.998,889.827 636.5,908.5C 632.5,908.833 632.5,909.167 636.5,909.5C 636.963,946.91 636.963,984.91 636.5,1023.5C 627.5,1023.5 618.5,1023.5 609.5,1023.5C 609.5,996.833 609.5,970.167 609.5,943.5C 609.5,844.833 609.5,746.167 609.5,647.5 Z"/></g>
<g><path style="opacity:1" fill="#e41500" d="M 665.5,850.5 C 665.5,907.833 665.5,965.167 665.5,1022.5C 664.829,999.098 664.162,975.598 663.5,952C 664.163,918.069 664.83,884.236 665.5,850.5 Z"/></g>
</svg>
